<?xml version="1.0" encoding="UTF-8"?>
<svg width="100%" height="100%" preserveAspectRatio="xMinYMin meet" viewBox="0 0 543 177" version="1.1" xmlns="http://www.w3.org/2000/svg" xmlns:xlink="http://www.w3.org/1999/xlink">
    <!-- Generator: Sketch 52.3 (67297) - http://www.bohemiancoding.com/sketch -->
    <title>Artboard Copy 3</title>
    <desc>Created with Sketch.</desc>
    <defs>
        <linearGradient x1="50%" y1="-2.48949813e-15%" x2="50%" y2="100%" id="linearGradient-1">
            <stop stop-color="#F2C314" offset="0%"></stop>
            <stop stop-color="#FC3832" offset="100%"></stop>
        </linearGradient>
    </defs>
    <g id="Artboard-Copy-3" stroke="none" stroke-width="1" fill="none" fill-rule="evenodd">
        <g id="Group-5-Copy" transform="translate(53.000000, 0.000000)">
            <circle id="Oval-Copy-7" fill="url(#linearGradient-1)" fill-rule="nonzero" cx="401.5" cy="88.5" r="88.5"></circle>
            <path d="M9.84,77.31 C8.1799917,77.31 6.73500615,77.0800023 5.505,76.62 C4.27499385,76.1599977 3.2500041,75.530004 2.43,74.73 C1.6099959,73.929996 1.000002,72.9850055 0.6,71.895 C0.199998,70.8049945 0,69.6300063 0,68.37 L0,55.47 L7.14,55.47 L7.14,67.59 C7.14,68.6100051 7.38499755,69.4049972 7.875,69.975 C8.36500245,70.5450028 9.0599955,70.83 9.96,70.83 C10.8600045,70.83 11.5549975,70.5450028 12.045,69.975 C12.5350024,69.4049972 12.78,68.6100051 12.78,67.59 L12.78,55.47 L19.89,55.47 L19.89,68.37 C19.89,69.6300063 19.6750021,70.8049945 19.245,71.895 C18.8149978,72.9850055 18.1800042,73.929996 17.34,74.73 C16.4999958,75.530004 15.4550062,76.1599977 14.205,76.62 C12.9549937,77.0800023 11.5000083,77.31 9.84,77.31 Z M10.74,50.97 C10.74,50.569998 10.8199992,50.1900018 10.98,49.83 C11.1400008,49.4699982 11.3599986,49.1550014 11.64,48.885 C11.9200014,48.6149986 12.2399982,48.4000008 12.6,48.24 C12.9600018,48.0799992 13.3499979,48 13.77,48 C14.170002,48 14.5499982,48.0799992 14.91,48.24 C15.2700018,48.4000008 15.5849986,48.6149986 15.855,48.885 C16.1250013,49.1550014 16.3399992,49.4699982 16.5,49.83 C16.6600008,50.1900018 16.74,50.569998 16.74,50.97 C16.74,51.3900021 16.6600008,51.7749982 16.5,52.125 C16.3399992,52.4750018 16.1250013,52.7849987 15.855,53.055 C15.5849986,53.3250014 15.2700018,53.5349993 14.91,53.685 C14.5499982,53.8350008 14.170002,53.91 13.77,53.91 C12.9299958,53.91 12.2150029,53.6300028 11.625,53.07 C11.034997,52.5099972 10.74,51.8100042 10.74,50.97 Z M3.27,50.97 C3.27,50.569998 3.3499992,50.1900018 3.51,49.83 C3.6700008,49.4699982 3.8899986,49.1550014 4.17,48.885 C4.4500014,48.6149986 4.7699982,48.4000008 5.13,48.24 C5.4900018,48.0799992 5.8799979,48 6.3,48 C6.700002,48 7.0799982,48.0799992 7.44,48.24 C7.8000018,48.4000008 8.11499865,48.6149986 8.385,48.885 C8.65500135,49.1550014 8.8699992,49.4699982 9.03,49.83 C9.1900008,50.1900018 9.27,50.569998 9.27,50.97 C9.27,51.3900021 9.1900008,51.7749982 9.03,52.125 C8.8699992,52.4750018 8.65500135,52.7849987 8.385,53.055 C8.11499865,53.3250014 7.8000018,53.5349993 7.44,53.685 C7.0799982,53.8350008 6.700002,53.91 6.3,53.91 C5.4599958,53.91 4.74500295,53.6300028 4.155,53.07 C3.56499705,52.5099972 3.27,51.8100042 3.27,50.97 Z M41.43,68.76 C41.43,69.8000052 41.2750015,70.819995 40.965,71.82 C40.6549984,72.820005 40.200003,73.7149961 39.6,74.505 C38.999997,75.295004 38.2500045,75.9299976 37.35,76.41 C36.4499955,76.8900024 35.4100059,77.13 34.23,77.13 C33.2499951,77.13 32.3200044,76.9450019 31.44,76.575 C30.5599956,76.2049981 29.8900023,75.7000032 29.43,75.06 L29.37,75.06 L29.37,76.71 L23.16,76.71 L23.16,54.03 L30.06,54.03 L30.06,62.19 L30.12,62.19 C30.5800023,61.6499973 31.1899962,61.2350015 31.95,60.945 C32.7100038,60.6549986 33.4699962,60.51 34.23,60.51 C35.4100059,60.51 36.4499955,60.7499976 37.35,61.23 C38.2500045,61.7100024 38.999997,62.3399961 39.6,63.12 C40.200003,63.9000039 40.6549984,64.7799951 40.965,65.76 C41.2750015,66.7400049 41.43,67.7399949 41.43,68.76 Z M35.01,68.76 C35.01,68.0599965 34.7900022,67.4500026 34.35,66.93 C33.9099978,66.4099974 33.2700042,66.15 32.43,66.15 C31.6099959,66.15 30.9550024,66.4099974 30.465,66.93 C29.9749975,67.4500026 29.73,68.0599965 29.73,68.76 C29.73,69.5000037 29.9749975,70.1299974 30.465,70.65 C30.9550024,71.1700026 31.6099959,71.43 32.43,71.43 C33.2700042,71.43 33.9099978,71.1750026 34.35,70.665 C34.7900022,70.1549975 35.01,69.5200038 35.01,68.76 Z M54.48,66.72 C54.48,66.1599972 54.275002,65.7000018 53.865,65.34 C53.454998,64.9799982 52.9000035,64.8 52.2,64.8 C51.4399962,64.8 50.8500021,65.0099979 50.43,65.43 C50.0099979,65.8500021 49.7700003,66.2799978 49.71,66.72 L54.48,66.72 Z M60.45,68.97 C60.45,69.2300013 60.445,69.4949987 60.435,69.765 C60.4249999,70.0350014 60.4100001,70.2599991 60.39,70.44 L49.77,70.44 C49.7900001,70.7200014 49.8849991,70.9699989 50.055,71.19 C50.2250008,71.4100011 50.4349987,71.5999992 50.685,71.76 C50.9350012,71.9200008 51.2149984,72.0399996 51.525,72.12 C51.8350015,72.2000004 52.1499984,72.24 52.47,72.24 C53.1100032,72.24 53.6449978,72.1250012 54.075,71.895 C54.5050021,71.6649989 54.8299989,71.4100014 55.05,71.13 L59.97,73.62 C59.2699965,74.7600057 58.2550066,75.6599967 56.925,76.32 C55.5949933,76.9800033 54.0500088,77.31 52.29,77.31 C51.1499943,77.31 50.0400054,77.1300018 48.96,76.77 C47.8799946,76.4099982 46.9250041,75.8750035 46.095,75.165 C45.2649958,74.4549964 44.6000025,73.5700053 44.1,72.51 C43.5999975,71.4499947 43.35,70.220007 43.35,68.82 C43.35,67.5199935 43.5799977,66.3450052 44.04,65.295 C44.5000023,64.2449947 45.124996,63.3550037 45.915,62.625 C46.7050039,61.8949963 47.6349946,61.330002 48.705,60.93 C49.7750053,60.529998 50.9199939,60.33 52.14,60.33 C53.3800062,60.33 54.5099949,60.5449979 55.53,60.975 C56.5500051,61.4050021 57.4249963,62.0049961 58.155,62.775 C58.8850036,63.5450039 59.449998,64.4599947 59.85,65.52 C60.250002,66.5800053 60.45,67.7299938 60.45,68.97 Z M62.88,60.93 L69.54,60.93 L69.54,62.73 L69.6,62.73 C69.9400017,62.0899968 70.4449966,61.5600021 71.115,61.14 C71.7850033,60.7199979 72.5699955,60.51 73.47,60.51 C74.0100027,60.51 74.4499983,60.5599995 74.79,60.66 L74.25,66.54 C74.0299989,66.4799997 73.7850013,66.4350001 73.515,66.405 C73.2449986,66.3749998 73.0000011,66.36 72.78,66.36 C71.8799955,66.36 71.1600027,66.6199974 70.62,67.14 C70.0799973,67.6600026 69.81,68.2999962 69.81,69.06 L69.81,76.71 L62.88,76.71 L62.88,60.93 Z M75.06,68.76 C75.06,67.7399949 75.2149984,66.7400049 75.525,65.76 C75.8350015,64.7799951 76.289997,63.9000039 76.89,63.12 C77.490003,62.3399961 78.2399955,61.7100024 79.14,61.23 C80.0400045,60.7499976 81.0799941,60.51 82.26,60.51 C83.1000042,60.51 83.9249959,60.6699984 84.735,60.99 C85.545004,61.3100016 86.2099974,61.8199965 86.73,62.52 L86.82,62.52 L86.82,60.93 L93.33,60.93 L93.33,75.09 C93.33,76.8100086 93.0500028,78.2399943 92.49,79.38 C91.9299972,80.5200057 91.1850046,81.4249967 90.255,82.095 C89.3249953,82.7650033 88.2700059,83.2349987 87.09,83.505 C85.9099941,83.7750014 84.7100061,83.91 83.49,83.91 C81.9899925,83.91 80.4900075,83.7150019 78.99,83.325 C77.4899925,82.9349981 76.1800056,82.3600038 75.06,81.6 L78.09,77.01 C78.8500038,77.5900029 79.6499958,78.0149987 80.49,78.285 C81.3300042,78.5550014 82.1299962,78.69 82.89,78.69 C83.3900025,78.69 83.8649977,78.6250006 84.315,78.495 C84.7650022,78.3649994 85.1599983,78.1750013 85.5,77.925 C85.8400017,77.6749987 86.109999,77.3650018 86.31,76.995 C86.510001,76.6249982 86.61,76.2000024 86.61,75.72 L86.61,75.03 L86.52,75.03 C86.1399981,75.4700022 85.5750037,75.8599983 84.825,76.2 C84.0749962,76.5400017 83.2200048,76.71 82.26,76.71 C81.0399939,76.71 79.9800045,76.4950022 79.08,76.065 C78.1799955,75.6349978 77.430003,75.0550037 76.83,74.325 C76.229997,73.5949963 75.7850014,72.7500048 75.495,71.79 C75.2049985,70.8299952 75.06,69.8200053 75.06,68.76 Z M81.48,68.76 C81.48,69.5200038 81.6999978,70.1549975 82.14,70.665 C82.5800022,71.1750026 83.2199958,71.43 84.06,71.43 C84.8800041,71.43 85.5349975,71.1700026 86.025,70.65 C86.5150024,70.1299974 86.76,69.5000037 86.76,68.76 C86.76,68.0599965 86.5150024,67.4500026 86.025,66.93 C85.5349975,66.4099974 84.8800041,66.15 84.06,66.15 C83.2199958,66.15 82.5800022,66.4099974 82.14,66.93 C81.6999978,67.4500026 81.48,68.0599965 81.48,68.76 Z M105.03,70.17 C104.009995,70.17 103.190003,70.2799989 102.57,70.5 C101.949997,70.7200011 101.64,71.129997 101.64,71.73 C101.64,71.9500011 101.689999,72.1349992 101.79,72.285 C101.89,72.4350007 102.019999,72.5599995 102.18,72.66 C102.340001,72.7600005 102.514999,72.8349997 102.705,72.885 C102.895001,72.9350003 103.069999,72.96 103.23,72.96 C103.890003,72.96 104.419998,72.7500021 104.82,72.33 C105.220002,71.9099979 105.42,71.3700033 105.42,70.71 L105.42,70.17 L105.03,70.17 Z M104.97,66.69 C104.97,66.2099976 104.805002,65.8550012 104.475,65.625 C104.144998,65.3949989 103.710003,65.28 103.17,65.28 C102.529997,65.28 101.925003,65.4149987 101.355,65.685 C100.784997,65.9550013 100.280002,66.2699982 99.84,66.63 L96.39,63.21 C97.3500048,62.2899954 98.4899934,61.5800025 99.81,61.08 C101.130007,60.5799975 102.489993,60.33 103.89,60.33 C105.390007,60.33 106.629995,60.5399979 107.61,60.96 C108.590005,61.3800021 109.364997,61.9599963 109.935,62.7 C110.505003,63.4400037 110.904999,64.2999951 111.135,65.28 C111.365001,66.2600049 111.48,67.2999945 111.48,68.4 L111.48,76.71 L105.21,76.71 L105.21,75.45 L105.15,75.45 C104.749998,76.050003 104.180004,76.4799987 103.44,76.74 C102.699996,77.0000013 101.980003,77.13 101.28,77.13 C100.659997,77.13 100.025003,77.0400009 99.375,76.86 C98.7249967,76.6799991 98.1350026,76.390002 97.605,75.99 C97.0749973,75.589998 96.6400017,75.0700032 96.3,74.43 C95.9599983,73.7899968 95.79,73.0000047 95.79,72.06 C95.79,70.9599945 96.0749971,70.0650034 96.645,69.375 C97.2150028,68.6849966 97.9399956,68.145002 98.82,67.755 C99.7000044,67.364998 100.684995,67.1000007 101.775,66.96 C102.865005,66.8199993 103.929995,66.75 104.97,66.75 L104.97,66.69 Z M132.6,68.76 C132.6,69.8000052 132.445002,70.819995 132.135,71.82 C131.824998,72.820005 131.370003,73.7149961 130.77,74.505 C130.169997,75.295004 129.420005,75.9299976 128.52,76.41 C127.619995,76.8900024 126.580006,77.13 125.4,77.13 C124.419995,77.13 123.490004,76.9450019 122.61,76.575 C121.729996,76.2049981 121.060002,75.7000032 120.6,75.06 L120.54,75.06 L120.54,76.71 L114.33,76.71 L114.33,54.03 L121.23,54.03 L121.23,62.19 L121.29,62.19 C121.750002,61.6499973 122.359996,61.2350015 123.12,60.945 C123.880004,60.6549986 124.639996,60.51 125.4,60.51 C126.580006,60.51 127.619995,60.7499976 128.52,61.23 C129.420005,61.7100024 130.169997,62.3399961 130.77,63.12 C131.370003,63.9000039 131.824998,64.7799951 132.135,65.76 C132.445002,66.7400049 132.6,67.7399949 132.6,68.76 Z M126.18,68.76 C126.18,68.0599965 125.960002,67.4500026 125.52,66.93 C125.079998,66.4099974 124.440004,66.15 123.6,66.15 C122.779996,66.15 122.125002,66.4099974 121.635,66.93 C121.144998,67.4500026 120.9,68.0599965 120.9,68.76 C120.9,69.5000037 121.144998,70.1299974 121.635,70.65 C122.125002,71.1700026 122.779996,71.43 123.6,71.43 C124.440004,71.43 125.079998,71.1750026 125.52,70.665 C125.960002,70.1549975 126.18,69.5200038 126.18,68.76 Z M145.65,66.72 C145.65,66.1599972 145.445002,65.7000018 145.035,65.34 C144.624998,64.9799982 144.070003,64.8 143.37,64.8 C142.609996,64.8 142.020002,65.0099979 141.6,65.43 C141.179998,65.8500021 140.94,66.2799978 140.88,66.72 L145.65,66.72 Z M151.62,68.97 C151.62,69.2300013 151.615,69.4949987 151.605,69.765 C151.595,70.0350014 151.58,70.2599991 151.56,70.44 L140.94,70.44 C140.96,70.7200014 141.054999,70.9699989 141.225,71.19 C141.395001,71.4100011 141.604999,71.5999992 141.855,71.76 C142.105001,71.9200008 142.384998,72.0399996 142.695,72.12 C143.005002,72.2000004 143.319998,72.24 143.64,72.24 C144.280003,72.24 144.814998,72.1250012 145.245,71.895 C145.675002,71.6649989 145.999999,71.4100014 146.22,71.13 L151.14,73.62 C150.439997,74.7600057 149.425007,75.6599967 148.095,76.32 C146.764993,76.9800033 145.220009,77.31 143.46,77.31 C142.319994,77.31 141.210005,77.1300018 140.13,76.77 C139.049995,76.4099982 138.095004,75.8750035 137.265,75.165 C136.434996,74.4549964 135.770002,73.5700053 135.27,72.51 C134.769998,71.4499947 134.52,70.220007 134.52,68.82 C134.52,67.5199935 134.749998,66.3450052 135.21,65.295 C135.670002,64.2449947 136.294996,63.3550037 137.085,62.625 C137.875004,61.8949963 138.804995,61.330002 139.875,60.93 C140.945005,60.529998 142.089994,60.33 143.31,60.33 C144.550006,60.33 145.679995,60.5449979 146.7,60.975 C147.720005,61.4050021 148.594996,62.0049961 149.325,62.775 C150.055004,63.5450039 150.619998,64.4599947 151.02,65.52 C151.420002,66.5800053 151.62,67.7299938 151.62,68.97 Z M168.9,77.31 C168.039996,77.31 167.195004,77.2350007 166.365,77.085 C165.534996,76.9349993 164.735004,76.7150015 163.965,76.425 C163.194996,76.1349986 162.470003,75.7950019 161.79,75.405 C161.109997,75.0149981 160.500003,74.5800024 159.96,74.1 L164.31,69.36 C164.810002,69.9000027 165.474996,70.3799979 166.305,70.8 C167.135004,71.2200021 167.989996,71.43 168.87,71.43 C169.270002,71.43 169.634998,71.3600007 169.965,71.22 C170.295002,71.0799993 170.46,70.8200019 170.46,70.44 C170.46,70.239999 170.405001,70.0700007 170.295,69.93 C170.184999,69.7899993 169.990001,69.6450008 169.71,69.495 C169.429999,69.3449993 169.045002,69.1800009 168.555,69 C168.064998,68.8199991 167.450004,68.6100012 166.71,68.37 C165.989996,68.1299988 165.300003,67.8450017 164.64,67.515 C163.979997,67.1849984 163.395003,66.7800024 162.885,66.3 C162.374997,65.8199976 161.970001,65.2450033 161.67,64.575 C161.369998,63.9049967 161.22,63.1000047 161.22,62.16 C161.22,60.8399934 161.489997,59.7200046 162.03,58.8 C162.570003,57.8799954 163.264996,57.1250029 164.115,56.535 C164.965004,55.944997 165.919995,55.5200013 166.98,55.26 C168.040005,54.9999987 169.089995,54.87 170.13,54.87 C171.530007,54.87 172.954993,55.1399973 174.405,55.68 C175.855007,56.2200027 177.129994,56.9999949 178.23,58.02 L173.79,62.55 C173.309998,61.949997 172.720003,61.4950016 172.02,61.185 C171.319996,60.8749985 170.690003,60.72 170.13,60.72 C169.609997,60.72 169.190002,60.7949993 168.87,60.945 C168.549998,61.0950008 168.39,61.3399983 168.39,61.68 C168.39,62.0000016 168.554998,62.2399992 168.885,62.4 C169.215002,62.5600008 169.749996,62.7599988 170.49,63 C171.250004,63.2400012 172.049996,63.5199984 172.89,63.84 C173.730004,64.1600016 174.504996,64.5749974 175.215,65.085 C175.925004,65.5950026 176.509998,66.2199963 176.97,66.96 C177.430002,67.7000037 177.66,68.6199945 177.66,69.72 C177.66,71.0000064 177.405003,72.1149952 176.895,73.065 C176.384997,74.0150048 175.715004,74.8049968 174.885,75.435 C174.054996,76.0650031 173.120005,76.5349985 172.08,76.845 C171.039995,77.1550015 169.980005,77.31 168.9,77.31 Z M186.75,77.13 C184.629989,77.13 183.060005,76.6750046 182.04,75.765 C181.019995,74.8549954 180.51,73.4400096 180.51,71.52 L180.51,65.88 L178.29,65.88 L178.29,60.93 L180.48,60.93 L180.48,57.39 L187.2,57.39 L187.2,60.93 L190.62,60.93 L190.62,65.88 L187.2,65.88 L187.2,70.08 C187.2,70.8400038 187.364998,71.3549986 187.695,71.625 C188.025002,71.8950014 188.479997,72.03 189.06,72.03 C189.280001,72.03 189.509999,72.0100002 189.75,71.97 C189.990001,71.9299998 190.179999,71.8900002 190.32,71.85 L190.32,76.59 C189.959998,76.7500008 189.455003,76.8799995 188.805,76.98 C188.154997,77.0800005 187.470004,77.13 186.75,77.13 Z M200.94,70.17 C199.919995,70.17 199.100003,70.2799989 198.48,70.5 C197.859997,70.7200011 197.55,71.129997 197.55,71.73 C197.55,71.9500011 197.599999,72.1349992 197.7,72.285 C197.8,72.4350007 197.929999,72.5599995 198.09,72.66 C198.250001,72.7600005 198.424999,72.8349997 198.615,72.885 C198.805001,72.9350003 198.979999,72.96 199.14,72.96 C199.800003,72.96 200.329998,72.7500021 200.73,72.33 C201.130002,71.9099979 201.33,71.3700033 201.33,70.71 L201.33,70.17 L200.94,70.17 Z M200.88,66.69 C200.88,66.2099976 200.715002,65.8550012 200.385,65.625 C200.054998,65.3949989 199.620003,65.28 199.08,65.28 C198.439997,65.28 197.835003,65.4149987 197.265,65.685 C196.694997,65.9550013 196.190002,66.2699982 195.75,66.63 L192.3,63.21 C193.260005,62.2899954 194.399993,61.5800025 195.72,61.08 C197.040007,60.5799975 198.399993,60.33 199.8,60.33 C201.300007,60.33 202.539995,60.5399979 203.52,60.96 C204.500005,61.3800021 205.274997,61.9599963 205.845,62.7 C206.415003,63.4400037 206.814999,64.2999951 207.045,65.28 C207.275001,66.2600049 207.39,67.2999945 207.39,68.4 L207.39,76.71 L201.12,76.71 L201.12,75.45 L201.06,75.45 C200.659998,76.050003 200.090004,76.4799987 199.35,76.74 C198.609996,77.0000013 197.890003,77.13 197.19,77.13 C196.569997,77.13 195.935003,77.0400009 195.285,76.86 C194.634997,76.6799991 194.045003,76.390002 193.515,75.99 C192.984997,75.589998 192.550002,75.0700032 192.21,74.43 C191.869998,73.7899968 191.7,73.0000047 191.7,72.06 C191.7,70.9599945 191.984997,70.0650034 192.555,69.375 C193.125003,68.6849966 193.849996,68.145002 194.73,67.755 C195.610004,67.364998 196.594995,67.1000007 197.685,66.96 C198.775005,66.8199993 199.839995,66.75 200.88,66.75 L200.88,66.69 Z M210.24,60.93 L216.9,60.93 L216.9,62.73 L216.96,62.73 C217.300002,62.0899968 217.804997,61.5600021 218.475,61.14 C219.145003,60.7199979 219.929995,60.51 220.83,60.51 C221.370003,60.51 221.809998,60.5599995 222.15,60.66 L221.61,66.54 C221.389999,66.4799997 221.145001,66.4350001 220.875,66.405 C220.604999,66.3749998 220.360001,66.36 220.14,66.36 C219.239995,66.36 218.520003,66.6199974 217.98,67.14 C217.439997,67.6600026 217.17,68.2999962 217.17,69.06 L217.17,76.71 L210.24,76.71 L210.24,60.93 Z M230.1,77.13 C227.979989,77.13 226.410005,76.6750046 225.39,75.765 C224.369995,74.8549954 223.86,73.4400096 223.86,71.52 L223.86,65.88 L221.64,65.88 L221.64,60.93 L223.83,60.93 L223.83,57.39 L230.55,57.39 L230.55,60.93 L233.97,60.93 L233.97,65.88 L230.55,65.88 L230.55,70.08 C230.55,70.8400038 230.714998,71.3549986 231.045,71.625 C231.375002,71.8950014 231.829997,72.03 232.41,72.03 C232.630001,72.03 232.859999,72.0100002 233.1,71.97 C233.340001,71.9299998 233.529999,71.8900002 233.67,71.85 L233.67,76.59 C233.309998,76.7500008 232.805003,76.8799995 232.155,76.98 C231.504997,77.0800005 230.820004,77.13 230.1,77.13 Z M235.86,60.93 L242.61,60.93 L242.61,62.67 L242.67,62.67 C243.070002,62.0899971 243.664996,61.5850022 244.455,61.155 C245.245004,60.7249978 246.149995,60.51 247.17,60.51 C248.270006,60.51 249.184996,60.709998 249.915,61.11 C250.645004,61.510002 251.224998,62.0249968 251.655,62.655 C252.085002,63.2850031 252.384999,63.9899961 252.555,64.77 C252.725001,65.5500039 252.81,66.3299961 252.81,67.11 L252.81,76.71 L245.85,76.71 L245.85,68.31 C245.85,67.509996 245.725001,66.9500016 245.475,66.63 C245.224999,66.3099984 244.850002,66.15 244.35,66.15 C243.889998,66.15 243.515001,66.3349982 243.225,66.705 C242.934999,67.0750019 242.79,67.6099965 242.79,68.31 L242.79,76.71 L235.86,76.71 L235.86,60.93 Z M272.55,76.71 L265.8,76.71 L265.8,74.97 L265.74,74.97 C265.339998,75.5500029 264.745004,76.0549979 263.955,76.485 C263.164996,76.9150021 262.260005,77.13 261.24,77.13 C260.119994,77.13 259.200004,76.935002 258.48,76.545 C257.759996,76.1549981 257.185002,75.6450032 256.755,75.015 C256.324998,74.3849969 256.025001,73.675004 255.855,72.885 C255.684999,72.094996 255.6,71.3100039 255.6,70.53 L255.6,60.93 L262.56,60.93 L262.56,69.27 C262.56,70.070004 262.684999,70.6299984 262.935,70.95 C263.185001,71.2700016 263.559998,71.43 264.06,71.43 C264.520002,71.43 264.894999,71.2450019 265.185,70.875 C265.475001,70.5049982 265.62,69.9700035 265.62,69.27 L265.62,60.93 L272.55,60.93 L272.55,76.71 Z M285.39,76.71 L285.39,68.43 C285.39,67.629996 285.290001,67.0500018 285.09,66.69 C284.889999,66.3299982 284.560002,66.15 284.1,66.15 C283.759998,66.15 283.435002,66.3099984 283.125,66.63 C282.814998,66.9500016 282.66,67.5199959 282.66,68.34 L282.66,76.71 L275.73,76.71 L275.73,60.93 L282.48,60.93 L282.48,62.67 L282.54,62.67 C282.740001,62.4099987 282.984999,62.1550012 283.275,61.905 C283.565001,61.6549988 283.894998,61.425001 284.265,61.215 C284.635002,61.004999 285.049998,60.8350006 285.51,60.705 C285.970002,60.5749994 286.469997,60.51 287.01,60.51 C288.050005,60.51 288.949996,60.6949981 289.71,61.065 C290.470004,61.4350018 291.069998,62.0099961 291.51,62.79 C292.030003,62.1499968 292.669996,61.6100022 293.43,61.17 C294.190004,60.7299978 295.149994,60.51 296.31,60.51 C297.430006,60.51 298.354996,60.7299978 299.085,61.17 C299.815004,61.6100022 300.394998,62.1599967 300.825,62.82 C301.255002,63.4800033 301.554999,64.1949961 301.725,64.965 C301.895001,65.7350039 301.98,66.4499967 301.98,67.11 L301.98,76.71 L295.05,76.71 L295.05,68.31 C295.05,67.4499957 294.945001,66.8750015 294.735,66.585 C294.524999,66.2949985 294.200002,66.15 293.76,66.15 C293.359998,66.15 293.020001,66.3349982 292.74,66.705 C292.459999,67.0750019 292.32,67.6199964 292.32,68.34 L292.32,76.71 L285.39,76.71 Z M314.67,76.71 L314.67,68.43 C314.67,67.629996 314.570001,67.0500018 314.37,66.69 C314.169999,66.3299982 313.840002,66.15 313.38,66.15 C313.039998,66.15 312.715002,66.3099984 312.405,66.63 C312.094998,66.9500016 311.94,67.5199959 311.94,68.34 L311.94,76.71 L305.01,76.71 L305.01,60.93 L311.76,60.93 L311.76,62.67 L311.82,62.67 C312.020001,62.4099987 312.264999,62.1550012 312.555,61.905 C312.845001,61.6549988 313.174998,61.425001 313.545,61.215 C313.915002,61.004999 314.329998,60.8350006 314.79,60.705 C315.250002,60.5749994 315.749997,60.51 316.29,60.51 C317.330005,60.51 318.229996,60.6949981 318.99,61.065 C319.750004,61.4350018 320.349998,62.0099961 320.79,62.79 C321.310003,62.1499968 321.949996,61.6100022 322.71,61.17 C323.470004,60.7299978 324.429994,60.51 325.59,60.51 C326.710006,60.51 327.634996,60.7299978 328.365,61.17 C329.095004,61.6100022 329.674998,62.1599967 330.105,62.82 C330.535002,63.4800033 330.834999,64.1949961 331.005,64.965 C331.175001,65.7350039 331.26,66.4499967 331.26,67.11 L331.26,76.71 L324.33,76.71 L324.33,68.31 C324.33,67.4499957 324.225001,66.8750015 324.015,66.585 C323.804999,66.2949985 323.480002,66.15 323.04,66.15 C322.639998,66.15 322.300001,66.3349982 322.02,66.705 C321.739999,67.0750019 321.6,67.6199964 321.6,68.34 L321.6,76.71 L314.67,76.71 Z M344.79,66.72 C344.79,66.1599972 344.585002,65.7000018 344.175,65.34 C343.764998,64.9799982 343.210003,64.8 342.51,64.8 C341.749996,64.8 341.160002,65.0099979 340.74,65.43 C340.319998,65.8500021 340.08,66.2799978 340.02,66.72 L344.79,66.72 Z M350.76,68.97 C350.76,69.2300013 350.755,69.4949987 350.745,69.765 C350.735,70.0350014 350.72,70.2599991 350.7,70.44 L340.08,70.44 C340.1,70.7200014 340.194999,70.9699989 340.365,71.19 C340.535001,71.4100011 340.744999,71.5999992 340.995,71.76 C341.245001,71.9200008 341.524998,72.0399996 341.835,72.12 C342.145002,72.2000004 342.459998,72.24 342.78,72.24 C343.420003,72.24 343.954998,72.1250012 344.385,71.895 C344.815002,71.6649989 345.139999,71.4100014 345.36,71.13 L350.28,73.62 C349.579996,74.7600057 348.565007,75.6599967 347.235,76.32 C345.904993,76.9800033 344.360009,77.31 342.6,77.31 C341.459994,77.31 340.350005,77.1300018 339.27,76.77 C338.189995,76.4099982 337.235004,75.8750035 336.405,75.165 C335.574996,74.4549964 334.910002,73.5700053 334.41,72.51 C333.909997,71.4499947 333.66,70.220007 333.66,68.82 C333.66,67.5199935 333.889998,66.3450052 334.35,65.295 C334.810002,64.2449947 335.434996,63.3550037 336.225,62.625 C337.015004,61.8949963 337.944995,61.330002 339.015,60.93 C340.085005,60.529998 341.229994,60.33 342.45,60.33 C343.690006,60.33 344.819995,60.5449979 345.84,60.975 C346.860005,61.4050021 347.734996,62.0049961 348.465,62.775 C349.195004,63.5450039 349.759998,64.4599947 350.16,65.52 C350.560002,66.5800053 350.76,67.7299938 350.76,68.97 Z M353.19,60.93 L359.85,60.93 L359.85,62.73 L359.91,62.73 C360.250002,62.0899968 360.754997,61.5600021 361.425,61.14 C362.095003,60.7199979 362.879995,60.51 363.78,60.51 C364.320003,60.51 364.759998,60.5599995 365.1,60.66 L364.56,66.54 C364.339999,66.4799997 364.095001,66.4350001 363.825,66.405 C363.554999,66.3749998 363.310001,66.36 363.09,66.36 C362.189995,66.36 361.470003,66.6199974 360.93,67.14 C360.389997,67.6600026 360.12,68.2999962 360.12,69.06 L360.12,76.71 L353.19,76.71 L353.19,60.93 Z M374.07,60.93 L381,60.93 L381,76.71 L374.07,76.71 L374.07,60.93 Z M373.95,56.37 C373.95,55.8899976 374.044999,55.4350021 374.235,55.005 C374.425001,54.5749979 374.684998,54.2000016 375.015,53.88 C375.345002,53.5599984 375.729998,53.305001 376.17,53.115 C376.610002,52.924999 377.079997,52.83 377.58,52.83 C378.060002,52.83 378.509998,52.924999 378.93,53.115 C379.350002,53.305001 379.724998,53.5599984 380.055,53.88 C380.385002,54.2000016 380.644999,54.5749979 380.835,55.005 C381.025001,55.4350021 381.12,55.8899976 381.12,56.37 C381.12,56.8700025 381.025001,57.3349979 380.835,57.765 C380.644999,58.1950021 380.385002,58.5649985 380.055,58.875 C379.724998,59.1850015 379.350002,59.4299991 378.93,59.61 C378.509998,59.7900009 378.060002,59.88 377.58,59.88 C377.079997,59.88 376.610002,59.7900009 376.17,59.61 C375.729998,59.4299991 375.345002,59.1850015 375.015,58.875 C374.684998,58.5649985 374.425001,58.1950021 374.235,57.765 C374.044999,57.3349979 373.95,56.8700025 373.95,56.37 Z M384.21,60.93 L390.96,60.93 L390.96,62.67 L391.02,62.67 C391.420002,62.0899971 392.014996,61.5850022 392.805,61.155 C393.595004,60.7249978 394.499995,60.51 395.52,60.51 C396.620005,60.51 397.534996,60.709998 398.265,61.11 C398.995004,61.510002 399.574998,62.0249968 400.005,62.655 C400.435002,63.2850031 400.734999,63.9899961 400.905,64.77 C401.075001,65.5500039 401.16,66.3299961 401.16,67.11 L401.16,76.71 L394.2,76.71 L394.2,68.31 C394.2,67.509996 394.075001,66.9500016 393.825,66.63 C393.574999,66.3099984 393.200002,66.15 392.7,66.15 C392.239998,66.15 391.865001,66.3349982 391.575,66.705 C391.284999,67.0750019 391.14,67.6099965 391.14,68.31 L391.14,76.71 L384.21,76.71 L384.21,60.93 Z M128.67,117.71 L121.47,117.71 L115.68,96.47 L123.24,96.47 L125.52,108.41 L125.64,108.41 L128.1,96.47 L135.57,96.47 L138.24,108.41 L138.36,108.41 L140.67,96.47 L147.99,96.47 L142.08,117.71 L134.88,117.71 L131.88,105.71 L131.76,105.71 L128.67,117.71 Z M159,107.72 C159,107.159997 158.795002,106.700002 158.385,106.34 C157.974998,105.979998 157.420003,105.8 156.72,105.8 C155.959996,105.8 155.370002,106.009998 154.95,106.43 C154.529998,106.850002 154.29,107.279998 154.23,107.72 L159,107.72 Z M164.97,109.97 C164.97,110.230001 164.965,110.494999 164.955,110.765 C164.945,111.035001 164.93,111.259999 164.91,111.44 L154.29,111.44 C154.31,111.720001 154.404999,111.969999 154.575,112.19 C154.745001,112.410001 154.954999,112.599999 155.205,112.76 C155.455001,112.920001 155.734998,113.04 156.045,113.12 C156.355002,113.2 156.669998,113.24 156.99,113.24 C157.630003,113.24 158.164998,113.125001 158.595,112.895 C159.025002,112.664999 159.349999,112.410001 159.57,112.13 L164.49,114.62 C163.789996,115.760006 162.775007,116.659997 161.445,117.32 C160.114993,117.980003 158.570009,118.31 156.81,118.31 C155.669994,118.31 154.560005,118.130002 153.48,117.77 C152.399995,117.409998 151.445004,116.875004 150.615,116.165 C149.784996,115.454996 149.120002,114.570005 148.62,113.51 C148.119997,112.449995 147.87,111.220007 147.87,109.82 C147.87,108.519994 148.099998,107.345005 148.56,106.295 C149.020002,105.244995 149.644996,104.355004 150.435,103.625 C151.225004,102.894996 152.154995,102.330002 153.225,101.93 C154.295005,101.529998 155.439994,101.33 156.66,101.33 C157.900006,101.33 159.029995,101.544998 160.05,101.975 C161.070005,102.405002 161.944996,103.004996 162.675,103.775 C163.405004,104.545004 163.969998,105.459995 164.37,106.52 C164.770002,107.580005 164.97,108.729994 164.97,109.97 Z M175.98,118.31 C174.639993,118.31 173.410006,118.110002 172.29,117.71 C171.169994,117.309998 170.200004,116.740004 169.38,116 C168.559996,115.259996 167.920002,114.370005 167.46,113.33 C166.999998,112.289995 166.77,111.120007 166.77,109.82 C166.77,108.539994 167.004998,107.375005 167.475,106.325 C167.945002,105.274995 168.599996,104.380004 169.44,103.64 C170.280004,102.899996 171.264994,102.330002 172.395,101.93 C173.525006,101.529998 174.749993,101.33 176.07,101.33 C176.610003,101.33 177.154997,101.375 177.705,101.465 C178.255003,101.555 178.784997,101.679999 179.295,101.84 C179.805003,102.000001 180.274998,102.179999 180.705,102.38 C181.135002,102.580001 181.499998,102.799999 181.8,103.04 L178.35,108.02 C178.109999,107.739999 177.795002,107.525001 177.405,107.375 C177.014998,107.224999 176.640002,107.15 176.28,107.15 C175.939998,107.15 175.610002,107.204999 175.29,107.315 C174.969998,107.425001 174.685001,107.594999 174.435,107.825 C174.184999,108.055001 173.980001,108.334998 173.82,108.665 C173.659999,108.995002 173.58,109.379998 173.58,109.82 C173.58,110.260002 173.659999,110.644998 173.82,110.975 C173.980001,111.305002 174.184999,111.574999 174.435,111.785 C174.685001,111.995001 174.969998,112.154999 175.29,112.265 C175.610002,112.375001 175.939998,112.43 176.28,112.43 C176.680002,112.43 177.069998,112.355001 177.45,112.205 C177.830002,112.054999 178.139999,111.850001 178.38,111.59 L181.86,116.45 C181.199997,116.970003 180.345005,117.409998 179.295,117.77 C178.244995,118.130002 177.140006,118.31 175.98,118.31 Z M194.49,101.51 C195.590005,101.51 196.504996,101.709998 197.235,102.11 C197.965004,102.510002 198.544998,103.024997 198.975,103.655 C199.405002,104.285003 199.704999,104.989996 199.875,105.77 C200.045001,106.550004 200.13,107.329996 200.13,108.11 L200.13,117.71 L193.17,117.71 L193.17,109.31 C193.17,108.509996 193.045001,107.950002 192.795,107.63 C192.544999,107.309998 192.170002,107.15 191.67,107.15 C191.269998,107.15 190.910002,107.324998 190.59,107.675 C190.269998,108.025002 190.11,108.579996 190.11,109.34 L190.11,117.71 L183.18,117.71 L183.18,95.03 L190.11,95.03 L190.11,103.67 L190.17,103.67 C190.570002,103.089997 191.139996,102.585002 191.88,102.155 C192.620004,101.724998 193.489995,101.51 194.49,101.51 Z M216.09,112.7 C216.09,113.760005 215.865002,114.649996 215.415,115.37 C214.964998,116.090004 214.395003,116.664998 213.705,117.095 C213.014997,117.525002 212.260004,117.834999 211.44,118.025 C210.619996,118.215001 209.840004,118.31 209.1,118.31 C207.739993,118.31 206.405007,118.115002 205.095,117.725 C203.784993,117.334998 202.650005,116.780004 201.69,116.06 L205.08,112.13 C205.560002,112.570002 206.124997,112.924999 206.775,113.195 C207.425003,113.465001 208.049997,113.6 208.65,113.6 C208.890001,113.6 209.114999,113.555 209.325,113.465 C209.535001,113.375 209.64,113.210001 209.64,112.97 C209.64,112.709999 209.455002,112.505001 209.085,112.355 C208.714998,112.204999 208.070005,112.020001 207.15,111.8 C206.649997,111.679999 206.140003,111.505001 205.62,111.275 C205.099997,111.044999 204.625002,110.740002 204.195,110.36 C203.764998,109.979998 203.410001,109.515003 203.13,108.965 C202.849999,108.414997 202.71,107.760004 202.71,107 C202.71,105.979995 202.934998,105.110004 203.385,104.39 C203.835002,103.669996 204.404997,103.085002 205.095,102.635 C205.785003,102.184998 206.534996,101.855001 207.345,101.645 C208.155004,101.434999 208.919996,101.33 209.64,101.33 C210.860006,101.33 212.069994,101.509998 213.27,101.87 C214.470006,102.230002 215.549995,102.729997 216.51,103.37 L213.27,107.24 C212.769997,106.919998 212.260003,106.670001 211.74,106.49 C211.219997,106.309999 210.710002,106.22 210.21,106.22 C209.869998,106.22 209.590001,106.265 209.37,106.355 C209.149999,106.445 209.04,106.619999 209.04,106.88 C209.04,107.080001 209.164999,107.234999 209.415,107.345 C209.665001,107.455001 210.239995,107.599999 211.14,107.78 C211.760003,107.900001 212.364997,108.084999 212.955,108.335 C213.545003,108.585001 214.074998,108.904998 214.545,109.295 C215.015002,109.685002 215.389999,110.159997 215.67,110.72 C215.950001,111.280003 216.09,111.939996 216.09,112.7 Z M229.05,107.72 C229.05,107.159997 228.845002,106.700002 228.435,106.34 C228.024998,105.979998 227.470003,105.8 226.77,105.8 C226.009996,105.8 225.420002,106.009998 225,106.43 C224.579998,106.850002 224.34,107.279998 224.28,107.72 L229.05,107.72 Z M235.02,109.97 C235.02,110.230001 235.015,110.494999 235.005,110.765 C234.995,111.035001 234.98,111.259999 234.96,111.44 L224.34,111.44 C224.36,111.720001 224.454999,111.969999 224.625,112.19 C224.795001,112.410001 225.004999,112.599999 225.255,112.76 C225.505001,112.920001 225.784998,113.04 226.095,113.12 C226.405002,113.2 226.719998,113.24 227.04,113.24 C227.680003,113.24 228.214998,113.125001 228.645,112.895 C229.075002,112.664999 229.399999,112.410001 229.62,112.13 L234.54,114.62 C233.839996,115.760006 232.825007,116.659997 231.495,117.32 C230.164993,117.980003 228.620009,118.31 226.86,118.31 C225.719994,118.31 224.610005,118.130002 223.53,117.77 C222.449995,117.409998 221.495004,116.875004 220.665,116.165 C219.834996,115.454996 219.170002,114.570005 218.67,113.51 C218.169997,112.449995 217.92,111.220007 217.92,109.82 C217.92,108.519994 218.149998,107.345005 218.61,106.295 C219.070002,105.244995 219.694996,104.355004 220.485,103.625 C221.275004,102.894996 222.204995,102.330002 223.275,101.93 C224.345005,101.529998 225.489994,101.33 226.71,101.33 C227.950006,101.33 229.079995,101.544998 230.1,101.975 C231.120005,102.405002 231.994996,103.004996 232.725,103.775 C233.455004,104.545004 234.019998,105.459995 234.42,106.52 C234.820002,107.580005 235.02,108.729994 235.02,109.97 Z M237.45,95.03 L244.53,95.03 L244.53,117.71 L237.45,117.71 L237.45,95.03 Z M247.11,112.88 L253.02,107.06 L247.26,107.06 L247.26,101.93 L261.63,101.93 L261.63,106.43 L255.24,112.58 L261.81,112.58 L261.81,117.71 L247.11,117.71 L247.11,112.88 Z M281.79,109.76 C281.79,111.120007 281.545002,112.329995 281.055,113.39 C280.564998,114.450005 279.905004,115.344996 279.075,116.075 C278.244996,116.805004 277.285005,117.359998 276.195,117.74 C275.104995,118.120002 273.960006,118.31 272.76,118.31 C271.579994,118.31 270.445005,118.120002 269.355,117.74 C268.264995,117.359998 267.310004,116.805004 266.49,116.075 C265.669996,115.344996 265.015002,114.450005 264.525,113.39 C264.034998,112.329995 263.79,111.120007 263.79,109.76 C263.79,108.419993 264.034998,107.225005 264.525,106.175 C265.015002,105.124995 265.669996,104.240004 266.49,103.52 C267.310004,102.799996 268.264995,102.255002 269.355,101.885 C270.445005,101.514998 271.579994,101.33 272.76,101.33 C273.960006,101.33 275.104995,101.514998 276.195,101.885 C277.285005,102.255002 278.244996,102.799996 279.075,103.52 C279.905004,104.240004 280.564998,105.124995 281.055,106.175 C281.545002,107.225005 281.79,108.419993 281.79,109.76 Z M272.76,107.15 C271.999996,107.15 271.385002,107.409997 270.915,107.93 C270.444998,108.450003 270.21,109.059997 270.21,109.76 C270.21,110.500004 270.449998,111.129997 270.93,111.65 C271.410002,112.170003 272.029996,112.43 272.79,112.43 C273.550004,112.43 274.169998,112.170003 274.65,111.65 C275.130002,111.129997 275.37,110.500004 275.37,109.76 C275.37,109.059997 275.125002,108.450003 274.635,107.93 C274.144998,107.409997 273.520004,107.15 272.76,107.15 Z M284.34,101.93 L291.09,101.93 L291.09,103.67 L291.15,103.67 C291.550002,103.089997 292.144996,102.585002 292.935,102.155 C293.725004,101.724998 294.629995,101.51 295.65,101.51 C296.750005,101.51 297.664996,101.709998 298.395,102.11 C299.125004,102.510002 299.704998,103.024997 300.135,103.655 C300.565002,104.285003 300.864999,104.989996 301.035,105.77 C301.205001,106.550004 301.29,107.329996 301.29,108.11 L301.29,117.71 L294.33,117.71 L294.33,109.31 C294.33,108.509996 294.205001,107.950002 293.955,107.63 C293.704999,107.309998 293.330002,107.15 292.83,107.15 C292.369998,107.15 291.995001,107.334998 291.705,107.705 C291.414999,108.075002 291.27,108.609997 291.27,109.31 L291.27,117.71 L284.34,117.71 L284.34,101.93 Z M314.82,107.72 C314.82,107.159997 314.615002,106.700002 314.205,106.34 C313.794998,105.979998 313.240003,105.8 312.54,105.8 C311.779996,105.8 311.190002,106.009998 310.77,106.43 C310.349998,106.850002 310.11,107.279998 310.05,107.72 L314.82,107.72 Z M320.79,109.97 C320.79,110.230001 320.785,110.494999 320.775,110.765 C320.765,111.035001 320.75,111.259999 320.73,111.44 L310.11,111.44 C310.13,111.720001 310.224999,111.969999 310.395,112.19 C310.565001,112.410001 310.774999,112.599999 311.025,112.76 C311.275001,112.920001 311.554998,113.04 311.865,113.12 C312.175002,113.2 312.489998,113.24 312.81,113.24 C313.450003,113.24 313.984998,113.125001 314.415,112.895 C314.845002,112.664999 315.169999,112.410001 315.39,112.13 L320.31,114.62 C319.609996,115.760006 318.595007,116.659997 317.265,117.32 C315.934993,117.980003 314.390009,118.31 312.63,118.31 C311.489994,118.31 310.380005,118.130002 309.3,117.77 C308.219995,117.409998 307.265004,116.875004 306.435,116.165 C305.604996,115.454996 304.940002,114.570005 304.44,113.51 C303.939997,112.449995 303.69,111.220007 303.69,109.82 C303.69,108.519994 303.919998,107.345005 304.38,106.295 C304.840002,105.244995 305.464996,104.355004 306.255,103.625 C307.045004,102.894996 307.974995,102.330002 309.045,101.93 C310.115005,101.529998 311.259994,101.33 312.48,101.33 C313.720006,101.33 314.849995,101.544998 315.87,101.975 C316.890005,102.405002 317.764996,103.004996 318.495,103.775 C319.225004,104.545004 319.789998,105.459995 320.19,106.52 C320.590002,107.580005 320.79,108.729994 320.79,109.97 Z M330.72,101.93 L337.47,101.93 L337.47,103.67 L337.53,103.67 C337.930002,103.089997 338.524996,102.585002 339.315,102.155 C340.105004,101.724998 341.009995,101.51 342.03,101.51 C343.130005,101.51 344.044996,101.709998 344.775,102.11 C345.505004,102.510002 346.084998,103.024997 346.515,103.655 C346.945002,104.285003 347.244999,104.989996 347.415,105.77 C347.585001,106.550004 347.67,107.329996 347.67,108.11 L347.67,117.71 L340.71,117.71 L340.71,109.31 C340.71,108.509996 340.585001,107.950002 340.335,107.63 C340.084999,107.309998 339.710002,107.15 339.21,107.15 C338.749998,107.15 338.375001,107.334998 338.085,107.705 C337.794999,108.075002 337.65,108.609997 337.65,109.31 L337.65,117.71 L330.72,117.71 L330.72,101.93 Z M359.13,111.17 C358.109995,111.17 357.290003,111.279999 356.67,111.5 C356.049997,111.720001 355.74,112.129997 355.74,112.73 C355.74,112.950001 355.789999,113.134999 355.89,113.285 C355.99,113.435001 356.119999,113.56 356.28,113.66 C356.440001,113.76 356.614999,113.835 356.805,113.885 C356.995001,113.935 357.169999,113.96 357.33,113.96 C357.990003,113.96 358.519998,113.750002 358.92,113.33 C359.320002,112.909998 359.52,112.370003 359.52,111.71 L359.52,111.17 L359.13,111.17 Z M359.07,107.69 C359.07,107.209998 358.905002,106.855001 358.575,106.625 C358.244998,106.394999 357.810003,106.28 357.27,106.28 C356.629997,106.28 356.025003,106.414999 355.455,106.685 C354.884997,106.955001 354.380002,107.269998 353.94,107.63 L350.49,104.21 C351.450005,103.289995 352.589993,102.580003 353.91,102.08 C355.230007,101.579997 356.589993,101.33 357.99,101.33 C359.490007,101.33 360.729995,101.539998 361.71,101.96 C362.690005,102.380002 363.464997,102.959996 364.035,103.7 C364.605003,104.440004 365.004999,105.299995 365.235,106.28 C365.465001,107.260005 365.58,108.299995 365.58,109.4 L365.58,117.71 L359.31,117.71 L359.31,116.45 L359.25,116.45 C358.849998,117.050003 358.280004,117.479999 357.54,117.74 C356.799996,118.000001 356.080003,118.13 355.38,118.13 C354.759997,118.13 354.125003,118.040001 353.475,117.86 C352.824997,117.679999 352.235003,117.390002 351.705,116.99 C351.174997,116.589998 350.740002,116.070003 350.4,115.43 C350.059998,114.789997 349.89,114.000005 349.89,113.06 C349.89,111.959994 350.174997,111.065003 350.745,110.375 C351.315003,109.684997 352.039996,109.145002 352.92,108.755 C353.800004,108.364998 354.784995,108.100001 355.875,107.96 C356.965005,107.819999 358.029995,107.75 359.07,107.75 L359.07,107.69 Z M377.01,118.31 C375.669993,118.31 374.440006,118.110002 373.32,117.71 C372.199994,117.309998 371.230004,116.740004 370.41,116 C369.589996,115.259996 368.950002,114.370005 368.49,113.33 C368.029998,112.289995 367.8,111.120007 367.8,109.82 C367.8,108.539994 368.034998,107.375005 368.505,106.325 C368.975002,105.274995 369.629996,104.380004 370.47,103.64 C371.310004,102.899996 372.294994,102.330002 373.425,101.93 C374.555006,101.529998 375.779993,101.33 377.1,101.33 C377.640003,101.33 378.184997,101.375 378.735,101.465 C379.285003,101.555 379.814997,101.679999 380.325,101.84 C380.835003,102.000001 381.304998,102.179999 381.735,102.38 C382.165002,102.580001 382.529998,102.799999 382.83,103.04 L379.38,108.02 C379.139999,107.739999 378.825002,107.525001 378.435,107.375 C378.044998,107.224999 377.670002,107.15 377.31,107.15 C376.969998,107.15 376.640002,107.204999 376.32,107.315 C375.999998,107.425001 375.715001,107.594999 375.465,107.825 C375.214999,108.055001 375.010001,108.334998 374.85,108.665 C374.689999,108.995002 374.61,109.379998 374.61,109.82 C374.61,110.260002 374.689999,110.644998 374.85,110.975 C375.010001,111.305002 375.214999,111.574999 375.465,111.785 C375.715001,111.995001 375.999998,112.154999 376.32,112.265 C376.640002,112.375001 376.969998,112.43 377.31,112.43 C377.710002,112.43 378.099998,112.355001 378.48,112.205 C378.860002,112.054999 379.169999,111.850001 379.41,111.59 L382.89,116.45 C382.229997,116.970003 381.375005,117.409998 380.325,117.77 C379.274995,118.130002 378.170006,118.31 377.01,118.31 Z M395.52,101.51 C396.620005,101.51 397.534996,101.709998 398.265,102.11 C398.995004,102.510002 399.574998,103.024997 400.005,103.655 C400.435002,104.285003 400.734999,104.989996 400.905,105.77 C401.075001,106.550004 401.16,107.329996 401.16,108.11 L401.16,117.71 L394.2,117.71 L394.2,109.31 C394.2,108.509996 394.075001,107.950002 393.825,107.63 C393.574999,107.309998 393.200002,107.15 392.7,107.15 C392.299998,107.15 391.940002,107.324998 391.62,107.675 C391.299998,108.025002 391.14,108.579996 391.14,109.34 L391.14,117.71 L384.21,117.71 L384.21,95.03 L391.14,95.03 L391.14,103.67 L391.2,103.67 C391.600002,103.089997 392.169996,102.585002 392.91,102.155 C393.650004,101.724998 394.519995,101.51 395.52,101.51 Z M81.48,150.64 L75.66,150.64 L75.66,158.71 L68.52,158.71 L68.52,137.47 L75.63,137.47 L75.63,144.67 L81.45,144.67 L81.45,137.47 L88.62,137.47 L88.62,158.71 L81.48,158.71 L81.48,150.64 Z M100.62,152.17 C99.5999949,152.17 98.7800031,152.279999 98.16,152.5 C97.5399969,152.720001 97.23,153.129997 97.23,153.73 C97.23,153.950001 97.2799995,154.134999 97.38,154.285 C97.4800005,154.435001 97.6099992,154.56 97.77,154.66 C97.9300008,154.76 98.104999,154.835 98.295,154.885 C98.4850009,154.935 98.6599992,154.96 98.82,154.96 C99.4800033,154.96 100.009998,154.750002 100.41,154.33 C100.810002,153.909998 101.01,153.370003 101.01,152.71 L101.01,152.17 L100.62,152.17 Z M100.56,148.69 C100.56,148.209998 100.395002,147.855001 100.065,147.625 C99.7349983,147.394999 99.3000027,147.28 98.76,147.28 C98.1199968,147.28 97.5150028,147.414999 96.945,147.685 C96.3749971,147.955001 95.8700022,148.269998 95.43,148.63 L91.98,145.21 C92.9400048,144.289995 94.0799934,143.580003 95.4,143.08 C96.7200066,142.579997 98.079993,142.33 99.48,142.33 C100.980007,142.33 102.219995,142.539998 103.2,142.96 C104.180005,143.380002 104.954997,143.959996 105.525,144.7 C106.095003,145.440004 106.494999,146.299995 106.725,147.28 C106.955001,148.260005 107.07,149.299995 107.07,150.4 L107.07,158.71 L100.8,158.71 L100.8,157.45 L100.74,157.45 C100.339998,158.050003 99.7700037,158.479999 99.03,158.74 C98.2899963,159.000001 97.5700035,159.13 96.87,159.13 C96.2499969,159.13 95.6150032,159.040001 94.965,158.86 C94.3149967,158.679999 93.7250026,158.390002 93.195,157.99 C92.6649973,157.589998 92.2300017,157.070003 91.89,156.43 C91.5499983,155.789997 91.38,155.000005 91.38,154.06 C91.38,152.959994 91.6649971,152.065003 92.235,151.375 C92.8050028,150.684997 93.5299956,150.145002 94.41,149.755 C95.2900044,149.364998 96.2749945,149.100001 97.365,148.96 C98.4550054,148.819999 99.5199948,148.75 100.56,148.75 L100.56,148.69 Z M109.92,136.03 L117,136.03 L117,158.71 L109.92,158.71 L109.92,136.03 Z M138.45,150.76 C138.45,151.800005 138.295002,152.819995 137.985,153.82 C137.674998,154.820005 137.220003,155.714996 136.62,156.505 C136.019997,157.295004 135.270004,157.929998 134.37,158.41 C133.469995,158.890002 132.430006,159.13 131.25,159.13 C130.269995,159.13 129.340004,158.945002 128.46,158.575 C127.579996,158.204998 126.910002,157.700003 126.45,157.06 L126.39,157.06 L126.39,158.71 L120.18,158.71 L120.18,136.03 L127.08,136.03 L127.08,144.19 L127.14,144.19 C127.600002,143.649997 128.209996,143.235001 128.97,142.945 C129.730004,142.654999 130.489996,142.51 131.25,142.51 C132.430006,142.51 133.469995,142.749998 134.37,143.23 C135.270004,143.710002 136.019997,144.339996 136.62,145.12 C137.220003,145.900004 137.674998,146.779995 137.985,147.76 C138.295002,148.740005 138.45,149.739995 138.45,150.76 Z M132.03,150.76 C132.03,150.059997 131.810002,149.450003 131.37,148.93 C130.929998,148.409997 130.290004,148.15 129.45,148.15 C128.629996,148.15 127.975002,148.409997 127.485,148.93 C126.994998,149.450003 126.75,150.059997 126.75,150.76 C126.75,151.500004 126.994998,152.129997 127.485,152.65 C127.975002,153.170003 128.629996,153.43 129.45,153.43 C130.290004,153.43 130.929998,153.175003 131.37,152.665 C131.810002,152.154997 132.03,151.520004 132.03,150.76 Z M150.66,158.71 L150.66,150.43 C150.66,149.629996 150.560001,149.050002 150.36,148.69 C150.159999,148.329998 149.830002,148.15 149.37,148.15 C149.029998,148.15 148.705002,148.309998 148.395,148.63 C148.084998,148.950002 147.93,149.519996 147.93,150.34 L147.93,158.71 L141,158.71 L141,142.93 L147.75,142.93 L147.75,144.67 L147.81,144.67 C148.010001,144.409999 148.254999,144.155001 148.545,143.905 C148.835001,143.654999 149.164998,143.425001 149.535,143.215 C149.905002,143.004999 150.319998,142.835001 150.78,142.705 C151.240002,142.574999 151.739997,142.51 152.28,142.51 C153.320005,142.51 154.219996,142.694998 154.98,143.065 C155.740004,143.435002 156.339998,144.009996 156.78,144.79 C157.300003,144.149997 157.939996,143.610002 158.7,143.17 C159.460004,142.729998 160.419994,142.51 161.58,142.51 C162.700006,142.51 163.624996,142.729998 164.355,143.17 C165.085004,143.610002 165.664998,144.159997 166.095,144.82 C166.525002,145.480003 166.824999,146.194996 166.995,146.965 C167.165001,147.735004 167.25,148.449997 167.25,149.11 L167.25,158.71 L160.32,158.71 L160.32,150.31 C160.32,149.449996 160.215001,148.875001 160.005,148.585 C159.794999,148.294999 159.470002,148.15 159.03,148.15 C158.629998,148.15 158.290001,148.334998 158.01,148.705 C157.729999,149.075002 157.59,149.619996 157.59,150.34 L157.59,158.71 L150.66,158.71 Z M178.71,152.17 C177.689995,152.17 176.870003,152.279999 176.25,152.5 C175.629997,152.720001 175.32,153.129997 175.32,153.73 C175.32,153.950001 175.369999,154.134999 175.47,154.285 C175.57,154.435001 175.699999,154.56 175.86,154.66 C176.020001,154.76 176.194999,154.835 176.385,154.885 C176.575001,154.935 176.749999,154.96 176.91,154.96 C177.570003,154.96 178.099998,154.750002 178.5,154.33 C178.900002,153.909998 179.1,153.370003 179.1,152.71 L179.1,152.17 L178.71,152.17 Z M178.65,148.69 C178.65,148.209998 178.485002,147.855001 178.155,147.625 C177.824998,147.394999 177.390003,147.28 176.85,147.28 C176.209997,147.28 175.605003,147.414999 175.035,147.685 C174.464997,147.955001 173.960002,148.269998 173.52,148.63 L170.07,145.21 C171.030005,144.289995 172.169993,143.580003 173.49,143.08 C174.810007,142.579997 176.169993,142.33 177.57,142.33 C179.070007,142.33 180.309995,142.539998 181.29,142.96 C182.270005,143.380002 183.044997,143.959996 183.615,144.7 C184.185003,145.440004 184.584999,146.299995 184.815,147.28 C185.045001,148.260005 185.16,149.299995 185.16,150.4 L185.16,158.71 L178.89,158.71 L178.89,157.45 L178.83,157.45 C178.429998,158.050003 177.860004,158.479999 177.12,158.74 C176.379996,159.000001 175.660003,159.13 174.96,159.13 C174.339997,159.13 173.705003,159.040001 173.055,158.86 C172.404997,158.679999 171.815003,158.390002 171.285,157.99 C170.754997,157.589998 170.320002,157.070003 169.98,156.43 C169.639998,155.789997 169.47,155.000005 169.47,154.06 C169.47,152.959994 169.754997,152.065003 170.325,151.375 C170.895003,150.684997 171.619996,150.145002 172.5,149.755 C173.380004,149.364998 174.364995,149.100001 175.455,148.96 C176.545005,148.819999 177.609995,148.75 178.65,148.75 L178.65,148.69 Z M188.01,142.93 L194.67,142.93 L194.67,144.73 L194.73,144.73 C195.070002,144.089997 195.574997,143.560002 196.245,143.14 C196.915003,142.719998 197.699995,142.51 198.6,142.51 C199.140003,142.51 199.579998,142.56 199.92,142.66 L199.38,148.54 C199.159999,148.48 198.915001,148.435 198.645,148.405 C198.374999,148.375 198.130001,148.36 197.91,148.36 C197.009995,148.36 196.290003,148.619997 195.75,149.14 C195.209997,149.660003 194.94,150.299996 194.94,151.06 L194.94,158.71 L188.01,158.71 L188.01,142.93 Z M209.25,152.17 C208.229995,152.17 207.410003,152.279999 206.79,152.5 C206.169997,152.720001 205.86,153.129997 205.86,153.73 C205.86,153.950001 205.909999,154.134999 206.01,154.285 C206.11,154.435001 206.239999,154.56 206.4,154.66 C206.560001,154.76 206.734999,154.835 206.925,154.885 C207.115001,154.935 207.289999,154.96 207.45,154.96 C208.110003,154.96 208.639998,154.750002 209.04,154.33 C209.440002,153.909998 209.64,153.370003 209.64,152.71 L209.64,152.17 L209.25,152.17 Z M209.19,148.69 C209.19,148.209998 209.025002,147.855001 208.695,147.625 C208.364998,147.394999 207.930003,147.28 207.39,147.28 C206.749997,147.28 206.145003,147.414999 205.575,147.685 C205.004997,147.955001 204.500002,148.269998 204.06,148.63 L200.61,145.21 C201.570005,144.289995 202.709993,143.580003 204.03,143.08 C205.350007,142.579997 206.709993,142.33 208.11,142.33 C209.610007,142.33 210.849995,142.539998 211.83,142.96 C212.810005,143.380002 213.584997,143.959996 214.155,144.7 C214.725003,145.440004 215.124999,146.299995 215.355,147.28 C215.585001,148.260005 215.7,149.299995 215.7,150.4 L215.7,158.71 L209.43,158.71 L209.43,157.45 L209.37,157.45 C208.969998,158.050003 208.400004,158.479999 207.66,158.74 C206.919996,159.000001 206.200003,159.13 205.5,159.13 C204.879997,159.13 204.245003,159.040001 203.595,158.86 C202.944997,158.679999 202.355003,158.390002 201.825,157.99 C201.294997,157.589998 200.860002,157.070003 200.52,156.43 C200.179998,155.789997 200.01,155.000005 200.01,154.06 C200.01,152.959994 200.294997,152.065003 200.865,151.375 C201.435003,150.684997 202.159996,150.145002 203.04,149.755 C203.920004,149.364998 204.904995,149.100001 205.995,148.96 C207.085005,148.819999 208.149995,148.75 209.19,148.75 L209.19,148.69 Z M225.12,159.13 C222.999989,159.13 221.430005,158.675005 220.41,157.765 C219.389995,156.854995 218.88,155.44001 218.88,153.52 L218.88,147.88 L216.66,147.88 L216.66,142.93 L218.85,142.93 L218.85,139.39 L225.57,139.39 L225.57,142.93 L228.99,142.93 L228.99,147.88 L225.57,147.88 L225.57,152.08 C225.57,152.840004 225.734998,153.354999 226.065,153.625 C226.395002,153.895001 226.849997,154.03 227.43,154.03 C227.650001,154.03 227.879999,154.01 228.12,153.97 C228.360001,153.93 228.549999,153.89 228.69,153.85 L228.69,158.59 C228.329998,158.750001 227.825003,158.879999 227.175,158.98 C226.524997,159.080001 225.840004,159.13 225.12,159.13 Z M242.19,142.51 C243.290006,142.51 244.204996,142.709998 244.935,143.11 C245.665004,143.510002 246.244998,144.024997 246.675,144.655 C247.105002,145.285003 247.404999,145.989996 247.575,146.77 C247.745001,147.550004 247.83,148.329996 247.83,149.11 L247.83,158.71 L240.87,158.71 L240.87,150.31 C240.87,149.509996 240.745001,148.950002 240.495,148.63 C240.244999,148.309998 239.870002,148.15 239.37,148.15 C238.969998,148.15 238.610002,148.324998 238.29,148.675 C237.969998,149.025002 237.81,149.579996 237.81,150.34 L237.81,158.71 L230.88,158.71 L230.88,136.03 L237.81,136.03 L237.81,144.67 L237.87,144.67 C238.270002,144.089997 238.839996,143.585002 239.58,143.155 C240.320004,142.724998 241.189995,142.51 242.19,142.51 Z M268.23,150.76 C268.23,152.120007 267.985002,153.329995 267.495,154.39 C267.004998,155.450005 266.345004,156.344996 265.515,157.075 C264.684996,157.805004 263.725005,158.359998 262.635,158.74 C261.544995,159.120002 260.400006,159.31 259.2,159.31 C258.019994,159.31 256.885005,159.120002 255.795,158.74 C254.704995,158.359998 253.750004,157.805004 252.93,157.075 C252.109996,156.344996 251.455002,155.450005 250.965,154.39 C250.474998,153.329995 250.23,152.120007 250.23,150.76 C250.23,149.419993 250.474998,148.225005 250.965,147.175 C251.455002,146.124995 252.109996,145.240004 252.93,144.52 C253.750004,143.799996 254.704995,143.255002 255.795,142.885 C256.885005,142.514998 258.019994,142.33 259.2,142.33 C260.400006,142.33 261.544995,142.514998 262.635,142.885 C263.725005,143.255002 264.684996,143.799996 265.515,144.52 C266.345004,145.240004 267.004998,146.124995 267.495,147.175 C267.985002,148.225005 268.23,149.419993 268.23,150.76 Z M259.2,148.15 C258.439996,148.15 257.825002,148.409997 257.355,148.93 C256.884998,149.450003 256.65,150.059997 256.65,150.76 C256.65,151.500004 256.889998,152.129997 257.37,152.65 C257.850002,153.170003 258.469996,153.43 259.23,153.43 C259.990004,153.43 260.609998,153.170003 261.09,152.65 C261.570002,152.129997 261.81,151.500004 261.81,150.76 C261.81,150.059997 261.565002,149.450003 261.075,148.93 C260.584998,148.409997 259.960004,148.15 259.2,148.15 Z M270.78,142.93 L277.53,142.93 L277.53,144.67 L277.59,144.67 C277.990002,144.089997 278.584996,143.585002 279.375,143.155 C280.165004,142.724998 281.069995,142.51 282.09,142.51 C283.190005,142.51 284.104996,142.709998 284.835,143.11 C285.565004,143.510002 286.144998,144.024997 286.575,144.655 C287.005002,145.285003 287.304999,145.989996 287.475,146.77 C287.645001,147.550004 287.73,148.329996 287.73,149.11 L287.73,158.71 L280.77,158.71 L280.77,150.31 C280.77,149.509996 280.645001,148.950002 280.395,148.63 C280.144999,148.309998 279.770002,148.15 279.27,148.15 C278.809998,148.15 278.435001,148.334998 278.145,148.705 C277.854999,149.075002 277.71,149.609997 277.71,150.31 L277.71,158.71 L270.78,158.71 L270.78,142.93 Z M290.13,150.76 C290.13,149.739995 290.284998,148.740005 290.595,147.76 C290.905002,146.779995 291.359997,145.900004 291.96,145.12 C292.560003,144.339996 293.309996,143.710002 294.21,143.23 C295.110004,142.749998 296.149994,142.51 297.33,142.51 C298.090004,142.51 298.849996,142.654999 299.61,142.945 C300.370004,143.235001 300.979998,143.649997 301.44,144.19 L301.5,144.19 L301.5,136.03 L308.4,136.03 L308.4,158.71 L302.19,158.71 L302.19,157.06 L302.13,157.06 C301.669998,157.700003 301.000004,158.204998 300.12,158.575 C299.239996,158.945002 298.310005,159.13 297.33,159.13 C296.149994,159.13 295.110004,158.890002 294.21,158.41 C293.309996,157.929998 292.560003,157.295004 291.96,156.505 C291.359997,155.714996 290.905002,154.820005 290.595,153.82 C290.284998,152.819995 290.13,151.800005 290.13,150.76 Z M296.55,150.76 C296.55,151.520004 296.769998,152.154997 297.21,152.665 C297.650002,153.175003 298.289996,153.43 299.13,153.43 C299.950004,153.43 300.604998,153.170003 301.095,152.65 C301.585002,152.129997 301.83,151.500004 301.83,150.76 C301.83,150.059997 301.585002,149.450003 301.095,148.93 C300.604998,148.409997 299.950004,148.15 299.13,148.15 C298.289996,148.15 297.650002,148.409997 297.21,148.93 C296.769998,149.450003 296.55,150.059997 296.55,150.76 Z M311.61,142.93 L318.54,142.93 L318.54,158.71 L311.61,158.71 L311.61,142.93 Z M311.49,138.37 C311.49,137.889998 311.584999,137.435002 311.775,137.005 C311.965001,136.574998 312.224998,136.200002 312.555,135.88 C312.885002,135.559998 313.269998,135.305001 313.71,135.115 C314.150002,134.924999 314.619997,134.83 315.12,134.83 C315.600002,134.83 316.049998,134.924999 316.47,135.115 C316.890002,135.305001 317.264998,135.559998 317.595,135.88 C317.925002,136.200002 318.184999,136.574998 318.375,137.005 C318.565001,137.435002 318.66,137.889998 318.66,138.37 C318.66,138.870003 318.565001,139.334998 318.375,139.765 C318.184999,140.195002 317.925002,140.564998 317.595,140.875 C317.264998,141.185002 316.890002,141.429999 316.47,141.61 C316.049998,141.790001 315.600002,141.88 315.12,141.88 C314.619997,141.88 314.150002,141.790001 313.71,141.61 C313.269998,141.429999 312.885002,141.185002 312.555,140.875 C312.224998,140.564998 311.965001,140.195002 311.775,139.765 C311.584999,139.334998 311.49,138.870003 311.49,138.37 Z M334.68,153.7 C334.68,154.760005 334.455002,155.649996 334.005,156.37 C333.554998,157.090004 332.985003,157.664998 332.295,158.095 C331.604997,158.525002 330.850004,158.834999 330.03,159.025 C329.209996,159.215001 328.430004,159.31 327.69,159.31 C326.329993,159.31 324.995007,159.115002 323.685,158.725 C322.374993,158.334998 321.240005,157.780004 320.28,157.06 L323.67,153.13 C324.150002,153.570002 324.714997,153.924999 325.365,154.195 C326.015003,154.465001 326.639997,154.6 327.24,154.6 C327.480001,154.6 327.704999,154.555 327.915,154.465 C328.125001,154.375 328.23,154.210001 328.23,153.97 C328.23,153.709999 328.045002,153.505001 327.675,153.355 C327.304998,153.204999 326.660005,153.020001 325.74,152.8 C325.239997,152.679999 324.730003,152.505001 324.21,152.275 C323.689997,152.044999 323.215002,151.740002 322.785,151.36 C322.354998,150.979998 322.000001,150.515003 321.72,149.965 C321.439999,149.414997 321.3,148.760004 321.3,148 C321.3,146.979995 321.524998,146.110004 321.975,145.39 C322.425002,144.669996 322.994997,144.085002 323.685,143.635 C324.375003,143.184998 325.124996,142.855001 325.935,142.645 C326.745004,142.434999 327.509996,142.33 328.23,142.33 C329.450006,142.33 330.659994,142.509998 331.86,142.87 C333.060006,143.230002 334.139995,143.729997 335.1,144.37 L331.86,148.24 C331.359997,147.919998 330.850003,147.670001 330.33,147.49 C329.809997,147.309999 329.300003,147.22 328.8,147.22 C328.459998,147.22 328.180001,147.265 327.96,147.355 C327.739999,147.445 327.63,147.619999 327.63,147.88 C327.63,148.080001 327.754999,148.234999 328.005,148.345 C328.255001,148.455001 328.829995,148.599999 329.73,148.78 C330.350003,148.900001 330.954997,149.084999 331.545,149.335 C332.135003,149.585001 332.664998,149.904998 333.135,150.295 C333.605002,150.685002 333.979999,151.159997 334.26,151.72 C334.540001,152.280003 334.68,152.939996 334.68,153.7 Z M344.01,159.13 C341.889989,159.13 340.320005,158.675005 339.3,157.765 C338.279995,156.854995 337.77,155.44001 337.77,153.52 L337.77,147.88 L335.55,147.88 L335.55,142.93 L337.74,142.93 L337.74,139.39 L344.46,139.39 L344.46,142.93 L347.88,142.93 L347.88,147.88 L344.46,147.88 L344.46,152.08 C344.46,152.840004 344.624998,153.354999 344.955,153.625 C345.285002,153.895001 345.739997,154.03 346.32,154.03 C346.540001,154.03 346.769999,154.01 347.01,153.97 C347.250001,153.93 347.439999,153.89 347.58,153.85 L347.58,158.59 C347.219998,158.750001 346.715003,158.879999 346.065,158.98 C345.414997,159.080001 344.730004,159.13 344.01,159.13 Z M358.2,152.17 C357.179995,152.17 356.360003,152.279999 355.74,152.5 C355.119997,152.720001 354.81,153.129997 354.81,153.73 C354.81,153.950001 354.859999,154.134999 354.96,154.285 C355.06,154.435001 355.189999,154.56 355.35,154.66 C355.510001,154.76 355.684999,154.835 355.875,154.885 C356.065001,154.935 356.239999,154.96 356.4,154.96 C357.060003,154.96 357.589998,154.750002 357.99,154.33 C358.390002,153.909998 358.59,153.370003 358.59,152.71 L358.59,152.17 L358.2,152.17 Z M358.14,148.69 C358.14,148.209998 357.975002,147.855001 357.645,147.625 C357.314998,147.394999 356.880003,147.28 356.34,147.28 C355.699997,147.28 355.095003,147.414999 354.525,147.685 C353.954997,147.955001 353.450002,148.269998 353.01,148.63 L349.56,145.21 C350.520005,144.289995 351.659993,143.580003 352.98,143.08 C354.300007,142.579997 355.659993,142.33 357.06,142.33 C358.560007,142.33 359.799995,142.539998 360.78,142.96 C361.760005,143.380002 362.534997,143.959996 363.105,144.7 C363.675003,145.440004 364.074999,146.299995 364.305,147.28 C364.535001,148.260005 364.65,149.299995 364.65,150.4 L364.65,158.71 L358.38,158.71 L358.38,157.45 L358.32,157.45 C357.919998,158.050003 357.350004,158.479999 356.61,158.74 C355.869996,159.000001 355.150003,159.13 354.45,159.13 C353.829997,159.13 353.195003,159.040001 352.545,158.86 C351.894997,158.679999 351.305003,158.390002 350.775,157.99 C350.244997,157.589998 349.810002,157.070003 349.47,156.43 C349.129998,155.789997 348.96,155.000005 348.96,154.06 C348.96,152.959994 349.244997,152.065003 349.815,151.375 C350.385003,150.684997 351.109996,150.145002 351.99,149.755 C352.870004,149.364998 353.854995,149.100001 354.945,148.96 C356.035005,148.819999 357.099995,148.75 358.14,148.75 L358.14,148.69 Z M367.5,142.93 L374.25,142.93 L374.25,144.67 L374.31,144.67 C374.710002,144.089997 375.304996,143.585002 376.095,143.155 C376.885004,142.724998 377.789995,142.51 378.81,142.51 C379.910005,142.51 380.824996,142.709998 381.555,143.11 C382.285004,143.510002 382.864998,144.024997 383.295,144.655 C383.725002,145.285003 384.024999,145.989996 384.195,146.77 C384.365001,147.550004 384.45,148.329996 384.45,149.11 L384.45,158.71 L377.49,158.71 L377.49,150.31 C377.49,149.509996 377.365001,148.950002 377.115,148.63 C376.864999,148.309998 376.490002,148.15 375.99,148.15 C375.529998,148.15 375.155001,148.334998 374.865,148.705 C374.574999,149.075002 374.43,149.609997 374.43,150.31 L374.43,158.71 L367.5,158.71 L367.5,142.93 Z M386.88,153.88 L392.79,148.06 L387.03,148.06 L387.03,142.93 L401.4,142.93 L401.4,147.43 L395.01,153.58 L401.58,153.58 L401.58,158.71 L386.88,158.71 L386.88,153.88 Z" id="bergabe-Startnummer" fill="#FFFFFF"></path>
        </g>
    </g>
</svg>