<?xml version="1.0" encoding="UTF-8"?>
<svg width="100%" height="100%" preserveAspectRatio="xMinYMin meet" viewBox="0 0 543 177" version="1.1" xmlns="http://www.w3.org/2000/svg" xmlns:xlink="http://www.w3.org/1999/xlink">
    <!-- Generator: Sketch 52.3 (67297) - http://www.bohemiancoding.com/sketch -->
    <title>Artboard Copy</title>
    <desc>Created with Sketch.</desc>
    <defs>
        <linearGradient x1="50%" y1="-2.48949813e-15%" x2="50%" y2="100%" id="linearGradient-1">
            <stop stop-color="#F2C314" offset="0%"></stop>
            <stop stop-color="#FC3832" offset="100%"></stop>
        </linearGradient>
    </defs>
    <g id="Artboard-Copy" stroke="none" stroke-width="1" fill="none" fill-rule="evenodd">
        <g id="Group-3-Copy" transform="translate(5.000000, 0.000000)">
            <circle id="Oval-Copy-6" fill="url(#linearGradient-1)" fill-rule="nonzero" cx="88.5" cy="88.5" r="88.5"></circle>
            <path d="M100.76,113.42 C99.0799916,113.42 97.5250071,113.160003 96.095,112.64 C94.6649928,112.119997 93.4250053,111.375005 92.375,110.405 C91.3249947,109.434995 90.500003,108.260007 89.9,106.88 C89.299997,105.499993 89,103.960009 89,102.26 C89,100.559992 89.299997,99.0200069 89.9,97.64 C90.500003,96.2599931 91.3199948,95.0800049 92.36,94.1 C93.4000052,93.1199951 94.619993,92.3650027 96.02,91.835 C97.420007,91.3049974 98.919992,91.04 100.52,91.04 C102.180008,91.04 103.754993,91.3099973 105.245,91.85 C106.735007,92.3900027 107.949995,93.1299953 108.89,94.07 L104.72,99.08 C104.279998,98.5599974 103.760003,98.1450016 103.16,97.835 C102.559997,97.5249985 101.820004,97.37 100.94,97.37 C100.359997,97.37 99.7950027,97.4849989 99.245,97.715 C98.6949973,97.9450012 98.2100021,98.2749979 97.79,98.705 C97.3699979,99.1350022 97.0300013,99.649997 96.77,100.25 C96.5099987,100.850003 96.38,101.519996 96.38,102.26 C96.38,103.740007 96.7649962,104.944995 97.535,105.875 C98.3050039,106.805005 99.5399915,107.27 101.24,107.27 C101.540002,107.27 101.849998,107.245 102.17,107.195 C102.490002,107.145 102.739999,107.070001 102.92,106.97 L102.92,105.35 L99.5,105.35 L99.5,99.74 L109.25,99.74 L109.25,111.35 C108.749998,111.650002 108.175003,111.924999 107.525,112.175 C106.874997,112.425001 106.185004,112.639999 105.455,112.82 C104.724996,113.000001 103.960004,113.144999 103.16,113.255 C102.359996,113.365001 101.560004,113.42 100.76,113.42 Z M122.93,102.89 C122.93,102.329997 122.725002,101.870002 122.315,101.51 C121.904998,101.149998 121.350004,100.97 120.65,100.97 C119.889996,100.97 119.300002,101.179998 118.88,101.6 C118.459998,102.020002 118.22,102.449998 118.16,102.89 L122.93,102.89 Z M128.9,105.14 C128.9,105.400001 128.895,105.664999 128.885,105.935 C128.875,106.205001 128.86,106.429999 128.84,106.61 L118.22,106.61 C118.24,106.890001 118.334999,107.139999 118.505,107.36 C118.675001,107.580001 118.884999,107.769999 119.135,107.93 C119.385001,108.090001 119.664998,108.21 119.975,108.29 C120.285002,108.37 120.599998,108.41 120.92,108.41 C121.560003,108.41 122.094998,108.295001 122.525,108.065 C122.955002,107.834999 123.279999,107.580001 123.5,107.3 L128.42,109.79 C127.719996,110.930006 126.705007,111.829997 125.375,112.49 C124.044993,113.150003 122.500009,113.48 120.74,113.48 C119.599994,113.48 118.490005,113.300002 117.41,112.94 C116.329995,112.579998 115.375004,112.045004 114.545,111.335 C113.714996,110.624996 113.050003,109.740005 112.55,108.68 C112.049998,107.619995 111.8,106.390007 111.8,104.99 C111.8,103.689994 112.029998,102.515005 112.49,101.465 C112.950002,100.414995 113.574996,99.5250037 114.365,98.795 C115.155004,98.0649964 116.084995,97.500002 117.155,97.1 C118.225005,96.699998 119.369994,96.5 120.59,96.5 C121.830006,96.5 122.959995,96.7149979 123.98,97.145 C125.000005,97.5750022 125.874996,98.1749961 126.605,98.945 C127.335004,99.7150039 127.899998,100.629995 128.3,101.69 C128.700002,102.750005 128.9,103.899994 128.9,105.14 Z M140.99,112.88 L140.99,104.6 C140.99,103.799996 140.890001,103.220002 140.69,102.86 C140.489999,102.499998 140.160002,102.32 139.7,102.32 C139.359998,102.32 139.035002,102.479998 138.725,102.8 C138.414998,103.120002 138.26,103.689996 138.26,104.51 L138.26,112.88 L131.33,112.88 L131.33,97.1 L138.08,97.1 L138.08,98.84 L138.14,98.84 C138.340001,98.5799987 138.584999,98.3250013 138.875,98.075 C139.165001,97.8249988 139.494998,97.5950011 139.865,97.385 C140.235002,97.174999 140.649998,97.0050007 141.11,96.875 C141.570002,96.7449994 142.069997,96.68 142.61,96.68 C143.650005,96.68 144.549996,96.8649982 145.31,97.235 C146.070004,97.6050019 146.669998,98.1799961 147.11,98.96 C147.630003,98.3199968 148.269996,97.7800022 149.03,97.34 C149.790004,96.8999978 150.749994,96.68 151.91,96.68 C153.030006,96.68 153.954996,96.8999978 154.685,97.34 C155.415004,97.7800022 155.994998,98.3299967 156.425,98.99 C156.855002,99.6500033 157.154999,100.364996 157.325,101.135 C157.495001,101.905004 157.58,102.619997 157.58,103.28 L157.58,112.88 L150.65,112.88 L150.65,104.48 C150.65,103.619996 150.545001,103.045001 150.335,102.755 C150.124999,102.464999 149.800002,102.32 149.36,102.32 C148.959998,102.32 148.620001,102.504998 148.34,102.875 C148.059999,103.245002 147.92,103.789996 147.92,104.51 L147.92,112.88 L140.99,112.88 Z M171.11,102.89 C171.11,102.329997 170.905002,101.870002 170.495,101.51 C170.084998,101.149998 169.530004,100.97 168.83,100.97 C168.069996,100.97 167.480002,101.179998 167.06,101.6 C166.639998,102.020002 166.4,102.449998 166.34,102.89 L171.11,102.89 Z M177.08,105.14 C177.08,105.400001 177.075,105.664999 177.065,105.935 C177.055,106.205001 177.04,106.429999 177.02,106.61 L166.4,106.61 C166.42,106.890001 166.514999,107.139999 166.685,107.36 C166.855001,107.580001 167.064999,107.769999 167.315,107.93 C167.565001,108.090001 167.844998,108.21 168.155,108.29 C168.465002,108.37 168.779998,108.41 169.1,108.41 C169.740003,108.41 170.274998,108.295001 170.705,108.065 C171.135002,107.834999 171.459999,107.580001 171.68,107.3 L176.6,109.79 C175.899997,110.930006 174.885007,111.829997 173.555,112.49 C172.224993,113.150003 170.680009,113.48 168.92,113.48 C167.779994,113.48 166.670005,113.300002 165.59,112.94 C164.509995,112.579998 163.555004,112.045004 162.725,111.335 C161.894996,110.624996 161.230002,109.740005 160.73,108.68 C160.229997,107.619995 159.98,106.390007 159.98,104.99 C159.98,103.689994 160.209998,102.515005 160.67,101.465 C161.130002,100.414995 161.754996,99.5250037 162.545,98.795 C163.335004,98.0649964 164.264995,97.500002 165.335,97.1 C166.405005,96.699998 167.549994,96.5 168.77,96.5 C170.010006,96.5 171.139995,96.7149979 172.16,97.145 C173.180005,97.5750022 174.054996,98.1749961 174.785,98.945 C175.515004,99.7150039 176.079998,100.629995 176.48,101.69 C176.880002,102.750005 177.08,103.899994 177.08,105.14 Z M179.54,97.1 L186.47,97.1 L186.47,112.88 L179.54,112.88 L179.54,97.1 Z M179.42,92.54 C179.42,92.0599976 179.514999,91.6050022 179.705,91.175 C179.895001,90.7449979 180.154998,90.3700016 180.485,90.05 C180.815002,89.7299984 181.199998,89.475001 181.64,89.285 C182.080002,89.0949991 182.549998,89 183.05,89 C183.530002,89 183.979998,89.0949991 184.4,89.285 C184.820002,89.475001 185.194998,89.7299984 185.525,90.05 C185.855002,90.3700016 186.114999,90.7449979 186.305,91.175 C186.495001,91.6050022 186.59,92.0599976 186.59,92.54 C186.59,93.0400025 186.495001,93.5049979 186.305,93.935 C186.114999,94.3650022 185.855002,94.7349985 185.525,95.045 C185.194998,95.3550015 184.820002,95.5999991 184.4,95.78 C183.979998,95.9600009 183.530002,96.05 183.05,96.05 C182.549998,96.05 182.080002,95.9600009 181.64,95.78 C181.199998,95.5999991 180.815002,95.3550015 180.485,95.045 C180.154998,94.7349985 179.895001,94.3650022 179.705,93.935 C179.514999,93.5049979 179.42,93.0400025 179.42,92.54 Z M189.68,97.1 L196.43,97.1 L196.43,98.84 L196.49,98.84 C196.890002,98.2599971 197.484996,97.7550022 198.275,97.325 C199.065004,96.8949978 199.969995,96.68 200.99,96.68 C202.090005,96.68 203.004996,96.879998 203.735,97.28 C204.465004,97.680002 205.044998,98.1949969 205.475,98.825 C205.905002,99.4550032 206.204999,100.159996 206.375,100.94 C206.545001,101.720004 206.63,102.499996 206.63,103.28 L206.63,112.88 L199.67,112.88 L199.67,104.48 C199.67,103.679996 199.545001,103.120002 199.295,102.8 C199.044999,102.479998 198.670003,102.32 198.17,102.32 C197.709998,102.32 197.335001,102.504998 197.045,102.875 C196.754999,103.245002 196.61,103.779997 196.61,104.48 L196.61,112.88 L189.68,112.88 L189.68,97.1 Z M222.59,107.87 C222.59,108.930005 222.365002,109.819996 221.915,110.54 C221.464998,111.260004 220.895003,111.834998 220.205,112.265 C219.514997,112.695002 218.760004,113.004999 217.94,113.195 C217.119996,113.385001 216.340004,113.48 215.6,113.48 C214.239993,113.48 212.905007,113.285002 211.595,112.895 C210.284993,112.504998 209.150005,111.950004 208.19,111.23 L211.58,107.3 C212.060002,107.740002 212.624997,108.094999 213.275,108.365 C213.925003,108.635001 214.549997,108.77 215.15,108.77 C215.390001,108.77 215.614999,108.725 215.825,108.635 C216.035001,108.545 216.14,108.380001 216.14,108.14 C216.14,107.879999 215.955002,107.675001 215.585,107.525 C215.214998,107.374999 214.570005,107.190001 213.65,106.97 C213.149998,106.849999 212.640003,106.675001 212.12,106.445 C211.599997,106.214999 211.125002,105.910002 210.695,105.53 C210.264998,105.149998 209.910001,104.685003 209.63,104.135 C209.349999,103.584997 209.21,102.930004 209.21,102.17 C209.21,101.149995 209.434998,100.280004 209.885,99.56 C210.335002,98.8399964 210.904997,98.2550023 211.595,97.805 C212.285003,97.3549978 213.034996,97.0250011 213.845,96.815 C214.655004,96.604999 215.419996,96.5 216.14,96.5 C217.360006,96.5 218.569994,96.6799982 219.77,97.04 C220.970006,97.4000018 222.049995,97.8999968 223.01,98.54 L219.77,102.41 C219.269998,102.089998 218.760003,101.840001 218.24,101.66 C217.719997,101.479999 217.210002,101.39 216.71,101.39 C216.369998,101.39 216.090001,101.435 215.87,101.525 C215.649999,101.615 215.54,101.789999 215.54,102.05 C215.54,102.250001 215.664999,102.404999 215.915,102.515 C216.165001,102.625001 216.739996,102.769999 217.64,102.95 C218.260003,103.070001 218.864997,103.254999 219.455,103.505 C220.045003,103.755001 220.574998,104.074998 221.045,104.465 C221.515002,104.855002 221.889999,105.329997 222.17,105.89 C222.450001,106.450003 222.59,107.109996 222.59,107.87 Z M233.48,106.34 C232.459995,106.34 231.640003,106.449999 231.02,106.67 C230.399997,106.890001 230.09,107.299997 230.09,107.9 C230.09,108.120001 230.139999,108.304999 230.24,108.455 C230.340001,108.605001 230.469999,108.73 230.63,108.83 C230.790001,108.930001 230.964999,109.005 231.155,109.055 C231.345001,109.105 231.519999,109.13 231.68,109.13 C232.340003,109.13 232.869998,108.920002 233.27,108.5 C233.670002,108.079998 233.87,107.540003 233.87,106.88 L233.87,106.34 L233.48,106.34 Z M233.42,102.86 C233.42,102.379998 233.255002,102.025001 232.925,101.795 C232.594998,101.564999 232.160003,101.45 231.62,101.45 C230.979997,101.45 230.375003,101.584999 229.805,101.855 C229.234997,102.125001 228.730002,102.439998 228.29,102.8 L224.84,99.38 C225.800005,98.4599954 226.939993,97.7500025 228.26,97.25 C229.580007,96.7499975 230.939993,96.5 232.34,96.5 C233.840007,96.5 235.079995,96.7099979 236.06,97.13 C237.040005,97.5500021 237.814997,98.1299963 238.385,98.87 C238.955003,99.6100037 239.354999,100.469995 239.585,101.45 C239.815001,102.430005 239.93,103.469995 239.93,104.57 L239.93,112.88 L233.66,112.88 L233.66,111.62 L233.6,111.62 C233.199998,112.220003 232.630004,112.649999 231.89,112.91 C231.149996,113.170001 230.430003,113.3 229.73,113.3 C229.109997,113.3 228.475003,113.210001 227.825,113.03 C227.174997,112.849999 226.585003,112.560002 226.055,112.16 C225.524997,111.759998 225.090002,111.240003 224.75,110.6 C224.409998,109.959997 224.24,109.170005 224.24,108.23 C224.24,107.129995 224.524997,106.235003 225.095,105.545 C225.665003,104.854997 226.389996,104.315002 227.27,103.925 C228.150004,103.534998 229.134995,103.270001 230.225,103.13 C231.315005,102.989999 232.379995,102.92 233.42,102.92 L233.42,102.86 Z M252.44,112.88 L252.44,104.6 C252.44,103.799996 252.340001,103.220002 252.14,102.86 C251.939999,102.499998 251.610002,102.32 251.15,102.32 C250.809998,102.32 250.485002,102.479998 250.175,102.8 C249.864998,103.120002 249.71,103.689996 249.71,104.51 L249.71,112.88 L242.78,112.88 L242.78,97.1 L249.53,97.1 L249.53,98.84 L249.59,98.84 C249.790001,98.5799987 250.034999,98.3250013 250.325,98.075 C250.615001,97.8249988 250.944998,97.5950011 251.315,97.385 C251.685002,97.174999 252.099998,97.0050007 252.56,96.875 C253.020002,96.7449994 253.519997,96.68 254.06,96.68 C255.100005,96.68 255.999996,96.8649982 256.76,97.235 C257.520004,97.6050019 258.119998,98.1799961 258.56,98.96 C259.080003,98.3199968 259.719996,97.7800022 260.48,97.34 C261.240004,96.8999978 262.199994,96.68 263.36,96.68 C264.480006,96.68 265.404996,96.8999978 266.135,97.34 C266.865004,97.7800022 267.444998,98.3299967 267.875,98.99 C268.305002,99.6500033 268.604999,100.364996 268.775,101.135 C268.945001,101.905004 269.03,102.619997 269.03,103.28 L269.03,112.88 L262.1,112.88 L262.1,104.48 C262.1,103.619996 261.995001,103.045001 261.785,102.755 C261.574999,102.464999 261.250002,102.32 260.81,102.32 C260.409998,102.32 260.070001,102.504998 259.79,102.875 C259.509999,103.245002 259.37,103.789996 259.37,104.51 L259.37,112.88 L252.44,112.88 Z M282.56,102.89 C282.56,102.329997 282.355002,101.870002 281.945,101.51 C281.534998,101.149998 280.980003,100.97 280.28,100.97 C279.519996,100.97 278.930002,101.179998 278.51,101.6 C278.089998,102.020002 277.85,102.449998 277.79,102.89 L282.56,102.89 Z M288.53,105.14 C288.53,105.400001 288.525,105.664999 288.515,105.935 C288.505,106.205001 288.49,106.429999 288.47,106.61 L277.85,106.61 C277.87,106.890001 277.964999,107.139999 278.135,107.36 C278.305001,107.580001 278.514999,107.769999 278.765,107.93 C279.015001,108.090001 279.294998,108.21 279.605,108.29 C279.915002,108.37 280.229998,108.41 280.55,108.41 C281.190003,108.41 281.724998,108.295001 282.155,108.065 C282.585002,107.834999 282.909999,107.580001 283.13,107.3 L288.05,109.79 C287.349996,110.930006 286.335007,111.829997 285.005,112.49 C283.674993,113.150003 282.130009,113.48 280.37,113.48 C279.229994,113.48 278.120005,113.300002 277.04,112.94 C275.959995,112.579998 275.005004,112.045004 274.175,111.335 C273.344996,110.624996 272.680003,109.740005 272.18,108.68 C271.679998,107.619995 271.43,106.390007 271.43,104.99 C271.43,103.689994 271.659998,102.515005 272.12,101.465 C272.580002,100.414995 273.204996,99.5250037 273.995,98.795 C274.785004,98.0649964 275.714995,97.500002 276.785,97.1 C277.855005,96.699998 278.999994,96.5 280.22,96.5 C281.460006,96.5 282.589995,96.7149979 283.61,97.145 C284.630005,97.5750022 285.504996,98.1749961 286.235,98.945 C286.965004,99.7150039 287.529998,100.629995 287.93,101.69 C288.330002,102.750005 288.53,103.899994 288.53,105.14 Z M290.96,97.1 L297.62,97.1 L297.62,98.9 L297.68,98.9 C298.020002,98.2599968 298.524997,97.7300021 299.195,97.31 C299.865003,96.8899979 300.649996,96.68 301.55,96.68 C302.090003,96.68 302.529998,96.7299995 302.87,96.83 L302.33,102.71 C302.109999,102.65 301.865001,102.605 301.595,102.575 C301.324999,102.545 301.080001,102.53 300.86,102.53 C299.959995,102.53 299.240003,102.789997 298.7,103.31 C298.159997,103.830003 297.89,104.469996 297.89,105.23 L297.89,112.88 L290.96,112.88 L290.96,97.1 Z M311.54,106.91 L319.49,97.55 L311.87,97.55 L311.87,91.64 L328.82,91.64 L328.82,96.8 L320.36,106.79 L329.06,106.79 L329.06,112.88 L311.54,112.88 L311.54,106.91 Z M332,97.1 L338.93,97.1 L338.93,112.88 L332,112.88 L332,97.1 Z M331.88,92.54 C331.88,92.0599976 331.974999,91.6050022 332.165,91.175 C332.355001,90.7449979 332.614998,90.3700016 332.945,90.05 C333.275002,89.7299984 333.659998,89.475001 334.1,89.285 C334.540002,89.0949991 335.009998,89 335.51,89 C335.990002,89 336.439998,89.0949991 336.86,89.285 C337.280002,89.475001 337.654998,89.7299984 337.985,90.05 C338.315002,90.3700016 338.574999,90.7449979 338.765,91.175 C338.955001,91.6050022 339.05,92.0599976 339.05,92.54 C339.05,93.0400025 338.955001,93.5049979 338.765,93.935 C338.574999,94.3650022 338.315002,94.7349985 337.985,95.045 C337.654998,95.3550015 337.280002,95.5999991 336.86,95.78 C336.439998,95.9600009 335.990002,96.05 335.51,96.05 C335.009998,96.05 334.540002,95.9600009 334.1,95.78 C333.659998,95.5999991 333.275002,95.3550015 332.945,95.045 C332.614998,94.7349985 332.355001,94.3650022 332.165,93.935 C331.974999,93.5049979 331.88,93.0400025 331.88,92.54 Z M352.64,102.89 C352.64,102.329997 352.435002,101.870002 352.025,101.51 C351.614998,101.149998 351.060003,100.97 350.36,100.97 C349.599996,100.97 349.010002,101.179998 348.59,101.6 C348.169998,102.020002 347.93,102.449998 347.87,102.89 L352.64,102.89 Z M358.61,105.14 C358.61,105.400001 358.605,105.664999 358.595,105.935 C358.585,106.205001 358.57,106.429999 358.55,106.61 L347.93,106.61 C347.95,106.890001 348.044999,107.139999 348.215,107.36 C348.385001,107.580001 348.594999,107.769999 348.845,107.93 C349.095001,108.090001 349.374998,108.21 349.685,108.29 C349.995002,108.37 350.309998,108.41 350.63,108.41 C351.270003,108.41 351.804998,108.295001 352.235,108.065 C352.665002,107.834999 352.989999,107.580001 353.21,107.3 L358.13,109.79 C357.429997,110.930006 356.415007,111.829997 355.085,112.49 C353.754993,113.150003 352.210009,113.48 350.45,113.48 C349.309994,113.48 348.200005,113.300002 347.12,112.94 C346.039995,112.579998 345.085004,112.045004 344.255,111.335 C343.424996,110.624996 342.760002,109.740005 342.26,108.68 C341.759998,107.619995 341.51,106.390007 341.51,104.99 C341.51,103.689994 341.739998,102.515005 342.2,101.465 C342.660002,100.414995 343.284996,99.5250037 344.075,98.795 C344.865004,98.0649964 345.794995,97.500002 346.865,97.1 C347.935005,96.699998 349.079994,96.5 350.3,96.5 C351.540006,96.5 352.669995,96.7149979 353.69,97.145 C354.710005,97.5750022 355.584996,98.1749961 356.315,98.945 C357.045004,99.7150039 357.609998,100.629995 358.01,101.69 C358.410002,102.750005 358.61,103.899994 358.61,105.14 Z M361.04,90.2 L368.12,90.2 L368.12,112.88 L361.04,112.88 L361.04,90.2 Z M381.8,102.89 C381.8,102.329997 381.595002,101.870002 381.185,101.51 C380.774998,101.149998 380.220003,100.97 379.52,100.97 C378.759996,100.97 378.170002,101.179998 377.75,101.6 C377.329998,102.020002 377.09,102.449998 377.03,102.89 L381.8,102.89 Z M387.77,105.14 C387.77,105.400001 387.765,105.664999 387.755,105.935 C387.745,106.205001 387.73,106.429999 387.71,106.61 L377.09,106.61 C377.11,106.890001 377.204999,107.139999 377.375,107.36 C377.545001,107.580001 377.754999,107.769999 378.005,107.93 C378.255001,108.090001 378.534998,108.21 378.845,108.29 C379.155002,108.37 379.469998,108.41 379.79,108.41 C380.430003,108.41 380.964998,108.295001 381.395,108.065 C381.825002,107.834999 382.149999,107.580001 382.37,107.3 L387.29,109.79 C386.589996,110.930006 385.575007,111.829997 384.245,112.49 C382.914993,113.150003 381.370009,113.48 379.61,113.48 C378.469994,113.48 377.360005,113.300002 376.28,112.94 C375.199995,112.579998 374.245004,112.045004 373.415,111.335 C372.584996,110.624996 371.920003,109.740005 371.42,108.68 C370.919997,107.619995 370.67,106.390007 370.67,104.99 C370.67,103.689994 370.899998,102.515005 371.36,101.465 C371.820002,100.414995 372.444996,99.5250037 373.235,98.795 C374.025004,98.0649964 374.954995,97.500002 376.025,97.1 C377.095005,96.699998 378.239994,96.5 379.46,96.5 C380.700006,96.5 381.829995,96.7149979 382.85,97.145 C383.870005,97.5750022 384.744996,98.1749961 385.475,98.945 C386.205004,99.7150039 386.769998,100.629995 387.17,101.69 C387.570002,102.750005 387.77,103.899994 387.77,105.14 Z M390.23,97.1 L397.16,97.1 L397.16,112.88 L390.23,112.88 L390.23,97.1 Z M390.11,92.54 C390.11,92.0599976 390.204999,91.6050022 390.395,91.175 C390.585001,90.7449979 390.844998,90.3700016 391.175,90.05 C391.505002,89.7299984 391.889998,89.475001 392.33,89.285 C392.770002,89.0949991 393.239997,89 393.74,89 C394.220002,89 394.669998,89.0949991 395.09,89.285 C395.510002,89.475001 395.884998,89.7299984 396.215,90.05 C396.545002,90.3700016 396.804999,90.7449979 396.995,91.175 C397.185001,91.6050022 397.28,92.0599976 397.28,92.54 C397.28,93.0400025 397.185001,93.5049979 396.995,93.935 C396.804999,94.3650022 396.545002,94.7349985 396.215,95.045 C395.884998,95.3550015 395.510002,95.5999991 395.09,95.78 C394.669998,95.9600009 394.220002,96.05 393.74,96.05 C393.239997,96.05 392.770002,95.9600009 392.33,95.78 C391.889998,95.5999991 391.505002,95.3550015 391.175,95.045 C390.844998,94.7349985 390.585001,94.3650022 390.395,93.935 C390.204999,93.5049979 390.11,93.0400025 390.11,92.54 Z M400.37,97.1 L407.12,97.1 L407.12,98.84 L407.18,98.84 C407.580002,98.2599971 408.174996,97.7550022 408.965,97.325 C409.755004,96.8949978 410.659995,96.68 411.68,96.68 C412.780006,96.68 413.694996,96.879998 414.425,97.28 C415.155004,97.680002 415.734998,98.1949969 416.165,98.825 C416.595002,99.4550032 416.894999,100.159996 417.065,100.94 C417.235001,101.720004 417.32,102.499996 417.32,103.28 L417.32,112.88 L410.36,112.88 L410.36,104.48 C410.36,103.679996 410.235001,103.120002 409.985,102.8 C409.734999,102.479998 409.360002,102.32 408.86,102.32 C408.399998,102.32 408.025001,102.504998 407.735,102.875 C407.444999,103.245002 407.3,103.779997 407.3,104.48 L407.3,112.88 L400.37,112.88 L400.37,97.1 Z M420.35,90.2 L427.43,90.2 L427.43,112.88 L420.35,112.88 L420.35,90.2 Z M439.04,106.34 C438.019995,106.34 437.200003,106.449999 436.58,106.67 C435.959997,106.890001 435.65,107.299997 435.65,107.9 C435.65,108.120001 435.7,108.304999 435.8,108.455 C435.900001,108.605001 436.029999,108.73 436.19,108.83 C436.350001,108.930001 436.524999,109.005 436.715,109.055 C436.905001,109.105 437.079999,109.13 437.24,109.13 C437.900003,109.13 438.429998,108.920002 438.83,108.5 C439.230002,108.079998 439.43,107.540003 439.43,106.88 L439.43,106.34 L439.04,106.34 Z M438.98,102.86 C438.98,102.379998 438.815002,102.025001 438.485,101.795 C438.154998,101.564999 437.720003,101.45 437.18,101.45 C436.539997,101.45 435.935003,101.584999 435.365,101.855 C434.794997,102.125001 434.290002,102.439998 433.85,102.8 L430.4,99.38 C431.360005,98.4599954 432.499993,97.7500025 433.82,97.25 C435.140007,96.7499975 436.499993,96.5 437.9,96.5 C439.400007,96.5 440.639995,96.7099979 441.62,97.13 C442.600005,97.5500021 443.374997,98.1299963 443.945,98.87 C444.515003,99.6100037 444.914999,100.469995 445.145,101.45 C445.375001,102.430005 445.49,103.469995 445.49,104.57 L445.49,112.88 L439.22,112.88 L439.22,111.62 L439.16,111.62 C438.759998,112.220003 438.190004,112.649999 437.45,112.91 C436.709996,113.170001 435.990004,113.3 435.29,113.3 C434.669997,113.3 434.035003,113.210001 433.385,113.03 C432.734997,112.849999 432.145003,112.560002 431.615,112.16 C431.084997,111.759998 430.650002,111.240003 430.31,110.6 C429.969998,109.959997 429.8,109.170005 429.8,108.23 C429.8,107.129995 430.084997,106.235003 430.655,105.545 C431.225003,104.854997 431.949996,104.315002 432.83,103.925 C433.710004,103.534998 434.694995,103.270001 435.785,103.13 C436.875005,102.989999 437.939995,102.92 438.98,102.92 L438.98,102.86 Z M465.05,112.88 L458.3,112.88 L458.3,111.14 L458.24,111.14 C457.839998,111.720003 457.245004,112.224998 456.455,112.655 C455.664996,113.085002 454.760005,113.3 453.74,113.3 C452.619994,113.3 451.700004,113.105002 450.98,112.715 C450.259996,112.324998 449.685002,111.815003 449.255,111.185 C448.824998,110.554997 448.525001,109.845004 448.355,109.055 C448.184999,108.264996 448.1,107.480004 448.1,106.7 L448.1,97.1 L455.06,97.1 L455.06,105.44 C455.06,106.240004 455.184999,106.799998 455.435,107.12 C455.685001,107.440002 456.059998,107.6 456.56,107.6 C457.020002,107.6 457.394999,107.415002 457.685,107.045 C457.975001,106.674998 458.12,106.140004 458.12,105.44 L458.12,97.1 L465.05,97.1 L465.05,112.88 Z M479.42,94.94 C479.239999,94.8599996 479.030001,94.7950003 478.79,94.745 C478.549999,94.6949998 478.310001,94.67 478.07,94.67 C477.389997,94.67 476.915001,94.8799979 476.645,95.3 C476.374999,95.7200021 476.24,96.2499968 476.24,96.89 L476.24,97.1 L479.57,97.1 L479.57,102.05 L476.24,102.05 L476.24,112.88 L469.34,112.88 L469.34,102.05 L466.64,102.05 L466.64,97.1 L469.34,97.1 L469.34,96.74 C469.34,95.7599951 469.454999,94.8200045 469.685,93.92 C469.915001,93.0199955 470.309997,92.2250035 470.87,91.535 C471.430003,90.8449966 472.184995,90.300002 473.135,89.9 C474.085005,89.499998 475.279993,89.3 476.72,89.3 C477.180002,89.3 477.714997,89.3349997 478.325,89.405 C478.935003,89.4750004 479.449998,89.5899992 479.87,89.75 L479.42,94.94 Z M89.6,138.1 L96.53,138.1 L96.53,153.88 L89.6,153.88 L89.6,138.1 Z M89.48,133.54 C89.48,133.059998 89.574999,132.605002 89.765,132.175 C89.9550009,131.744998 90.2149983,131.370002 90.545,131.05 C90.8750017,130.729998 91.2599978,130.475001 91.7,130.285 C92.1400022,130.094999 92.6099975,130 93.11,130 C93.5900024,130 94.0399979,130.094999 94.46,130.285 C94.8800021,130.475001 95.2549984,130.729998 95.585,131.05 C95.9150017,131.370002 96.174999,131.744998 96.365,132.175 C96.555001,132.605002 96.65,133.059998 96.65,133.54 C96.65,134.040003 96.555001,134.504998 96.365,134.935 C96.174999,135.365002 95.9150017,135.734998 95.585,136.045 C95.2549984,136.355002 94.8800021,136.599999 94.46,136.78 C94.0399979,136.960001 93.5900024,137.05 93.11,137.05 C92.6099975,137.05 92.1400022,136.960001 91.7,136.78 C91.2599978,136.599999 90.8750017,136.355002 90.545,136.045 C90.2149983,135.734998 89.9550009,135.365002 89.765,134.935 C89.574999,134.504998 89.48,134.040003 89.48,133.54 Z M99.74,138.1 L106.49,138.1 L106.49,139.84 L106.55,139.84 C106.950002,139.259997 107.544996,138.755002 108.335,138.325 C109.125004,137.894998 110.029995,137.68 111.05,137.68 C112.150006,137.68 113.064996,137.879998 113.795,138.28 C114.525004,138.680002 115.104998,139.194997 115.535,139.825 C115.965002,140.455003 116.264999,141.159996 116.435,141.94 C116.605001,142.720004 116.69,143.499996 116.69,144.28 L116.69,153.88 L109.73,153.88 L109.73,145.48 C109.73,144.679996 109.605001,144.120002 109.355,143.8 C109.104999,143.479998 108.730003,143.32 108.23,143.32 C107.769998,143.32 107.395001,143.504998 107.105,143.875 C106.814999,144.245002 106.67,144.779997 106.67,145.48 L106.67,153.88 L99.74,153.88 L99.74,138.1 Z M132.65,148.87 C132.65,149.930005 132.425002,150.819996 131.975,151.54 C131.524998,152.260004 130.955003,152.834998 130.265,153.265 C129.574997,153.695002 128.820004,154.004999 128,154.195 C127.179996,154.385001 126.400004,154.48 125.66,154.48 C124.299993,154.48 122.965007,154.285002 121.655,153.895 C120.344993,153.504998 119.210005,152.950004 118.25,152.23 L121.64,148.3 C122.120002,148.740002 122.684997,149.094999 123.335,149.365 C123.985003,149.635001 124.609997,149.77 125.21,149.77 C125.450001,149.77 125.674999,149.725 125.885,149.635 C126.095001,149.545 126.2,149.380001 126.2,149.14 C126.2,148.879999 126.015002,148.675001 125.645,148.525 C125.274998,148.374999 124.630005,148.190001 123.71,147.97 C123.209997,147.849999 122.700003,147.675001 122.18,147.445 C121.659997,147.214999 121.185002,146.910002 120.755,146.53 C120.324998,146.149998 119.970001,145.685003 119.69,145.135 C119.409999,144.584997 119.27,143.930004 119.27,143.17 C119.27,142.149995 119.494998,141.280004 119.945,140.56 C120.395002,139.839996 120.964997,139.255002 121.655,138.805 C122.345003,138.354998 123.094996,138.025001 123.905,137.815 C124.715004,137.604999 125.479996,137.5 126.2,137.5 C127.420006,137.5 128.629994,137.679998 129.83,138.04 C131.030006,138.400002 132.109995,138.899997 133.07,139.54 L129.83,143.41 C129.329997,143.089998 128.820003,142.840001 128.3,142.66 C127.779997,142.479999 127.270003,142.39 126.77,142.39 C126.429998,142.39 126.150001,142.435 125.93,142.525 C125.709999,142.615 125.6,142.789999 125.6,143.05 C125.6,143.250001 125.724999,143.404999 125.975,143.515 C126.225001,143.625001 126.799996,143.769999 127.7,143.95 C128.320003,144.070001 128.924997,144.254999 129.515,144.505 C130.105003,144.755001 130.634998,145.074998 131.105,145.465 C131.575002,145.855002 131.949999,146.329997 132.23,146.89 C132.510001,147.450003 132.65,148.109996 132.65,148.87 Z M140,132.64 L148.07,132.64 L151.58,145.78 L151.7,145.78 L155.06,132.64 L163.13,132.64 L155.45,153.88 L147.53,153.88 L140,132.64 Z M173.48,143.89 C173.48,143.329997 173.275002,142.870002 172.865,142.51 C172.454998,142.149998 171.900004,141.97 171.2,141.97 C170.439996,141.97 169.850002,142.179998 169.43,142.6 C169.009998,143.020002 168.77,143.449998 168.71,143.89 L173.48,143.89 Z M179.45,146.14 C179.45,146.400001 179.445,146.664999 179.435,146.935 C179.425,147.205001 179.41,147.429999 179.39,147.61 L168.77,147.61 C168.79,147.890001 168.884999,148.139999 169.055,148.36 C169.225001,148.580001 169.434999,148.769999 169.685,148.93 C169.935001,149.090001 170.214998,149.21 170.525,149.29 C170.835002,149.37 171.149998,149.41 171.47,149.41 C172.110003,149.41 172.644998,149.295001 173.075,149.065 C173.505002,148.834999 173.829999,148.580001 174.05,148.3 L178.97,150.79 C178.269997,151.930006 177.255007,152.829997 175.925,153.49 C174.594993,154.150003 173.050009,154.48 171.29,154.48 C170.149994,154.48 169.040005,154.300002 167.96,153.94 C166.879995,153.579998 165.925004,153.045004 165.095,152.335 C164.264996,151.624996 163.600002,150.740005 163.1,149.68 C162.599997,148.619995 162.35,147.390007 162.35,145.99 C162.35,144.689994 162.579998,143.515005 163.04,142.465 C163.500002,141.414995 164.124996,140.525004 164.915,139.795 C165.705004,139.064996 166.634995,138.500002 167.705,138.1 C168.775005,137.699998 169.919994,137.5 171.14,137.5 C172.380006,137.5 173.509995,137.714998 174.53,138.145 C175.550005,138.575002 176.424996,139.174996 177.155,139.945 C177.885004,140.715004 178.449998,141.629995 178.85,142.69 C179.250002,143.750005 179.45,144.899994 179.45,146.14 Z M181.88,138.1 L188.54,138.1 L188.54,139.9 L188.6,139.9 C188.940002,139.259997 189.444997,138.730002 190.115,138.31 C190.785003,137.889998 191.569996,137.68 192.47,137.68 C193.010003,137.68 193.449998,137.73 193.79,137.83 L193.25,143.71 C193.029999,143.65 192.785001,143.605 192.515,143.575 C192.244999,143.545 192.000001,143.53 191.78,143.53 C190.879996,143.53 190.160003,143.789997 189.62,144.31 C189.079997,144.830003 188.81,145.469996 188.81,146.23 L188.81,153.88 L181.88,153.88 L181.88,138.1 Z M202.16,147.01 L202.16,153.88 L195.23,153.88 L195.23,131.2 L202.16,131.2 L202.16,144.13 L202.25,144.13 L206,138.1 L214.04,138.1 L208.94,145.21 L214.01,153.88 L205.94,153.88 L202.25,147.01 L202.16,147.01 Z M225.29,143.89 C225.29,143.329997 225.085002,142.870002 224.675,142.51 C224.264998,142.149998 223.710003,141.97 223.01,141.97 C222.249996,141.97 221.660002,142.179998 221.24,142.6 C220.819998,143.020002 220.58,143.449998 220.52,143.89 L225.29,143.89 Z M231.26,146.14 C231.26,146.400001 231.255,146.664999 231.245,146.935 C231.235,147.205001 231.22,147.429999 231.2,147.61 L220.58,147.61 C220.6,147.890001 220.694999,148.139999 220.865,148.36 C221.035001,148.580001 221.244999,148.769999 221.495,148.93 C221.745001,149.090001 222.024998,149.21 222.335,149.29 C222.645002,149.37 222.959998,149.41 223.28,149.41 C223.920003,149.41 224.454998,149.295001 224.885,149.065 C225.315002,148.834999 225.639999,148.580001 225.86,148.3 L230.78,150.79 C230.079996,151.930006 229.065007,152.829997 227.735,153.49 C226.404993,154.150003 224.860009,154.48 223.1,154.48 C221.959994,154.48 220.850005,154.300002 219.77,153.94 C218.689995,153.579998 217.735004,153.045004 216.905,152.335 C216.074996,151.624996 215.410003,150.740005 214.91,149.68 C214.409998,148.619995 214.16,147.390007 214.16,145.99 C214.16,144.689994 214.389998,143.515005 214.85,142.465 C215.310002,141.414995 215.934996,140.525004 216.725,139.795 C217.515004,139.064996 218.444995,138.500002 219.515,138.1 C220.585005,137.699998 221.729994,137.5 222.95,137.5 C224.190006,137.5 225.319995,137.714998 226.34,138.145 C227.360005,138.575002 228.234996,139.174996 228.965,139.945 C229.695004,140.715004 230.259998,141.629995 230.66,142.69 C231.060002,143.750005 231.26,144.899994 231.26,146.14 Z M245,137.68 C246.100006,137.68 247.014996,137.879998 247.745,138.28 C248.475004,138.680002 249.054998,139.194997 249.485,139.825 C249.915002,140.455003 250.214999,141.159996 250.385,141.94 C250.555001,142.720004 250.64,143.499996 250.64,144.28 L250.64,153.88 L243.68,153.88 L243.68,145.48 C243.68,144.679996 243.555001,144.120002 243.305,143.8 C243.054999,143.479998 242.680003,143.32 242.18,143.32 C241.779998,143.32 241.420002,143.494998 241.1,143.845 C240.779998,144.195002 240.62,144.749996 240.62,145.51 L240.62,153.88 L233.69,153.88 L233.69,131.2 L240.62,131.2 L240.62,139.84 L240.68,139.84 C241.080002,139.259997 241.649996,138.755002 242.39,138.325 C243.130004,137.894998 243.999995,137.68 245,137.68 Z M253.67,138.1 L260.33,138.1 L260.33,139.9 L260.39,139.9 C260.730002,139.259997 261.234997,138.730002 261.905,138.31 C262.575003,137.889998 263.359995,137.68 264.26,137.68 C264.800003,137.68 265.239998,137.73 265.58,137.83 L265.04,143.71 C264.819999,143.65 264.575001,143.605 264.305,143.575 C264.034999,143.545 263.790001,143.53 263.57,143.53 C262.669996,143.53 261.950003,143.789997 261.41,144.31 C260.869997,144.830003 260.6,145.469996 260.6,146.23 L260.6,153.88 L253.67,153.88 L253.67,138.1 Z M279.95,148.87 C279.95,149.930005 279.725002,150.819996 279.275,151.54 C278.824998,152.260004 278.255003,152.834998 277.565,153.265 C276.874997,153.695002 276.120004,154.004999 275.3,154.195 C274.479996,154.385001 273.700004,154.48 272.96,154.48 C271.599993,154.48 270.265007,154.285002 268.955,153.895 C267.644993,153.504998 266.510005,152.950004 265.55,152.23 L268.94,148.3 C269.420002,148.740002 269.984997,149.094999 270.635,149.365 C271.285003,149.635001 271.909997,149.77 272.51,149.77 C272.750001,149.77 272.974999,149.725 273.185,149.635 C273.395001,149.545 273.5,149.380001 273.5,149.14 C273.5,148.879999 273.315002,148.675001 272.945,148.525 C272.574998,148.374999 271.930005,148.190001 271.01,147.97 C270.509998,147.849999 270.000003,147.675001 269.48,147.445 C268.959997,147.214999 268.485002,146.910002 268.055,146.53 C267.624998,146.149998 267.270001,145.685003 266.99,145.135 C266.709999,144.584997 266.57,143.930004 266.57,143.17 C266.57,142.149995 266.794998,141.280004 267.245,140.56 C267.695002,139.839996 268.264997,139.255002 268.955,138.805 C269.645003,138.354998 270.394996,138.025001 271.205,137.815 C272.015004,137.604999 272.779996,137.5 273.5,137.5 C274.720006,137.5 275.929994,137.679998 277.13,138.04 C278.330006,138.400002 279.409995,138.899997 280.37,139.54 L277.13,143.41 C276.629997,143.089998 276.120003,142.840001 275.6,142.66 C275.079997,142.479999 274.570002,142.39 274.07,142.39 C273.729998,142.39 273.450001,142.435 273.23,142.525 C273.009999,142.615 272.9,142.789999 272.9,143.05 C272.9,143.250001 273.024999,143.404999 273.275,143.515 C273.525001,143.625001 274.099995,143.769999 275,143.95 C275.620003,144.070001 276.224997,144.254999 276.815,144.505 C277.405003,144.755001 277.934998,145.074998 278.405,145.465 C278.875002,145.855002 279.249999,146.329997 279.53,146.89 C279.810001,147.450003 279.95,148.109996 279.95,148.87 Z M293.72,137.68 C294.820005,137.68 295.734996,137.879998 296.465,138.28 C297.195004,138.680002 297.774998,139.194997 298.205,139.825 C298.635002,140.455003 298.934999,141.159996 299.105,141.94 C299.275001,142.720004 299.36,143.499996 299.36,144.28 L299.36,153.88 L292.4,153.88 L292.4,145.48 C292.4,144.679996 292.275001,144.120002 292.025,143.8 C291.774999,143.479998 291.400003,143.32 290.9,143.32 C290.499998,143.32 290.140002,143.494998 289.82,143.845 C289.499998,144.195002 289.34,144.749996 289.34,145.51 L289.34,153.88 L282.41,153.88 L282.41,131.2 L289.34,131.2 L289.34,139.84 L289.4,139.84 C289.800002,139.259997 290.369996,138.755002 291.11,138.325 C291.850004,137.894998 292.719995,137.68 293.72,137.68 Z M310.82,147.34 C309.799995,147.34 308.980003,147.449999 308.36,147.67 C307.739997,147.890001 307.43,148.299997 307.43,148.9 C307.43,149.120001 307.479999,149.304999 307.58,149.455 C307.680001,149.605001 307.809999,149.73 307.97,149.83 C308.130001,149.930001 308.304999,150.005 308.495,150.055 C308.685001,150.105 308.859999,150.13 309.02,150.13 C309.680003,150.13 310.209998,149.920002 310.61,149.5 C311.010002,149.079998 311.21,148.540003 311.21,147.88 L311.21,147.34 L310.82,147.34 Z M310.76,143.86 C310.76,143.379998 310.595002,143.025001 310.265,142.795 C309.934998,142.564999 309.500003,142.45 308.96,142.45 C308.319997,142.45 307.715003,142.584999 307.145,142.855 C306.574997,143.125001 306.070002,143.439998 305.63,143.8 L302.18,140.38 C303.140005,139.459995 304.279993,138.750003 305.6,138.25 C306.920007,137.749998 308.279993,137.5 309.68,137.5 C311.180007,137.5 312.419995,137.709998 313.4,138.13 C314.380005,138.550002 315.154997,139.129996 315.725,139.87 C316.295003,140.610004 316.694999,141.469995 316.925,142.45 C317.155001,143.430005 317.27,144.469995 317.27,145.57 L317.27,153.88 L311,153.88 L311,152.62 L310.94,152.62 C310.539998,153.220003 309.970004,153.649999 309.23,153.91 C308.489996,154.170001 307.770004,154.3 307.07,154.3 C306.449997,154.3 305.815003,154.210001 305.165,154.03 C304.514997,153.849999 303.925003,153.560002 303.395,153.16 C302.864997,152.759998 302.430002,152.240003 302.09,151.6 C301.749998,150.959997 301.58,150.170005 301.58,149.23 C301.58,148.129995 301.864997,147.235003 302.435,146.545 C303.005003,145.854997 303.729996,145.315002 304.61,144.925 C305.490004,144.534998 306.474995,144.270001 307.565,144.13 C308.655005,143.989999 309.719995,143.92 310.76,143.92 L310.76,143.86 Z M336.83,153.88 L330.08,153.88 L330.08,152.14 L330.02,152.14 C329.619998,152.720003 329.025004,153.224998 328.235,153.655 C327.444996,154.085002 326.540005,154.3 325.52,154.3 C324.399994,154.3 323.480004,154.105002 322.76,153.715 C322.039996,153.324998 321.465002,152.815003 321.035,152.185 C320.604998,151.554997 320.305001,150.845004 320.135,150.055 C319.964999,149.264996 319.88,148.480004 319.88,147.7 L319.88,138.1 L326.84,138.1 L326.84,146.44 C326.84,147.240004 326.964999,147.799998 327.215,148.12 C327.465001,148.440002 327.839997,148.6 328.34,148.6 C328.800002,148.6 329.174999,148.415002 329.465,148.045 C329.755001,147.674998 329.9,147.140004 329.9,146.44 L329.9,138.1 L336.83,138.1 L336.83,153.88 Z M352.94,148.87 C352.94,149.930005 352.715002,150.819996 352.265,151.54 C351.814998,152.260004 351.245003,152.834998 350.555,153.265 C349.864997,153.695002 349.110004,154.004999 348.29,154.195 C347.469996,154.385001 346.690004,154.48 345.95,154.48 C344.589993,154.48 343.255007,154.285002 341.945,153.895 C340.634993,153.504998 339.500005,152.950004 338.54,152.23 L341.93,148.3 C342.410002,148.740002 342.974997,149.094999 343.625,149.365 C344.275003,149.635001 344.899997,149.77 345.5,149.77 C345.740001,149.77 345.964999,149.725 346.175,149.635 C346.385001,149.545 346.49,149.380001 346.49,149.14 C346.49,148.879999 346.305002,148.675001 345.935,148.525 C345.564998,148.374999 344.920005,148.190001 344,147.97 C343.499997,147.849999 342.990003,147.675001 342.47,147.445 C341.949997,147.214999 341.475002,146.910002 341.045,146.53 C340.614998,146.149998 340.260001,145.685003 339.98,145.135 C339.699999,144.584997 339.56,143.930004 339.56,143.17 C339.56,142.149995 339.784998,141.280004 340.235,140.56 C340.685002,139.839996 341.254997,139.255002 341.945,138.805 C342.635003,138.354998 343.384996,138.025001 344.195,137.815 C345.005004,137.604999 345.769996,137.5 346.49,137.5 C347.710006,137.5 348.919994,137.679998 350.12,138.04 C351.320006,138.400002 352.399995,138.899997 353.36,139.54 L350.12,143.41 C349.619997,143.089998 349.110003,142.840001 348.59,142.66 C348.069997,142.479999 347.560002,142.39 347.06,142.39 C346.719998,142.39 346.440001,142.435 346.22,142.525 C345.999999,142.615 345.89,142.789999 345.89,143.05 C345.89,143.250001 346.014999,143.404999 346.265,143.515 C346.515001,143.625001 347.089995,143.769999 347.99,143.95 C348.610003,144.070001 349.214997,144.254999 349.805,144.505 C350.395003,144.755001 350.924998,145.074998 351.395,145.465 C351.865002,145.855002 352.239999,146.329997 352.52,146.89 C352.800001,147.450003 352.94,148.109996 352.94,148.87 Z M363.29,132.64 L370.49,132.64 L370.49,147.76 L377.54,147.76 L377.54,153.88 L363.29,153.88 L363.29,132.64 Z M395.72,153.88 L388.97,153.88 L388.97,152.14 L388.91,152.14 C388.509998,152.720003 387.915004,153.224998 387.125,153.655 C386.334996,154.085002 385.430005,154.3 384.41,154.3 C383.289994,154.3 382.370004,154.105002 381.65,153.715 C380.929996,153.324998 380.355002,152.815003 379.925,152.185 C379.494998,151.554997 379.195001,150.845004 379.025,150.055 C378.854999,149.264996 378.77,148.480004 378.77,147.7 L378.77,138.1 L385.73,138.1 L385.73,146.44 C385.73,147.240004 385.854999,147.799998 386.105,148.12 C386.355001,148.440002 386.729997,148.6 387.23,148.6 C387.690002,148.6 388.064999,148.415002 388.355,148.045 C388.645001,147.674998 388.79,147.140004 388.79,146.44 L388.79,138.1 L395.72,138.1 L395.72,153.88 Z M398.3,149.05 L404.21,143.23 L398.45,143.23 L398.45,138.1 L412.82,138.1 L412.82,142.6 L406.43,148.75 L413,148.75 L413,153.88 L398.3,153.88 L398.3,149.05 Z M426.11,143.89 C426.11,143.329997 425.905002,142.870002 425.495,142.51 C425.084998,142.149998 424.530004,141.97 423.83,141.97 C423.069996,141.97 422.480002,142.179998 422.06,142.6 C421.639998,143.020002 421.4,143.449998 421.34,143.89 L426.11,143.89 Z M432.08,146.14 C432.08,146.400001 432.075,146.664999 432.065,146.935 C432.055,147.205001 432.04,147.429999 432.02,147.61 L421.4,147.61 C421.42,147.890001 421.514999,148.139999 421.685,148.36 C421.855001,148.580001 422.064999,148.769999 422.315,148.93 C422.565001,149.090001 422.844998,149.21 423.155,149.29 C423.465002,149.37 423.779998,149.41 424.1,149.41 C424.740003,149.41 425.274998,149.295001 425.705,149.065 C426.135002,148.834999 426.459999,148.580001 426.68,148.3 L431.6,150.79 C430.899996,151.930006 429.885007,152.829997 428.555,153.49 C427.224993,154.150003 425.680009,154.48 423.92,154.48 C422.779994,154.48 421.670005,154.300002 420.59,153.94 C419.509995,153.579998 418.555004,153.045004 417.725,152.335 C416.894996,151.624996 416.230002,150.740005 415.73,149.68 C415.229997,148.619995 414.98,147.390007 414.98,145.99 C414.98,144.689994 415.209998,143.515005 415.67,142.465 C416.130002,141.414995 416.754996,140.525004 417.545,139.795 C418.335004,139.064996 419.264995,138.500002 420.335,138.1 C421.405005,137.699998 422.549994,137.5 423.77,137.5 C425.010006,137.5 426.139995,137.714998 427.16,138.145 C428.180005,138.575002 429.054996,139.174996 429.785,139.945 C430.515004,140.715004 431.079998,141.629995 431.48,142.69 C431.880002,143.750005 432.08,144.899994 432.08,146.14 Z M434.51,138.1 L441.17,138.1 L441.17,139.9 L441.23,139.9 C441.570002,139.259997 442.074997,138.730002 442.745,138.31 C443.415003,137.889998 444.199995,137.68 445.1,137.68 C445.640003,137.68 446.079998,137.73 446.42,137.83 L445.88,143.71 C445.659999,143.65 445.415001,143.605 445.145,143.575 C444.874999,143.545 444.630001,143.53 444.41,143.53 C443.509995,143.53 442.790003,143.789997 442.25,144.31 C441.709997,144.830003 441.44,145.469996 441.44,146.23 L441.44,153.88 L434.51,153.88 L434.51,138.1 Z M447.86,138.1 L454.61,138.1 L454.61,139.84 L454.67,139.84 C455.070002,139.259997 455.664996,138.755002 456.455,138.325 C457.245004,137.894998 458.149995,137.68 459.17,137.68 C460.270006,137.68 461.184996,137.879998 461.915,138.28 C462.645004,138.680002 463.224998,139.194997 463.655,139.825 C464.085002,140.455003 464.384999,141.159996 464.555,141.94 C464.725001,142.720004 464.81,143.499996 464.81,144.28 L464.81,153.88 L457.85,153.88 L457.85,145.48 C457.85,144.679996 457.725001,144.120002 457.475,143.8 C457.224999,143.479998 456.850002,143.32 456.35,143.32 C455.889998,143.32 455.515001,143.504998 455.225,143.875 C454.934999,144.245002 454.79,144.779997 454.79,145.48 L454.79,153.88 L447.86,153.88 L447.86,138.1 Z" id="Gemeinsamer-Zieleinl" fill="#FFFFFF"></path>
        </g>
    </g>
</svg>