<?xml version="1.0" encoding="UTF-8"?>
<svg width="100%" height="100%" preserveAspectRatio="xMinYMin meet" viewBox="0 0 543 177" version="1.1" xmlns="http://www.w3.org/2000/svg" xmlns:xlink="http://www.w3.org/1999/xlink">
    <!-- Generator: Sketch 52.3 (67297) - http://www.bohemiancoding.com/sketch -->
    <title>Artboard Copy 2</title>
    <desc>Created with Sketch.</desc>
    <defs>
        <linearGradient x1="50%" y1="-2.48949813e-15%" x2="50%" y2="100%" id="linearGradient-1">
            <stop stop-color="#F2C314" offset="0%"></stop>
            <stop stop-color="#FC3832" offset="100%"></stop>
        </linearGradient>
    </defs>
    <g id="Artboard-Copy-2" stroke="none" stroke-width="1" fill="none" fill-rule="evenodd">
        <g id="Group-4-Copy">
            <circle id="Oval-Copy-5" fill="url(#linearGradient-1)" fill-rule="nonzero" cx="454.5" cy="88.5" r="88.5"></circle>
            <path d="M222.45,106.04 L222.45,112.88 L215.34,112.88 L215.34,91.64 L224.46,91.64 C225.540005,91.64 226.599995,91.7549988 227.64,91.985 C228.680005,92.2150012 229.609996,92.6049972 230.43,93.155 C231.250004,93.7050028 231.909997,94.4349955 232.41,95.345 C232.910002,96.2550046 233.16,97.3999931 233.16,98.78 C233.16,100.100007 232.915002,101.219995 232.425,102.14 C231.934998,103.060005 231.285004,103.809997 230.475,104.39 C229.664996,104.970003 228.735005,105.389999 227.685,105.65 C226.634995,105.910001 225.560005,106.04 224.46,106.04 L222.45,106.04 Z M222.45,97.19 L222.45,100.61 L223.95,100.61 C224.490003,100.61 224.984998,100.475001 225.435,100.205 C225.885002,99.9349987 226.11,99.4800032 226.11,98.84 C226.11,98.4999983 226.050001,98.2250011 225.93,98.015 C225.809999,97.804999 225.645001,97.6400006 225.435,97.52 C225.224999,97.3999994 224.990001,97.3150003 224.73,97.265 C224.469999,97.2149998 224.210001,97.19 223.95,97.19 L222.45,97.19 Z M234.21,97.1 L240.87,97.1 L240.87,98.9 L240.93,98.9 C241.270002,98.2599968 241.774997,97.7300021 242.445,97.31 C243.115003,96.8899979 243.899995,96.68 244.8,96.68 C245.340003,96.68 245.779998,96.7299995 246.12,96.83 L245.58,102.71 C245.359999,102.65 245.115001,102.605 244.845,102.575 C244.574999,102.545 244.330001,102.53 244.11,102.53 C243.209995,102.53 242.490003,102.789997 241.95,103.31 C241.409997,103.830003 241.14,104.469996 241.14,105.23 L241.14,112.88 L234.21,112.88 L234.21,97.1 Z M264.39,104.93 C264.39,106.290007 264.145002,107.499995 263.655,108.56 C263.164998,109.620005 262.505004,110.514996 261.675,111.245 C260.844996,111.975004 259.885005,112.529998 258.795,112.91 C257.704995,113.290002 256.560006,113.48 255.36,113.48 C254.179994,113.48 253.045005,113.290002 251.955,112.91 C250.864995,112.529998 249.910004,111.975004 249.09,111.245 C248.269996,110.514996 247.615002,109.620005 247.125,108.56 C246.634998,107.499995 246.39,106.290007 246.39,104.93 C246.39,103.589993 246.634998,102.395005 247.125,101.345 C247.615002,100.294995 248.269996,99.4100036 249.09,98.69 C249.910004,97.9699964 250.864995,97.4250019 251.955,97.055 C253.045005,96.6849982 254.179994,96.5 255.36,96.5 C256.560006,96.5 257.704995,96.6849982 258.795,97.055 C259.885005,97.4250019 260.844996,97.9699964 261.675,98.69 C262.505004,99.4100036 263.164998,100.294995 263.655,101.345 C264.145002,102.395005 264.39,103.589993 264.39,104.93 Z M255.36,102.32 C254.599996,102.32 253.985002,102.579997 253.515,103.1 C253.044998,103.620003 252.81,104.229997 252.81,104.93 C252.81,105.670004 253.049998,106.299997 253.53,106.82 C254.010002,107.340003 254.629996,107.6 255.39,107.6 C256.150004,107.6 256.769998,107.340003 257.25,106.82 C257.730002,106.299997 257.97,105.670004 257.97,104.93 C257.97,104.229997 257.725002,103.620003 257.235,103.1 C256.744998,102.579997 256.120004,102.32 255.36,102.32 Z M281.94,106.04 L281.94,112.88 L274.83,112.88 L274.83,91.64 L283.95,91.64 C285.030005,91.64 286.089995,91.7549988 287.13,91.985 C288.170005,92.2150012 289.099996,92.6049972 289.92,93.155 C290.740004,93.7050028 291.399998,94.4349955 291.9,95.345 C292.400003,96.2550046 292.65,97.3999931 292.65,98.78 C292.65,100.100007 292.405002,101.219995 291.915,102.14 C291.424998,103.060005 290.775004,103.809997 289.965,104.39 C289.154996,104.970003 288.225005,105.389999 287.175,105.65 C286.124995,105.910001 285.050006,106.04 283.95,106.04 L281.94,106.04 Z M281.94,97.19 L281.94,100.61 L283.44,100.61 C283.980003,100.61 284.474998,100.475001 284.925,100.205 C285.375002,99.9349987 285.6,99.4800032 285.6,98.84 C285.6,98.4999983 285.540001,98.2250011 285.42,98.015 C285.299999,97.804999 285.135001,97.6400006 284.925,97.52 C284.714999,97.3999994 284.480001,97.3150003 284.22,97.265 C283.959999,97.2149998 283.700001,97.19 283.44,97.19 L281.94,97.19 Z M304.2,102.89 C304.2,102.329997 303.995002,101.870002 303.585,101.51 C303.174998,101.149998 302.620003,100.97 301.92,100.97 C301.159996,100.97 300.570002,101.179998 300.15,101.6 C299.729998,102.020002 299.49,102.449998 299.43,102.89 L304.2,102.89 Z M310.17,105.14 C310.17,105.400001 310.165,105.664999 310.155,105.935 C310.145,106.205001 310.13,106.429999 310.11,106.61 L299.49,106.61 C299.51,106.890001 299.604999,107.139999 299.775,107.36 C299.945001,107.580001 300.154999,107.769999 300.405,107.93 C300.655001,108.090001 300.934998,108.21 301.245,108.29 C301.555002,108.37 301.869998,108.41 302.19,108.41 C302.830003,108.41 303.364998,108.295001 303.795,108.065 C304.225002,107.834999 304.549999,107.580001 304.77,107.3 L309.69,109.79 C308.989996,110.930006 307.975007,111.829997 306.645,112.49 C305.314993,113.150003 303.770009,113.48 302.01,113.48 C300.869994,113.48 299.760005,113.300002 298.68,112.94 C297.599995,112.579998 296.645004,112.045004 295.815,111.335 C294.984996,110.624996 294.320002,109.740005 293.82,108.68 C293.319997,107.619995 293.07,106.390007 293.07,104.99 C293.07,103.689994 293.299998,102.515005 293.76,101.465 C294.220002,100.414995 294.844996,99.5250037 295.635,98.795 C296.425004,98.0649964 297.354995,97.500002 298.425,97.1 C299.495005,96.699998 300.639994,96.5 301.86,96.5 C303.100006,96.5 304.229995,96.7149979 305.25,97.145 C306.270005,97.5750022 307.144996,98.1749961 307.875,98.945 C308.605004,99.7150039 309.169998,100.629995 309.57,101.69 C309.970002,102.750005 310.17,103.899994 310.17,105.14 Z M312.6,97.1 L319.26,97.1 L319.26,98.9 L319.32,98.9 C319.660002,98.2599968 320.164997,97.7300021 320.835,97.31 C321.505003,96.8899979 322.289995,96.68 323.19,96.68 C323.730003,96.68 324.169998,96.7299995 324.51,96.83 L323.97,102.71 C323.749999,102.65 323.505001,102.605 323.235,102.575 C322.964999,102.545 322.720001,102.53 322.5,102.53 C321.599995,102.53 320.880003,102.789997 320.34,103.31 C319.799997,103.830003 319.53,104.469996 319.53,105.23 L319.53,112.88 L312.6,112.88 L312.6,97.1 Z M338.88,107.87 C338.88,108.930005 338.655002,109.819996 338.205,110.54 C337.754998,111.260004 337.185003,111.834998 336.495,112.265 C335.804997,112.695002 335.050004,113.004999 334.23,113.195 C333.409996,113.385001 332.630004,113.48 331.89,113.48 C330.529993,113.48 329.195007,113.285002 327.885,112.895 C326.574993,112.504998 325.440005,111.950004 324.48,111.23 L327.87,107.3 C328.350002,107.740002 328.914997,108.094999 329.565,108.365 C330.215003,108.635001 330.839997,108.77 331.44,108.77 C331.680001,108.77 331.904999,108.725 332.115,108.635 C332.325001,108.545 332.43,108.380001 332.43,108.14 C332.43,107.879999 332.245002,107.675001 331.875,107.525 C331.504998,107.374999 330.860005,107.190001 329.94,106.97 C329.439998,106.849999 328.930003,106.675001 328.41,106.445 C327.889997,106.214999 327.415002,105.910002 326.985,105.53 C326.554998,105.149998 326.200001,104.685003 325.92,104.135 C325.639999,103.584997 325.5,102.930004 325.5,102.17 C325.5,101.149995 325.724998,100.280004 326.175,99.56 C326.625002,98.8399964 327.194997,98.2550023 327.885,97.805 C328.575003,97.3549978 329.324996,97.0250011 330.135,96.815 C330.945004,96.604999 331.709996,96.5 332.43,96.5 C333.650006,96.5 334.859994,96.6799982 336.06,97.04 C337.260006,97.4000018 338.339995,97.8999968 339.3,98.54 L336.06,102.41 C335.559998,102.089998 335.050003,101.840001 334.53,101.66 C334.009997,101.479999 333.500002,101.39 333,101.39 C332.659998,101.39 332.380001,101.435 332.16,101.525 C331.939999,101.615 331.83,101.789999 331.83,102.05 C331.83,102.250001 331.954999,102.404999 332.205,102.515 C332.455001,102.625001 333.029996,102.769999 333.93,102.95 C334.550003,103.070001 335.154997,103.254999 335.745,103.505 C336.335003,103.755001 336.864998,104.074998 337.335,104.465 C337.805002,104.855002 338.179999,105.329997 338.46,105.89 C338.740001,106.450003 338.88,107.109996 338.88,107.87 Z M358.71,104.93 C358.71,106.290007 358.465002,107.499995 357.975,108.56 C357.484998,109.620005 356.825004,110.514996 355.995,111.245 C355.164996,111.975004 354.205005,112.529998 353.115,112.91 C352.024995,113.290002 350.880006,113.48 349.68,113.48 C348.499994,113.48 347.365005,113.290002 346.275,112.91 C345.184995,112.529998 344.230004,111.975004 343.41,111.245 C342.589996,110.514996 341.935002,109.620005 341.445,108.56 C340.954998,107.499995 340.71,106.290007 340.71,104.93 C340.71,103.589993 340.954998,102.395005 341.445,101.345 C341.935002,100.294995 342.589996,99.4100036 343.41,98.69 C344.230004,97.9699964 345.184995,97.4250019 346.275,97.055 C347.365005,96.6849982 348.499994,96.5 349.68,96.5 C350.880006,96.5 352.024995,96.6849982 353.115,97.055 C354.205005,97.4250019 355.164996,97.9699964 355.995,98.69 C356.825004,99.4100036 357.484998,100.294995 357.975,101.345 C358.465002,102.395005 358.71,103.589993 358.71,104.93 Z M349.68,102.32 C348.919996,102.32 348.305002,102.579997 347.835,103.1 C347.364998,103.620003 347.13,104.229997 347.13,104.93 C347.13,105.670004 347.369998,106.299997 347.85,106.82 C348.330002,107.340003 348.949996,107.6 349.71,107.6 C350.470004,107.6 351.089998,107.340003 351.57,106.82 C352.050002,106.299997 352.29,105.670004 352.29,104.93 C352.29,104.229997 352.045002,103.620003 351.555,103.1 C351.064998,102.579997 350.440004,102.32 349.68,102.32 Z M361.26,97.1 L368.01,97.1 L368.01,98.84 L368.07,98.84 C368.470002,98.2599971 369.064996,97.7550022 369.855,97.325 C370.645004,96.8949978 371.549995,96.68 372.57,96.68 C373.670005,96.68 374.584996,96.879998 375.315,97.28 C376.045004,97.680002 376.624998,98.1949969 377.055,98.825 C377.485002,99.4550032 377.784999,100.159996 377.955,100.94 C378.125001,101.720004 378.21,102.499996 378.21,103.28 L378.21,112.88 L371.25,112.88 L371.25,104.48 C371.25,103.679996 371.125001,103.120002 370.875,102.8 C370.624999,102.479998 370.250002,102.32 369.75,102.32 C369.289998,102.32 368.915001,102.504998 368.625,102.875 C368.334999,103.245002 368.19,103.779997 368.19,104.48 L368.19,112.88 L361.26,112.88 L361.26,97.1 Z M399.24,102.89 C399.24,102.329997 399.035002,101.870002 398.625,101.51 C398.214998,101.149998 397.660004,100.97 396.96,100.97 C396.199996,100.97 395.610002,101.179998 395.19,101.6 C394.769998,102.020002 394.53,102.449998 394.47,102.89 L399.24,102.89 Z M405.21,105.14 C405.21,105.400001 405.205,105.664999 405.195,105.935 C405.185,106.205001 405.17,106.429999 405.15,106.61 L394.53,106.61 C394.55,106.890001 394.644999,107.139999 394.815,107.36 C394.985001,107.580001 395.194999,107.769999 395.445,107.93 C395.695001,108.090001 395.974998,108.21 396.285,108.29 C396.595002,108.37 396.909998,108.41 397.23,108.41 C397.870003,108.41 398.404998,108.295001 398.835,108.065 C399.265002,107.834999 399.589999,107.580001 399.81,107.3 L404.73,109.79 C404.029996,110.930006 403.015007,111.829997 401.685,112.49 C400.354993,113.150003 398.810009,113.48 397.05,113.48 C395.909994,113.48 394.800005,113.300002 393.72,112.94 C392.639995,112.579998 391.685004,112.045004 390.855,111.335 C390.024996,110.624996 389.360002,109.740005 388.86,108.68 C388.359997,107.619995 388.11,106.390007 388.11,104.99 C388.11,103.689994 388.339998,102.515005 388.8,101.465 C389.260002,100.414995 389.884996,99.5250037 390.675,98.795 C391.465004,98.0649964 392.394995,97.500002 393.465,97.1 C394.535005,96.699998 395.679994,96.5 396.9,96.5 C398.140006,96.5 399.269995,96.7149979 400.29,97.145 C401.310005,97.5750022 402.184996,98.1749961 402.915,98.945 C403.645004,99.7150039 404.209998,100.629995 404.61,101.69 C405.010002,102.750005 405.21,103.899994 405.21,105.14 Z M407.67,97.1 L414.6,97.1 L414.6,112.88 L407.67,112.88 L407.67,97.1 Z M407.55,92.54 C407.55,92.0599976 407.644999,91.6050022 407.835,91.175 C408.025001,90.7449979 408.284998,90.3700016 408.615,90.05 C408.945002,89.7299984 409.329998,89.475001 409.77,89.285 C410.210002,89.0949991 410.679997,89 411.18,89 C411.660002,89 412.109998,89.0949991 412.53,89.285 C412.950002,89.475001 413.324998,89.7299984 413.655,90.05 C413.985002,90.3700016 414.244999,90.7449979 414.435,91.175 C414.625001,91.6050022 414.72,92.0599976 414.72,92.54 C414.72,93.0400025 414.625001,93.5049979 414.435,93.935 C414.244999,94.3650022 413.985002,94.7349985 413.655,95.045 C413.324998,95.3550015 412.950002,95.5999991 412.53,95.78 C412.109998,95.9600009 411.660002,96.05 411.18,96.05 C410.679997,96.05 410.210002,95.9600009 409.77,95.78 C409.329998,95.5999991 408.945002,95.3550015 408.615,95.045 C408.284998,94.7349985 408.025001,94.3650022 407.835,93.935 C407.644999,93.5049979 407.55,93.0400025 407.55,92.54 Z M417.81,97.1 L424.56,97.1 L424.56,98.84 L424.62,98.84 C425.020002,98.2599971 425.614996,97.7550022 426.405,97.325 C427.195004,96.8949978 428.099995,96.68 429.12,96.68 C430.220006,96.68 431.134996,96.879998 431.865,97.28 C432.595004,97.680002 433.174998,98.1949969 433.605,98.825 C434.035002,99.4550032 434.334999,100.159996 434.505,100.94 C434.675001,101.720004 434.76,102.499996 434.76,103.28 L434.76,112.88 L427.8,112.88 L427.8,104.48 C427.8,103.679996 427.675001,103.120002 427.425,102.8 C427.174999,102.479998 426.800002,102.32 426.3,102.32 C425.839998,102.32 425.465001,102.504998 425.175,102.875 C424.884999,103.245002 424.74,103.779997 424.74,104.48 L424.74,112.88 L417.81,112.88 L417.81,97.1 Z M448.29,102.89 C448.29,102.329997 448.085002,101.870002 447.675,101.51 C447.264998,101.149998 446.710004,100.97 446.01,100.97 C445.249996,100.97 444.660002,101.179998 444.24,101.6 C443.819998,102.020002 443.58,102.449998 443.52,102.89 L448.29,102.89 Z M454.26,105.14 C454.26,105.400001 454.255,105.664999 454.245,105.935 C454.235,106.205001 454.22,106.429999 454.2,106.61 L443.58,106.61 C443.6,106.890001 443.694999,107.139999 443.865,107.36 C444.035001,107.580001 444.244999,107.769999 444.495,107.93 C444.745001,108.090001 445.024998,108.21 445.335,108.29 C445.645002,108.37 445.959998,108.41 446.28,108.41 C446.920003,108.41 447.454998,108.295001 447.885,108.065 C448.315002,107.834999 448.639999,107.580001 448.86,107.3 L453.78,109.79 C453.079996,110.930006 452.065007,111.829997 450.735,112.49 C449.404993,113.150003 447.860009,113.48 446.1,113.48 C444.959994,113.48 443.850005,113.300002 442.77,112.94 C441.689995,112.579998 440.735004,112.045004 439.905,111.335 C439.074996,110.624996 438.410002,109.740005 437.91,108.68 C437.409997,107.619995 437.16,106.390007 437.16,104.99 C437.16,103.689994 437.389998,102.515005 437.85,101.465 C438.310002,100.414995 438.934996,99.5250037 439.725,98.795 C440.515004,98.0649964 441.444995,97.500002 442.515,97.1 C443.585005,96.699998 444.729994,96.5 445.95,96.5 C447.190006,96.5 448.319995,96.7149979 449.34,97.145 C450.360005,97.5750022 451.234996,98.1749961 451.965,98.945 C452.695004,99.7150039 453.259998,100.629995 453.66,101.69 C454.060002,102.750005 454.26,103.899994 454.26,105.14 Z M12.96,145.81 L7.14,145.81 L7.14,153.88 L0,153.88 L0,132.64 L7.11,132.64 L7.11,139.84 L12.93,139.84 L12.93,132.64 L20.1,132.64 L20.1,153.88 L12.96,153.88 L12.96,145.81 Z M32.1,147.34 C31.0799949,147.34 30.2600031,147.449999 29.64,147.67 C29.0199969,147.890001 28.71,148.299997 28.71,148.9 C28.71,149.120001 28.7599995,149.304999 28.86,149.455 C28.9600005,149.605001 29.0899992,149.73 29.25,149.83 C29.4100008,149.930001 29.584999,150.005 29.775,150.055 C29.965001,150.105 30.1399992,150.13 30.3,150.13 C30.9600033,150.13 31.489998,149.920002 31.89,149.5 C32.290002,149.079998 32.49,148.540003 32.49,147.88 L32.49,147.34 L32.1,147.34 Z M32.04,143.86 C32.04,143.379998 31.8750017,143.025001 31.545,142.795 C31.2149984,142.564999 30.7800027,142.45 30.24,142.45 C29.5999968,142.45 28.9950029,142.584999 28.425,142.855 C27.8549972,143.125001 27.3500022,143.439998 26.91,143.8 L23.46,140.38 C24.4200048,139.459995 25.5599934,138.750003 26.88,138.25 C28.2000066,137.749998 29.559993,137.5 30.96,137.5 C32.4600075,137.5 33.6999951,137.709998 34.68,138.13 C35.6600049,138.550002 36.4349972,139.129996 37.005,139.87 C37.5750028,140.610004 37.9749989,141.469995 38.205,142.45 C38.4350011,143.430005 38.55,144.469995 38.55,145.57 L38.55,153.88 L32.28,153.88 L32.28,152.62 L32.22,152.62 C31.819998,153.220003 31.2500037,153.649999 30.51,153.91 C29.7699963,154.170001 29.0500035,154.3 28.35,154.3 C27.7299969,154.3 27.0950033,154.210001 26.445,154.03 C25.7949967,153.849999 25.2050026,153.560002 24.675,153.16 C24.1449973,152.759998 23.7100017,152.240003 23.37,151.6 C23.0299983,150.959997 22.86,150.170005 22.86,149.23 C22.86,148.129995 23.1449972,147.235003 23.715,146.545 C24.2850028,145.854997 25.0099956,145.315002 25.89,144.925 C26.7700044,144.534998 27.7549946,144.270001 28.845,144.13 C29.9350054,143.989999 30.9999948,143.92 32.04,143.92 L32.04,143.86 Z M41.4,131.2 L48.48,131.2 L48.48,153.88 L41.4,153.88 L41.4,131.2 Z M69.93,145.93 C69.93,146.970005 69.7750015,147.989995 69.465,148.99 C69.1549985,149.990005 68.700003,150.884996 68.1,151.675 C67.499997,152.465004 66.7500045,153.099998 65.85,153.58 C64.9499955,154.060002 63.9100059,154.3 62.73,154.3 C61.7499951,154.3 60.8200044,154.115002 59.94,153.745 C59.0599956,153.374998 58.3900023,152.870003 57.93,152.23 L57.87,152.23 L57.87,153.88 L51.66,153.88 L51.66,131.2 L58.56,131.2 L58.56,139.36 L58.62,139.36 C59.0800023,138.819997 59.6899962,138.405001 60.45,138.115 C61.2100038,137.824999 61.9699962,137.68 62.73,137.68 C63.9100059,137.68 64.9499955,137.919998 65.85,138.4 C66.7500045,138.880002 67.499997,139.509996 68.1,140.29 C68.700003,141.070004 69.1549985,141.949995 69.465,142.93 C69.7750015,143.910005 69.93,144.909995 69.93,145.93 Z M63.51,145.93 C63.51,145.229997 63.2900022,144.620003 62.85,144.1 C62.4099978,143.579997 61.7700042,143.32 60.93,143.32 C60.1099959,143.32 59.4550025,143.579997 58.965,144.1 C58.4749975,144.620003 58.23,145.229997 58.23,145.93 C58.23,146.670004 58.4749975,147.299997 58.965,147.82 C59.4550025,148.340003 60.1099959,148.6 60.93,148.6 C61.7700042,148.6 62.4099978,148.345003 62.85,147.835 C63.2900022,147.324997 63.51,146.690004 63.51,145.93 Z M82.14,153.88 L82.14,145.6 C82.14,144.799996 82.040001,144.220002 81.84,143.86 C81.639999,143.499998 81.3100023,143.32 80.85,143.32 C80.5099983,143.32 80.1850015,143.479998 79.875,143.8 C79.5649985,144.120002 79.41,144.689996 79.41,145.51 L79.41,153.88 L72.48,153.88 L72.48,138.1 L79.23,138.1 L79.23,139.84 L79.29,139.84 C79.490001,139.579999 79.7349986,139.325001 80.025,139.075 C80.3150014,138.824999 80.6449982,138.595001 81.015,138.385 C81.3850018,138.174999 81.7999977,138.005001 82.26,137.875 C82.7200023,137.744999 83.2199973,137.68 83.76,137.68 C84.8000052,137.68 85.6999962,137.864998 86.46,138.235 C87.2200038,138.605002 87.8199978,139.179996 88.26,139.96 C88.7800026,139.319997 89.4199962,138.780002 90.18,138.34 C90.9400038,137.899998 91.8999942,137.68 93.06,137.68 C94.1800056,137.68 95.1049963,137.899998 95.835,138.34 C96.5650037,138.780002 97.1449978,139.329997 97.575,139.99 C98.0050022,140.650003 98.3049992,141.364996 98.475,142.135 C98.6450008,142.905004 98.73,143.619997 98.73,144.28 L98.73,153.88 L91.8,153.88 L91.8,145.48 C91.8,144.619996 91.695001,144.045001 91.485,143.755 C91.274999,143.464999 90.9500022,143.32 90.51,143.32 C90.109998,143.32 89.7700014,143.504998 89.49,143.875 C89.2099986,144.245002 89.07,144.789996 89.07,145.51 L89.07,153.88 L82.14,153.88 Z M110.19,147.34 C109.169995,147.34 108.350003,147.449999 107.73,147.67 C107.109997,147.890001 106.8,148.299997 106.8,148.9 C106.8,149.120001 106.85,149.304999 106.95,149.455 C107.05,149.605001 107.179999,149.73 107.34,149.83 C107.500001,149.930001 107.674999,150.005 107.865,150.055 C108.055001,150.105 108.229999,150.13 108.39,150.13 C109.050003,150.13 109.579998,149.920002 109.98,149.5 C110.380002,149.079998 110.58,148.540003 110.58,147.88 L110.58,147.34 L110.19,147.34 Z M110.13,143.86 C110.13,143.379998 109.965002,143.025001 109.635,142.795 C109.304998,142.564999 108.870003,142.45 108.33,142.45 C107.689997,142.45 107.085003,142.584999 106.515,142.855 C105.944997,143.125001 105.440002,143.439998 105,143.8 L101.55,140.38 C102.510005,139.459995 103.649993,138.750003 104.97,138.25 C106.290007,137.749998 107.649993,137.5 109.05,137.5 C110.550008,137.5 111.789995,137.709998 112.77,138.13 C113.750005,138.550002 114.524997,139.129996 115.095,139.87 C115.665003,140.610004 116.064999,141.469995 116.295,142.45 C116.525001,143.430005 116.64,144.469995 116.64,145.57 L116.64,153.88 L110.37,153.88 L110.37,152.62 L110.31,152.62 C109.909998,153.220003 109.340004,153.649999 108.6,153.91 C107.859996,154.170001 107.140003,154.3 106.44,154.3 C105.819997,154.3 105.185003,154.210001 104.535,154.03 C103.884997,153.849999 103.295003,153.560002 102.765,153.16 C102.234997,152.759998 101.800002,152.240003 101.46,151.6 C101.119998,150.959997 100.95,150.170005 100.95,149.23 C100.95,148.129995 101.234997,147.235003 101.805,146.545 C102.375003,145.854997 103.099996,145.315002 103.98,144.925 C104.860004,144.534998 105.844995,144.270001 106.935,144.13 C108.025005,143.989999 109.089995,143.92 110.13,143.92 L110.13,143.86 Z M119.49,138.1 L126.15,138.1 L126.15,139.9 L126.21,139.9 C126.550002,139.259997 127.054997,138.730002 127.725,138.31 C128.395003,137.889998 129.179996,137.68 130.08,137.68 C130.620003,137.68 131.059998,137.73 131.4,137.83 L130.86,143.71 C130.639999,143.65 130.395001,143.605 130.125,143.575 C129.854999,143.545 129.610001,143.53 129.39,143.53 C128.489995,143.53 127.770003,143.789997 127.23,144.31 C126.689997,144.830003 126.42,145.469996 126.42,146.23 L126.42,153.88 L119.49,153.88 L119.49,138.1 Z M140.73,147.34 C139.709995,147.34 138.890003,147.449999 138.27,147.67 C137.649997,147.890001 137.34,148.299997 137.34,148.9 C137.34,149.120001 137.389999,149.304999 137.49,149.455 C137.59,149.605001 137.719999,149.73 137.88,149.83 C138.040001,149.930001 138.214999,150.005 138.405,150.055 C138.595001,150.105 138.769999,150.13 138.93,150.13 C139.590003,150.13 140.119998,149.920002 140.52,149.5 C140.920002,149.079998 141.12,148.540003 141.12,147.88 L141.12,147.34 L140.73,147.34 Z M140.67,143.86 C140.67,143.379998 140.505002,143.025001 140.175,142.795 C139.844998,142.564999 139.410003,142.45 138.87,142.45 C138.229997,142.45 137.625003,142.584999 137.055,142.855 C136.484997,143.125001 135.980002,143.439998 135.54,143.8 L132.09,140.38 C133.050005,139.459995 134.189993,138.750003 135.51,138.25 C136.830007,137.749998 138.189993,137.5 139.59,137.5 C141.090007,137.5 142.329995,137.709998 143.31,138.13 C144.290005,138.550002 145.064997,139.129996 145.635,139.87 C146.205003,140.610004 146.604999,141.469995 146.835,142.45 C147.065001,143.430005 147.18,144.469995 147.18,145.57 L147.18,153.88 L140.91,153.88 L140.91,152.62 L140.85,152.62 C140.449998,153.220003 139.880004,153.649999 139.14,153.91 C138.399996,154.170001 137.680003,154.3 136.98,154.3 C136.359997,154.3 135.725003,154.210001 135.075,154.03 C134.424997,153.849999 133.835003,153.560002 133.305,153.16 C132.774997,152.759998 132.340002,152.240003 132,151.6 C131.659998,150.959997 131.49,150.170005 131.49,149.23 C131.49,148.129995 131.774997,147.235003 132.345,146.545 C132.915003,145.854997 133.639996,145.315002 134.52,144.925 C135.400004,144.534998 136.384995,144.270001 137.475,144.13 C138.565005,143.989999 139.629995,143.92 140.67,143.92 L140.67,143.86 Z M156.6,154.3 C154.479989,154.3 152.910005,153.845005 151.89,152.935 C150.869995,152.024995 150.36,150.61001 150.36,148.69 L150.36,143.05 L148.14,143.05 L148.14,138.1 L150.33,138.1 L150.33,134.56 L157.05,134.56 L157.05,138.1 L160.47,138.1 L160.47,143.05 L157.05,143.05 L157.05,147.25 C157.05,148.010004 157.214998,148.524999 157.545,148.795 C157.875002,149.065001 158.329997,149.2 158.91,149.2 C159.130001,149.2 159.359999,149.18 159.6,149.14 C159.840001,149.1 160.029999,149.06 160.17,149.02 L160.17,153.76 C159.809998,153.920001 159.305003,154.05 158.655,154.15 C158.004997,154.250001 157.320004,154.3 156.6,154.3 Z M173.67,137.68 C174.770005,137.68 175.684996,137.879998 176.415,138.28 C177.145004,138.680002 177.724998,139.194997 178.155,139.825 C178.585002,140.455003 178.884999,141.159996 179.055,141.94 C179.225001,142.720004 179.31,143.499996 179.31,144.28 L179.31,153.88 L172.35,153.88 L172.35,145.48 C172.35,144.679996 172.225001,144.120002 171.975,143.8 C171.724999,143.479998 171.350003,143.32 170.85,143.32 C170.449998,143.32 170.090002,143.494998 169.77,143.845 C169.449998,144.195002 169.29,144.749996 169.29,145.51 L169.29,153.88 L162.36,153.88 L162.36,131.2 L169.29,131.2 L169.29,139.84 L169.35,139.84 C169.750002,139.259997 170.319996,138.755002 171.06,138.325 C171.800004,137.894998 172.669995,137.68 173.67,137.68 Z M199.71,145.93 C199.71,147.290007 199.465002,148.499995 198.975,149.56 C198.484998,150.620005 197.825004,151.514996 196.995,152.245 C196.164996,152.975004 195.205005,153.529998 194.115,153.91 C193.024995,154.290002 191.880006,154.48 190.68,154.48 C189.499994,154.48 188.365005,154.290002 187.275,153.91 C186.184995,153.529998 185.230004,152.975004 184.41,152.245 C183.589996,151.514996 182.935002,150.620005 182.445,149.56 C181.954998,148.499995 181.71,147.290007 181.71,145.93 C181.71,144.589993 181.954998,143.395005 182.445,142.345 C182.935002,141.294995 183.589996,140.410004 184.41,139.69 C185.230004,138.969996 186.184995,138.425002 187.275,138.055 C188.365005,137.684998 189.499994,137.5 190.68,137.5 C191.880006,137.5 193.024995,137.684998 194.115,138.055 C195.205005,138.425002 196.164996,138.969996 196.995,139.69 C197.825004,140.410004 198.484998,141.294995 198.975,142.345 C199.465002,143.395005 199.71,144.589993 199.71,145.93 Z M190.68,143.32 C189.919996,143.32 189.305002,143.579997 188.835,144.1 C188.364998,144.620003 188.13,145.229997 188.13,145.93 C188.13,146.670004 188.369998,147.299997 188.85,147.82 C189.330002,148.340003 189.949996,148.6 190.71,148.6 C191.470004,148.6 192.089998,148.340003 192.57,147.82 C193.050002,147.299997 193.29,146.670004 193.29,145.93 C193.29,145.229997 193.045002,144.620003 192.555,144.1 C192.064998,143.579997 191.440004,143.32 190.68,143.32 Z M202.26,138.1 L209.01,138.1 L209.01,139.84 L209.07,139.84 C209.470002,139.259997 210.064996,138.755002 210.855,138.325 C211.645004,137.894998 212.549995,137.68 213.57,137.68 C214.670005,137.68 215.584996,137.879998 216.315,138.28 C217.045004,138.680002 217.624998,139.194997 218.055,139.825 C218.485002,140.455003 218.784999,141.159996 218.955,141.94 C219.125001,142.720004 219.21,143.499996 219.21,144.28 L219.21,153.88 L212.25,153.88 L212.25,145.48 C212.25,144.679996 212.125001,144.120002 211.875,143.8 C211.624999,143.479998 211.250002,143.32 210.75,143.32 C210.289998,143.32 209.915001,143.504998 209.625,143.875 C209.334999,144.245002 209.19,144.779997 209.19,145.48 L209.19,153.88 L202.26,153.88 L202.26,138.1 Z M235.17,148.87 C235.17,149.930005 234.945002,150.819996 234.495,151.54 C234.044998,152.260004 233.475003,152.834998 232.785,153.265 C232.094997,153.695002 231.340004,154.004999 230.52,154.195 C229.699996,154.385001 228.920004,154.48 228.18,154.48 C226.819993,154.48 225.485007,154.285002 224.175,153.895 C222.864993,153.504998 221.730005,152.950004 220.77,152.23 L224.16,148.3 C224.640002,148.740002 225.204997,149.094999 225.855,149.365 C226.505003,149.635001 227.129997,149.77 227.73,149.77 C227.970001,149.77 228.194999,149.725 228.405,149.635 C228.615001,149.545 228.72,149.380001 228.72,149.14 C228.72,148.879999 228.535002,148.675001 228.165,148.525 C227.794998,148.374999 227.150005,148.190001 226.23,147.97 C225.729997,147.849999 225.220003,147.675001 224.7,147.445 C224.179997,147.214999 223.705002,146.910002 223.275,146.53 C222.844998,146.149998 222.490001,145.685003 222.21,145.135 C221.929999,144.584997 221.79,143.930004 221.79,143.17 C221.79,142.149995 222.014998,141.280004 222.465,140.56 C222.915002,139.839996 223.484997,139.255002 224.175,138.805 C224.865003,138.354998 225.614996,138.025001 226.425,137.815 C227.235004,137.604999 227.999996,137.5 228.72,137.5 C229.940006,137.5 231.149994,137.679998 232.35,138.04 C233.550006,138.400002 234.629995,138.899997 235.59,139.54 L232.35,143.41 C231.849997,143.089998 231.340003,142.840001 230.82,142.66 C230.299997,142.479999 229.790002,142.39 229.29,142.39 C228.949998,142.39 228.670001,142.435 228.45,142.525 C228.229999,142.615 228.12,142.789999 228.12,143.05 C228.12,143.250001 228.244999,143.404999 228.495,143.515 C228.745001,143.625001 229.319995,143.769999 230.22,143.95 C230.840003,144.070001 231.444997,144.254999 232.035,144.505 C232.625003,144.755001 233.154998,145.074998 233.625,145.465 C234.095002,145.855002 234.469999,146.329997 234.75,146.89 C235.030001,147.450003 235.17,148.109996 235.17,148.87 Z M244.5,154.3 C242.379989,154.3 240.810005,153.845005 239.79,152.935 C238.769995,152.024995 238.26,150.61001 238.26,148.69 L238.26,143.05 L236.04,143.05 L236.04,138.1 L238.23,138.1 L238.23,134.56 L244.95,134.56 L244.95,138.1 L248.37,138.1 L248.37,143.05 L244.95,143.05 L244.95,147.25 C244.95,148.010004 245.114998,148.524999 245.445,148.795 C245.775002,149.065001 246.229997,149.2 246.81,149.2 C247.030001,149.2 247.259999,149.18 247.5,149.14 C247.740001,149.1 247.929999,149.06 248.07,149.02 L248.07,153.76 C247.709998,153.920001 247.205003,154.05 246.555,154.15 C245.904997,154.250001 245.220004,154.3 244.5,154.3 Z M250.26,138.1 L256.92,138.1 L256.92,139.9 L256.98,139.9 C257.320002,139.259997 257.824997,138.730002 258.495,138.31 C259.165003,137.889998 259.949995,137.68 260.85,137.68 C261.390003,137.68 261.829998,137.73 262.17,137.83 L261.63,143.71 C261.409999,143.65 261.165001,143.605 260.895,143.575 C260.624999,143.545 260.380001,143.53 260.16,143.53 C259.259995,143.53 258.540003,143.789997 258,144.31 C257.459997,144.830003 257.19,145.469996 257.19,146.23 L257.19,153.88 L250.26,153.88 L250.26,138.1 Z M273.57,143.89 C273.57,143.329997 273.365002,142.870002 272.955,142.51 C272.544998,142.149998 271.990004,141.97 271.29,141.97 C270.529996,141.97 269.940002,142.179998 269.52,142.6 C269.099998,143.020002 268.86,143.449998 268.8,143.89 L273.57,143.89 Z M279.54,146.14 C279.54,146.400001 279.535,146.664999 279.525,146.935 C279.515,147.205001 279.5,147.429999 279.48,147.61 L268.86,147.61 C268.88,147.890001 268.974999,148.139999 269.145,148.36 C269.315001,148.580001 269.524999,148.769999 269.775,148.93 C270.025001,149.090001 270.304998,149.21 270.615,149.29 C270.925002,149.37 271.239998,149.41 271.56,149.41 C272.200003,149.41 272.734998,149.295001 273.165,149.065 C273.595002,148.834999 273.919999,148.580001 274.14,148.3 L279.06,150.79 C278.359996,151.930006 277.345007,152.829997 276.015,153.49 C274.684993,154.150003 273.140009,154.48 271.38,154.48 C270.239994,154.48 269.130005,154.300002 268.05,153.94 C266.969995,153.579998 266.015004,153.045004 265.185,152.335 C264.354996,151.624996 263.690002,150.740005 263.19,149.68 C262.689997,148.619995 262.44,147.390007 262.44,145.99 C262.44,144.689994 262.669998,143.515005 263.13,142.465 C263.590002,141.414995 264.214996,140.525004 265.005,139.795 C265.795004,139.064996 266.724995,138.500002 267.795,138.1 C268.865005,137.699998 270.009994,137.5 271.23,137.5 C272.470006,137.5 273.599995,137.714998 274.62,138.145 C275.640005,138.575002 276.514996,139.174996 277.245,139.945 C277.975004,140.715004 278.539998,141.629995 278.94,142.69 C279.340002,143.750005 279.54,144.899994 279.54,146.14 Z M290.55,154.48 C289.209993,154.48 287.980006,154.280002 286.86,153.88 C285.739994,153.479998 284.770004,152.910004 283.95,152.17 C283.129996,151.429996 282.490002,150.540005 282.03,149.5 C281.569998,148.459995 281.34,147.290007 281.34,145.99 C281.34,144.709994 281.574998,143.545005 282.045,142.495 C282.515002,141.444995 283.169996,140.550004 284.01,139.81 C284.850004,139.069996 285.834994,138.500002 286.965,138.1 C288.095006,137.699998 289.319993,137.5 290.64,137.5 C291.180003,137.5 291.724997,137.545 292.275,137.635 C292.825003,137.725 293.354997,137.849999 293.865,138.01 C294.375003,138.170001 294.844998,138.349999 295.275,138.55 C295.705002,138.750001 296.069998,138.969999 296.37,139.21 L292.92,144.19 C292.679999,143.909999 292.365002,143.695001 291.975,143.545 C291.584998,143.394999 291.210002,143.32 290.85,143.32 C290.509998,143.32 290.180002,143.374999 289.86,143.485 C289.539998,143.595001 289.255001,143.764999 289.005,143.995 C288.754999,144.225001 288.550001,144.504998 288.39,144.835 C288.229999,145.165002 288.15,145.549998 288.15,145.99 C288.15,146.430002 288.229999,146.814998 288.39,147.145 C288.550001,147.475002 288.754999,147.744999 289.005,147.955 C289.255001,148.165001 289.539998,148.324999 289.86,148.435 C290.180002,148.545001 290.509998,148.6 290.85,148.6 C291.250002,148.6 291.639998,148.525001 292.02,148.375 C292.400002,148.224999 292.709999,148.020001 292.95,147.76 L296.43,152.62 C295.769997,153.140003 294.915005,153.579998 293.865,153.94 C292.814995,154.300002 291.710006,154.48 290.55,154.48 Z M304.68,147.01 L304.68,153.88 L297.75,153.88 L297.75,131.2 L304.68,131.2 L304.68,144.13 L304.77,144.13 L308.52,138.1 L316.56,138.1 L311.46,145.21 L316.53,153.88 L308.46,153.88 L304.77,147.01 L304.68,147.01 Z M327.81,143.89 C327.81,143.329997 327.605002,142.870002 327.195,142.51 C326.784998,142.149998 326.230003,141.97 325.53,141.97 C324.769996,141.97 324.180002,142.179998 323.76,142.6 C323.339998,143.020002 323.1,143.449998 323.04,143.89 L327.81,143.89 Z M333.78,146.14 C333.78,146.400001 333.775,146.664999 333.765,146.935 C333.755,147.205001 333.74,147.429999 333.72,147.61 L323.1,147.61 C323.12,147.890001 323.214999,148.139999 323.385,148.36 C323.555001,148.580001 323.764999,148.769999 324.015,148.93 C324.265001,149.090001 324.544998,149.21 324.855,149.29 C325.165002,149.37 325.479998,149.41 325.8,149.41 C326.440003,149.41 326.974998,149.295001 327.405,149.065 C327.835002,148.834999 328.159999,148.580001 328.38,148.3 L333.3,150.79 C332.599996,151.930006 331.585007,152.829997 330.255,153.49 C328.924993,154.150003 327.380009,154.48 325.62,154.48 C324.479994,154.48 323.370005,154.300002 322.29,153.94 C321.209995,153.579998 320.255004,153.045004 319.425,152.335 C318.594996,151.624996 317.930002,150.740005 317.43,149.68 C316.929997,148.619995 316.68,147.390007 316.68,145.99 C316.68,144.689994 316.909998,143.515005 317.37,142.465 C317.830002,141.414995 318.454996,140.525004 319.245,139.795 C320.035004,139.064996 320.964995,138.500002 322.035,138.1 C323.105005,137.699998 324.249994,137.5 325.47,137.5 C326.710006,137.5 327.839995,137.714998 328.86,138.145 C329.880005,138.575002 330.754996,139.174996 331.485,139.945 C332.215004,140.715004 332.779998,141.629995 333.18,142.69 C333.580002,143.750005 333.78,144.899994 333.78,146.14 Z M342.66,145.24 C342.66,142.799988 343.029996,140.355012 343.77,137.905 C344.510004,135.454988 345.629992,133.20001 347.13,131.14 L351.72,132.82 C349.059987,136.500018 347.73,140.639977 347.73,145.24 C347.73,149.840023 349.059987,153.979982 351.72,157.66 L347.13,159.34 C345.629992,157.27999 344.510004,155.025012 343.77,152.575 C343.029996,150.124988 342.66,147.680012 342.66,145.24 Z M363.3,141.61 C363.640002,141.349999 363.919999,141.060002 364.14,140.74 C364.360001,140.419998 364.47,140.090002 364.47,139.75 C364.47,139.349998 364.345001,139.000002 364.095,138.7 C363.844999,138.399999 363.450003,138.25 362.91,138.25 C362.329997,138.25 361.850002,138.479998 361.47,138.94 C361.089998,139.400002 360.88,140.019996 360.84,140.8 L354.03,140.02 C354.170001,138.639993 354.529997,137.450005 355.11,136.45 C355.690003,135.449995 356.414996,134.620003 357.285,133.96 C358.155004,133.299997 359.124995,132.815002 360.195,132.505 C361.265005,132.194998 362.369994,132.04 363.51,132.04 C364.550005,132.04 365.584995,132.169999 366.615,132.43 C367.645005,132.690001 368.559996,133.094997 369.36,133.645 C370.160004,134.195003 370.809997,134.909996 371.31,135.79 C371.810002,136.670004 372.06,137.729994 372.06,138.97 C372.06,139.850004 371.945001,140.624997 371.715,141.295 C371.484999,141.965003 371.175002,142.559997 370.785,143.08 C370.394998,143.600003 369.955002,144.069998 369.465,144.49 C368.974998,144.910002 368.460003,145.309998 367.92,145.69 L364.8,147.91 L372.12,147.91 L372.12,153.88 L354.9,153.88 L354.9,148.33 L363.3,141.61 Z M382.56,140.2 L378.99,142.66 L375.63,137.44 L383.16,132.64 L389.76,132.64 L389.76,153.88 L382.56,153.88 L382.56,140.2 Z M403.44,147.01 L403.44,153.88 L396.51,153.88 L396.51,131.2 L403.44,131.2 L403.44,144.13 L403.53,144.13 L407.28,138.1 L415.32,138.1 L410.22,145.21 L415.29,153.88 L407.22,153.88 L403.53,147.01 L403.44,147.01 Z M426.27,153.88 L426.27,145.6 C426.27,144.799996 426.170001,144.220002 425.97,143.86 C425.769999,143.499998 425.440002,143.32 424.98,143.32 C424.639998,143.32 424.315002,143.479998 424.005,143.8 C423.694998,144.120002 423.54,144.689996 423.54,145.51 L423.54,153.88 L416.61,153.88 L416.61,138.1 L423.36,138.1 L423.36,139.84 L423.42,139.84 C423.620001,139.579999 423.864999,139.325001 424.155,139.075 C424.445001,138.824999 424.774998,138.595001 425.145,138.385 C425.515002,138.174999 425.929998,138.005001 426.39,137.875 C426.850002,137.744999 427.349997,137.68 427.89,137.68 C428.930005,137.68 429.829996,137.864998 430.59,138.235 C431.350004,138.605002 431.949998,139.179996 432.39,139.96 C432.910003,139.319997 433.549996,138.780002 434.31,138.34 C435.070004,137.899998 436.029994,137.68 437.19,137.68 C438.310006,137.68 439.234996,137.899998 439.965,138.34 C440.695004,138.780002 441.274998,139.329997 441.705,139.99 C442.135002,140.650003 442.434999,141.364996 442.605,142.135 C442.775001,142.905004 442.86,143.619997 442.86,144.28 L442.86,153.88 L435.93,153.88 L435.93,145.48 C435.93,144.619996 435.825001,144.045001 435.615,143.755 C435.404999,143.464999 435.080002,143.32 434.64,143.32 C434.239998,143.32 433.900001,143.504998 433.62,143.875 C433.339999,144.245002 433.2,144.789996 433.2,145.51 L433.2,153.88 L426.27,153.88 Z M454.56,145.24 C454.56,147.680012 454.190004,150.124988 453.45,152.575 C452.709996,155.025012 451.590007,157.27999 450.09,159.34 L445.5,157.66 C448.160013,153.979982 449.49,149.840023 449.49,145.24 C449.49,140.639977 448.160013,136.500018 445.5,132.82 L450.09,131.14 C451.590007,133.20001 452.709996,135.454988 453.45,137.905 C454.190004,140.355012 454.56,142.799988 454.56,145.24 Z" id="Pro-Person-eine-Halb" fill="#FFFFFF"></path>
        </g>
    </g>
</svg>