<?xml version="1.0" encoding="UTF-8"?>
<svg width="100%" height="100%" preserveAspectRatio="xMinYMin meet" viewBox="0 0 543 177" version="1.1" xmlns="http://www.w3.org/2000/svg" xmlns:xlink="http://www.w3.org/1999/xlink">
    <!-- Generator: Sketch 52.3 (67297) - http://www.bohemiancoding.com/sketch -->
    <title>Artboard</title>
    <desc>Created with Sketch.</desc>
    <defs>
        <linearGradient x1="50%" y1="-2.48949813e-15%" x2="50%" y2="100%" id="linearGradient-1">
            <stop stop-color="#F2C314" offset="0%"></stop>
            <stop stop-color="#FC3832" offset="100%"></stop>
        </linearGradient>
    </defs>
    <g id="Artboard" stroke="none" stroke-width="1" fill="none" fill-rule="evenodd">
        <g id="Group-2-Copy">
            <circle id="Oval-Copy-4" fill="url(#linearGradient-1)" fill-rule="nonzero" cx="88.5" cy="88.5" r="88.5"></circle>
            <path d="M89.36,106.91 L97.31,97.55 L89.69,97.55 L89.69,91.64 L106.64,91.64 L106.64,96.8 L98.18,106.79 L106.88,106.79 L106.88,112.88 L89.36,112.88 L89.36,106.91 Z M119.78,112.88 L112.91,112.88 L107.51,97.1 L114.92,97.1 L116.9,105.26 L117.02,105.26 L119.06,97.1 L125.72,97.1 L127.91,105.26 L128,105.26 L129.92,97.1 L137,97.1 L131.54,112.88 L124.64,112.88 L122.21,104.78 L122.15,104.78 L119.78,112.88 Z M148.94,102.89 C148.94,102.329997 148.735002,101.870002 148.325,101.51 C147.914998,101.149998 147.360004,100.97 146.66,100.97 C145.899996,100.97 145.310002,101.179998 144.89,101.6 C144.469998,102.020002 144.23,102.449998 144.17,102.89 L148.94,102.89 Z M154.91,105.14 C154.91,105.400001 154.905,105.664999 154.895,105.935 C154.885,106.205001 154.87,106.429999 154.85,106.61 L144.23,106.61 C144.25,106.890001 144.344999,107.139999 144.515,107.36 C144.685001,107.580001 144.894999,107.769999 145.145,107.93 C145.395001,108.090001 145.674998,108.21 145.985,108.29 C146.295002,108.37 146.609998,108.41 146.93,108.41 C147.570003,108.41 148.104998,108.295001 148.535,108.065 C148.965002,107.834999 149.289999,107.580001 149.51,107.3 L154.43,109.79 C153.729996,110.930006 152.715007,111.829997 151.385,112.49 C150.054993,113.150003 148.510009,113.48 146.75,113.48 C145.609994,113.48 144.500005,113.300002 143.42,112.94 C142.339995,112.579998 141.385004,112.045004 140.555,111.335 C139.724996,110.624996 139.060002,109.740005 138.56,108.68 C138.059997,107.619995 137.81,106.390007 137.81,104.99 C137.81,103.689994 138.039998,102.515005 138.5,101.465 C138.960002,100.414995 139.584996,99.5250037 140.375,98.795 C141.165004,98.0649964 142.094995,97.500002 143.165,97.1 C144.235005,96.699998 145.379994,96.5 146.6,96.5 C147.840006,96.5 148.969995,96.7149979 149.99,97.145 C151.010005,97.5750022 151.884996,98.1749961 152.615,98.945 C153.345004,99.7150039 153.909998,100.629995 154.31,101.69 C154.710002,102.750005 154.91,103.899994 154.91,105.14 Z M157.37,97.1 L164.3,97.1 L164.3,112.88 L157.37,112.88 L157.37,97.1 Z M157.25,92.54 C157.25,92.0599976 157.344999,91.6050022 157.535,91.175 C157.725001,90.7449979 157.984998,90.3700016 158.315,90.05 C158.645002,89.7299984 159.029998,89.475001 159.47,89.285 C159.910002,89.0949991 160.379998,89 160.88,89 C161.360002,89 161.809998,89.0949991 162.23,89.285 C162.650002,89.475001 163.024998,89.7299984 163.355,90.05 C163.685002,90.3700016 163.944999,90.7449979 164.135,91.175 C164.325001,91.6050022 164.42,92.0599976 164.42,92.54 C164.42,93.0400025 164.325001,93.5049979 164.135,93.935 C163.944999,94.3650022 163.685002,94.7349985 163.355,95.045 C163.024998,95.3550015 162.650002,95.5999991 162.23,95.78 C161.809998,95.9600009 161.360002,96.05 160.88,96.05 C160.379998,96.05 159.910002,95.9600009 159.47,95.78 C159.029998,95.5999991 158.645002,95.3550015 158.315,95.045 C157.984998,94.7349985 157.725001,94.3650022 157.535,93.935 C157.344999,93.5049979 157.25,93.0400025 157.25,92.54 Z M175.4,91.64 L182.6,91.64 L182.6,106.76 L189.65,106.76 L189.65,112.88 L175.4,112.88 L175.4,91.64 Z M199.91,106.34 C198.889995,106.34 198.070003,106.449999 197.45,106.67 C196.829997,106.890001 196.52,107.299997 196.52,107.9 C196.52,108.120001 196.57,108.304999 196.67,108.455 C196.770001,108.605001 196.899999,108.73 197.06,108.83 C197.220001,108.930001 197.394999,109.005 197.585,109.055 C197.775001,109.105 197.949999,109.13 198.11,109.13 C198.770003,109.13 199.299998,108.920002 199.7,108.5 C200.100002,108.079998 200.3,107.540003 200.3,106.88 L200.3,106.34 L199.91,106.34 Z M199.85,102.86 C199.85,102.379998 199.685002,102.025001 199.355,101.795 C199.024998,101.564999 198.590003,101.45 198.05,101.45 C197.409997,101.45 196.805003,101.584999 196.235,101.855 C195.664997,102.125001 195.160002,102.439998 194.72,102.8 L191.27,99.38 C192.230005,98.4599954 193.369993,97.7500025 194.69,97.25 C196.010007,96.7499975 197.369993,96.5 198.77,96.5 C200.270007,96.5 201.509995,96.7099979 202.49,97.13 C203.470005,97.5500021 204.244997,98.1299963 204.815,98.87 C205.385003,99.6100037 205.784999,100.469995 206.015,101.45 C206.245001,102.430005 206.36,103.469995 206.36,104.57 L206.36,112.88 L200.09,112.88 L200.09,111.62 L200.03,111.62 C199.629998,112.220003 199.060004,112.649999 198.32,112.91 C197.579996,113.170001 196.860003,113.3 196.16,113.3 C195.539997,113.3 194.905003,113.210001 194.255,113.03 C193.604997,112.849999 193.015003,112.560002 192.485,112.16 C191.954997,111.759998 191.520002,111.240003 191.18,110.6 C190.839998,109.959997 190.67,109.170005 190.67,108.23 C190.67,107.129995 190.954997,106.235003 191.525,105.545 C192.095003,104.854997 192.819996,104.315002 193.7,103.925 C194.580004,103.534998 195.564995,103.270001 196.655,103.13 C197.745005,102.989999 198.809995,102.92 199.85,102.92 L199.85,102.86 Z M199.67,92.54 C199.67,92.139998 199.749999,91.7600018 199.91,91.4 C200.070001,91.0399982 200.289999,90.7250014 200.57,90.455 C200.850001,90.1849987 201.169998,89.9700008 201.53,89.81 C201.890002,89.6499992 202.279998,89.57 202.7,89.57 C203.100002,89.57 203.479998,89.6499992 203.84,89.81 C204.200002,89.9700008 204.514999,90.1849987 204.785,90.455 C205.055001,90.7250014 205.269999,91.0399982 205.43,91.4 C205.590001,91.7600018 205.67,92.139998 205.67,92.54 C205.67,92.9600021 205.590001,93.3449983 205.43,93.695 C205.269999,94.0450018 205.055001,94.3549987 204.785,94.625 C204.514999,94.8950014 204.200002,95.1049993 203.84,95.255 C203.479998,95.4050007 203.100002,95.48 202.7,95.48 C201.859996,95.48 201.145003,95.2000028 200.555,94.64 C199.964997,94.0799972 199.67,93.3800042 199.67,92.54 Z M192.2,92.54 C192.2,92.139998 192.279999,91.7600018 192.44,91.4 C192.600001,91.0399982 192.819999,90.7250014 193.1,90.455 C193.380001,90.1849987 193.699998,89.9700008 194.06,89.81 C194.420002,89.6499992 194.809998,89.57 195.23,89.57 C195.630002,89.57 196.009998,89.6499992 196.37,89.81 C196.730002,89.9700008 197.044999,90.1849987 197.315,90.455 C197.585001,90.7250014 197.799999,91.0399982 197.96,91.4 C198.120001,91.7600018 198.2,92.139998 198.2,92.54 C198.2,92.9600021 198.120001,93.3449983 197.96,93.695 C197.799999,94.0450018 197.585001,94.3549987 197.315,94.625 C197.044999,94.8950014 196.730002,95.1049993 196.37,95.255 C196.009998,95.4050007 195.630002,95.48 195.23,95.48 C194.389996,95.48 193.675003,95.2000028 193.085,94.64 C192.494997,94.0799972 192.2,93.3800042 192.2,92.54 Z M225.92,112.88 L219.17,112.88 L219.17,111.14 L219.11,111.14 C218.709998,111.720003 218.115004,112.224998 217.325,112.655 C216.534996,113.085002 215.630005,113.3 214.61,113.3 C213.489994,113.3 212.570004,113.105002 211.85,112.715 C211.129996,112.324998 210.555002,111.815003 210.125,111.185 C209.694998,110.554997 209.395001,109.845004 209.225,109.055 C209.054999,108.264996 208.97,107.480004 208.97,106.7 L208.97,97.1 L215.93,97.1 L215.93,105.44 C215.93,106.240004 216.054999,106.799998 216.305,107.12 C216.555001,107.440002 216.929998,107.6 217.43,107.6 C217.890002,107.6 218.264999,107.415002 218.555,107.045 C218.845001,106.674998 218.99,106.140004 218.99,105.44 L218.99,97.1 L225.92,97.1 L225.92,112.88 Z M240.29,94.94 C240.109999,94.8599996 239.900001,94.7950003 239.66,94.745 C239.419999,94.6949998 239.180001,94.67 238.94,94.67 C238.259997,94.67 237.785001,94.8799979 237.515,95.3 C237.244999,95.7200021 237.11,96.2499968 237.11,96.89 L237.11,97.1 L240.44,97.1 L240.44,102.05 L237.11,102.05 L237.11,112.88 L230.21,112.88 L230.21,102.05 L227.51,102.05 L227.51,97.1 L230.21,97.1 L230.21,96.74 C230.21,95.7599951 230.324999,94.8200045 230.555,93.92 C230.785001,93.0199955 231.179997,92.2250035 231.74,91.535 C232.300003,90.8449966 233.054995,90.300002 234.005,89.9 C234.955005,89.499998 236.149993,89.3 237.59,89.3 C238.050002,89.3 238.584997,89.3349997 239.195,89.405 C239.805003,89.4750004 240.319998,89.5899992 240.74,89.75 L240.29,94.94 Z M252.32,102.89 C252.32,102.329997 252.115002,101.870002 251.705,101.51 C251.294998,101.149998 250.740004,100.97 250.04,100.97 C249.279996,100.97 248.690002,101.179998 248.27,101.6 C247.849998,102.020002 247.61,102.449998 247.55,102.89 L252.32,102.89 Z M258.29,105.14 C258.29,105.400001 258.285,105.664999 258.275,105.935 C258.265,106.205001 258.25,106.429999 258.23,106.61 L247.61,106.61 C247.63,106.890001 247.724999,107.139999 247.895,107.36 C248.065001,107.580001 248.274999,107.769999 248.525,107.93 C248.775001,108.090001 249.054998,108.21 249.365,108.29 C249.675002,108.37 249.989998,108.41 250.31,108.41 C250.950003,108.41 251.484998,108.295001 251.915,108.065 C252.345002,107.834999 252.669999,107.580001 252.89,107.3 L257.81,109.79 C257.109996,110.930006 256.095007,111.829997 254.765,112.49 C253.434993,113.150003 251.890009,113.48 250.13,113.48 C248.989994,113.48 247.880005,113.300002 246.8,112.94 C245.719995,112.579998 244.765004,112.045004 243.935,111.335 C243.104996,110.624996 242.440003,109.740005 241.94,108.68 C241.439998,107.619995 241.19,106.390007 241.19,104.99 C241.19,103.689994 241.419998,102.515005 241.88,101.465 C242.340002,100.414995 242.964996,99.5250037 243.755,98.795 C244.545004,98.0649964 245.474995,97.500002 246.545,97.1 C247.615005,96.699998 248.759994,96.5 249.98,96.5 C251.220006,96.5 252.349995,96.7149979 253.37,97.145 C254.390005,97.5750022 255.264996,98.1749961 255.995,98.945 C256.725004,99.7150039 257.289998,100.629995 257.69,101.69 C258.090002,102.750005 258.29,103.899994 258.29,105.14 Z M260.72,97.1 L267.38,97.1 L267.38,98.9 L267.44,98.9 C267.780002,98.2599968 268.284997,97.7300021 268.955,97.31 C269.625003,96.8899979 270.409996,96.68 271.31,96.68 C271.850003,96.68 272.289998,96.7299995 272.63,96.83 L272.09,102.71 C271.869999,102.65 271.625001,102.605 271.355,102.575 C271.084999,102.545 270.840001,102.53 270.62,102.53 C269.719995,102.53 269.000003,102.789997 268.46,103.31 C267.919997,103.830003 267.65,104.469996 267.65,105.23 L267.65,112.88 L260.72,112.88 L260.72,97.1 Z M272.39,113.21 L281.48,89.87 L286.22,91.31 L277.1,114.65 L272.39,113.21 Z M287.03,101.75 L295.31,101.75 L295.31,106.91 L287.03,106.91 L287.03,101.75 Z M298.19,91.64 L305.39,91.64 L305.39,112.88 L298.19,112.88 L298.19,91.64 Z M308.96,97.1 L315.71,97.1 L315.71,98.84 L315.77,98.84 C316.170002,98.2599971 316.764996,97.7550022 317.555,97.325 C318.345004,96.8949978 319.249995,96.68 320.27,96.68 C321.370006,96.68 322.284996,96.879998 323.015,97.28 C323.745004,97.680002 324.324998,98.1949969 324.755,98.825 C325.185002,99.4550032 325.484999,100.159996 325.655,100.94 C325.825001,101.720004 325.91,102.499996 325.91,103.28 L325.91,112.88 L318.95,112.88 L318.95,104.48 C318.95,103.679996 318.825001,103.120002 318.575,102.8 C318.324999,102.479998 317.950003,102.32 317.45,102.32 C316.989998,102.32 316.615001,102.504998 316.325,102.875 C316.034999,103.245002 315.89,103.779997 315.89,104.48 L315.89,112.88 L308.96,112.88 L308.96,97.1 Z M328.94,97.1 L335.69,97.1 L335.69,98.84 L335.75,98.84 C336.150002,98.2599971 336.744996,97.7550022 337.535,97.325 C338.325004,96.8949978 339.229995,96.68 340.25,96.68 C341.350006,96.68 342.264996,96.879998 342.995,97.28 C343.725004,97.680002 344.304998,98.1949969 344.735,98.825 C345.165002,99.4550032 345.464999,100.159996 345.635,100.94 C345.805001,101.720004 345.89,102.499996 345.89,103.28 L345.89,112.88 L338.93,112.88 L338.93,104.48 C338.93,103.679996 338.805001,103.120002 338.555,102.8 C338.304999,102.479998 337.930003,102.32 337.43,102.32 C336.969998,102.32 336.595001,102.504998 336.305,102.875 C336.014999,103.245002 335.87,103.779997 335.87,104.48 L335.87,112.88 L328.94,112.88 L328.94,97.1 Z M359.42,102.89 C359.42,102.329997 359.215002,101.870002 358.805,101.51 C358.394998,101.149998 357.840003,100.97 357.14,100.97 C356.379996,100.97 355.790002,101.179998 355.37,101.6 C354.949998,102.020002 354.71,102.449998 354.65,102.89 L359.42,102.89 Z M365.39,105.14 C365.39,105.400001 365.385,105.664999 365.375,105.935 C365.365,106.205001 365.35,106.429999 365.33,106.61 L354.71,106.61 C354.73,106.890001 354.824999,107.139999 354.995,107.36 C355.165001,107.580001 355.374999,107.769999 355.625,107.93 C355.875001,108.090001 356.154998,108.21 356.465,108.29 C356.775002,108.37 357.089998,108.41 357.41,108.41 C358.050003,108.41 358.584998,108.295001 359.015,108.065 C359.445002,107.834999 359.769999,107.580001 359.99,107.3 L364.91,109.79 C364.209996,110.930006 363.195007,111.829997 361.865,112.49 C360.534993,113.150003 358.990009,113.48 357.23,113.48 C356.089994,113.48 354.980005,113.300002 353.9,112.94 C352.819995,112.579998 351.865004,112.045004 351.035,111.335 C350.204996,110.624996 349.540003,109.740005 349.04,108.68 C348.539998,107.619995 348.29,106.390007 348.29,104.99 C348.29,103.689994 348.519998,102.515005 348.98,101.465 C349.440002,100.414995 350.064996,99.5250037 350.855,98.795 C351.645004,98.0649964 352.574995,97.500002 353.645,97.1 C354.715005,96.699998 355.859994,96.5 357.08,96.5 C358.320006,96.5 359.449995,96.7149979 360.47,97.145 C361.490005,97.5750022 362.364996,98.1749961 363.095,98.945 C363.825004,99.7150039 364.389998,100.629995 364.79,101.69 C365.190002,102.750005 365.39,103.899994 365.39,105.14 Z M367.82,97.1 L374.57,97.1 L374.57,98.84 L374.63,98.84 C375.030002,98.2599971 375.624996,97.7550022 376.415,97.325 C377.205004,96.8949978 378.109995,96.68 379.13,96.68 C380.230005,96.68 381.144996,96.879998 381.875,97.28 C382.605004,97.680002 383.184998,98.1949969 383.615,98.825 C384.045002,99.4550032 384.344999,100.159996 384.515,100.94 C384.685001,101.720004 384.77,102.499996 384.77,103.28 L384.77,112.88 L377.81,112.88 L377.81,104.48 C377.81,103.679996 377.685001,103.120002 377.435,102.8 C377.184999,102.479998 376.810002,102.32 376.31,102.32 C375.849998,102.32 375.475001,102.504998 375.185,102.875 C374.894999,103.245002 374.75,103.779997 374.75,104.48 L374.75,112.88 L367.82,112.88 L367.82,97.1 Z M413.57,104.93 C413.57,105.970005 413.415002,106.989995 413.105,107.99 C412.794998,108.990005 412.340003,109.884996 411.74,110.675 C411.139997,111.465004 410.390005,112.099998 409.49,112.58 C408.589995,113.060002 407.550006,113.3 406.37,113.3 C405.389995,113.3 404.460004,113.115002 403.58,112.745 C402.699996,112.374998 402.030002,111.870003 401.57,111.23 L401.51,111.23 L401.51,112.88 L395.3,112.88 L395.3,90.2 L402.2,90.2 L402.2,98.36 L402.26,98.36 C402.720002,97.8199973 403.329996,97.4050015 404.09,97.115 C404.850004,96.8249986 405.609996,96.68 406.37,96.68 C407.550006,96.68 408.589995,96.9199976 409.49,97.4 C410.390005,97.8800024 411.139997,98.5099961 411.74,99.29 C412.340003,100.070004 412.794998,100.949995 413.105,101.93 C413.415002,102.910005 413.57,103.909995 413.57,104.93 Z M407.15,104.93 C407.15,104.229997 406.930002,103.620003 406.49,103.1 C406.049998,102.579997 405.410004,102.32 404.57,102.32 C403.749996,102.32 403.095002,102.579997 402.605,103.1 C402.114998,103.620003 401.87,104.229997 401.87,104.93 C401.87,105.670004 402.114998,106.299997 402.605,106.82 C403.095002,107.340003 403.749996,107.6 404.57,107.6 C405.410004,107.6 406.049998,107.345003 406.49,106.835 C406.930002,106.324997 407.15,105.690004 407.15,104.93 Z M416.15,97.1 L423.08,97.1 L423.08,112.88 L416.15,112.88 L416.15,97.1 Z M416.03,92.54 C416.03,92.0599976 416.124999,91.6050022 416.315,91.175 C416.505001,90.7449979 416.764998,90.3700016 417.095,90.05 C417.425002,89.7299984 417.809998,89.475001 418.25,89.285 C418.690002,89.0949991 419.159998,89 419.66,89 C420.140002,89 420.589998,89.0949991 421.01,89.285 C421.430002,89.475001 421.804998,89.7299984 422.135,90.05 C422.465002,90.3700016 422.724999,90.7449979 422.915,91.175 C423.105001,91.6050022 423.2,92.0599976 423.2,92.54 C423.2,93.0400025 423.105001,93.5049979 422.915,93.935 C422.724999,94.3650022 422.465002,94.7349985 422.135,95.045 C421.804998,95.3550015 421.430002,95.5999991 421.01,95.78 C420.589998,95.9600009 420.140002,96.05 419.66,96.05 C419.159998,96.05 418.690002,95.9600009 418.25,95.78 C417.809998,95.5999991 417.425002,95.3550015 417.095,95.045 C416.764998,94.7349985 416.505001,94.3650022 416.315,93.935 C416.124999,93.5049979 416.03,93.0400025 416.03,92.54 Z M426.29,90.2 L433.37,90.2 L433.37,112.88 L426.29,112.88 L426.29,90.2 Z M435.92,104.93 C435.92,103.909995 436.074998,102.910005 436.385,101.93 C436.695002,100.949995 437.149997,100.070004 437.75,99.29 C438.350003,98.5099961 439.099995,97.8800024 440,97.4 C440.900005,96.9199976 441.939994,96.68 443.12,96.68 C443.880004,96.68 444.639996,96.8249986 445.4,97.115 C446.160004,97.4050015 446.769998,97.8199973 447.23,98.36 L447.29,98.36 L447.29,90.2 L454.19,90.2 L454.19,112.88 L447.98,112.88 L447.98,111.23 L447.92,111.23 C447.459998,111.870003 446.790004,112.374998 445.91,112.745 C445.029996,113.115002 444.100005,113.3 443.12,113.3 C441.939994,113.3 440.900005,113.060002 440,112.58 C439.099995,112.099998 438.350003,111.465004 437.75,110.675 C437.149997,109.884996 436.695002,108.990005 436.385,107.99 C436.074998,106.989995 435.92,105.970005 435.92,104.93 Z M442.34,104.93 C442.34,105.690004 442.559998,106.324997 443,106.835 C443.440002,107.345003 444.079996,107.6 444.92,107.6 C445.740004,107.6 446.394998,107.340003 446.885,106.82 C447.375002,106.299997 447.62,105.670004 447.62,104.93 C447.62,104.229997 447.375002,103.620003 446.885,103.1 C446.394998,102.579997 445.740004,102.32 444.92,102.32 C444.079996,102.32 443.440002,102.579997 443,103.1 C442.559998,103.620003 442.34,104.229997 442.34,104.93 Z M467.87,102.89 C467.87,102.329997 467.665002,101.870002 467.255,101.51 C466.844998,101.149998 466.290004,100.97 465.59,100.97 C464.829996,100.97 464.240002,101.179998 463.82,101.6 C463.399998,102.020002 463.16,102.449998 463.1,102.89 L467.87,102.89 Z M473.84,105.14 C473.84,105.400001 473.835,105.664999 473.825,105.935 C473.815,106.205001 473.8,106.429999 473.78,106.61 L463.16,106.61 C463.18,106.890001 463.274999,107.139999 463.445,107.36 C463.615001,107.580001 463.824999,107.769999 464.075,107.93 C464.325001,108.090001 464.604998,108.21 464.915,108.29 C465.225002,108.37 465.539998,108.41 465.86,108.41 C466.500003,108.41 467.034998,108.295001 467.465,108.065 C467.895002,107.834999 468.219999,107.580001 468.44,107.3 L473.36,109.79 C472.659996,110.930006 471.645007,111.829997 470.315,112.49 C468.984993,113.150003 467.440009,113.48 465.68,113.48 C464.539994,113.48 463.430005,113.300002 462.35,112.94 C461.269995,112.579998 460.315004,112.045004 459.485,111.335 C458.654996,110.624996 457.990002,109.740005 457.49,108.68 C456.989997,107.619995 456.74,106.390007 456.74,104.99 C456.74,103.689994 456.969998,102.515005 457.43,101.465 C457.890002,100.414995 458.514996,99.5250037 459.305,98.795 C460.095004,98.0649964 461.024995,97.500002 462.095,97.1 C463.165005,96.699998 464.309994,96.5 465.53,96.5 C466.770006,96.5 467.899995,96.7149979 468.92,97.145 C469.940005,97.5750022 470.814996,98.1749961 471.545,98.945 C472.275004,99.7150039 472.839998,100.629995 473.24,101.69 C473.640002,102.750005 473.84,103.899994 473.84,105.14 Z M476.27,97.1 L483.02,97.1 L483.02,98.84 L483.08,98.84 C483.480002,98.2599971 484.074996,97.7550022 484.865,97.325 C485.655004,96.8949978 486.559995,96.68 487.58,96.68 C488.680005,96.68 489.594996,96.879998 490.325,97.28 C491.055004,97.680002 491.634998,98.1949969 492.065,98.825 C492.495002,99.4550032 492.794999,100.159996 492.965,100.94 C493.135001,101.720004 493.22,102.499996 493.22,103.28 L493.22,112.88 L486.26,112.88 L486.26,104.48 C486.26,103.679996 486.135001,103.120002 485.885,102.8 C485.634999,102.479998 485.260002,102.32 484.76,102.32 C484.299998,102.32 483.925001,102.504998 483.635,102.875 C483.344999,103.245002 483.2,103.779997 483.2,104.48 L483.2,112.88 L476.27,112.88 L476.27,97.1 Z M100.13,143.89 C100.13,143.329997 99.925002,142.870002 99.515,142.51 C99.1049979,142.149998 98.5500035,141.97 97.85,141.97 C97.0899962,141.97 96.5000021,142.179998 96.08,142.6 C95.6599979,143.020002 95.4200003,143.449998 95.36,143.89 L100.13,143.89 Z M106.1,146.14 C106.1,146.400001 106.095,146.664999 106.085,146.935 C106.075,147.205001 106.06,147.429999 106.04,147.61 L95.42,147.61 C95.4400001,147.890001 95.5349992,148.139999 95.705,148.36 C95.8750008,148.580001 96.0849987,148.769999 96.335,148.93 C96.5850013,149.090001 96.8649985,149.21 97.175,149.29 C97.4850015,149.37 97.7999984,149.41 98.12,149.41 C98.7600032,149.41 99.2949978,149.295001 99.725,149.065 C100.155002,148.834999 100.479999,148.580001 100.7,148.3 L105.62,150.79 C104.919996,151.930006 103.905007,152.829997 102.575,153.49 C101.244993,154.150003 99.7000088,154.48 97.94,154.48 C96.7999943,154.48 95.6900054,154.300002 94.61,153.94 C93.5299946,153.579998 92.5750041,153.045004 91.745,152.335 C90.9149958,151.624996 90.2500025,150.740005 89.75,149.68 C89.2499975,148.619995 89,147.390007 89,145.99 C89,144.689994 89.2299977,143.515005 89.69,142.465 C90.1500023,141.414995 90.774996,140.525004 91.565,139.795 C92.3550039,139.064996 93.2849946,138.500002 94.355,138.1 C95.4250053,137.699998 96.5699939,137.5 97.79,137.5 C99.0300062,137.5 100.159995,137.714998 101.18,138.145 C102.200005,138.575002 103.074996,139.174996 103.805,139.945 C104.535004,140.715004 105.099998,141.629995 105.5,142.69 C105.900002,143.750005 106.1,144.899994 106.1,146.14 Z M108.56,138.1 L115.49,138.1 L115.49,153.88 L108.56,153.88 L108.56,138.1 Z M108.44,133.54 C108.44,133.059998 108.534999,132.605002 108.725,132.175 C108.915001,131.744998 109.174998,131.370002 109.505,131.05 C109.835002,130.729998 110.219998,130.475001 110.66,130.285 C111.100002,130.094999 111.569997,130 112.07,130 C112.550002,130 112.999998,130.094999 113.42,130.285 C113.840002,130.475001 114.214998,130.729998 114.545,131.05 C114.875002,131.370002 115.134999,131.744998 115.325,132.175 C115.515001,132.605002 115.61,133.059998 115.61,133.54 C115.61,134.040003 115.515001,134.504998 115.325,134.935 C115.134999,135.365002 114.875002,135.734998 114.545,136.045 C114.214998,136.355002 113.840002,136.599999 113.42,136.78 C112.999998,136.960001 112.550002,137.05 112.07,137.05 C111.569997,137.05 111.100002,136.960001 110.66,136.78 C110.219998,136.599999 109.835002,136.355002 109.505,136.045 C109.174998,135.734998 108.915001,135.365002 108.725,134.935 C108.534999,134.504998 108.44,134.040003 108.44,133.54 Z M118.7,138.1 L125.45,138.1 L125.45,139.84 L125.51,139.84 C125.910002,139.259997 126.504996,138.755002 127.295,138.325 C128.085004,137.894998 128.989995,137.68 130.01,137.68 C131.110005,137.68 132.024996,137.879998 132.755,138.28 C133.485004,138.680002 134.064998,139.194997 134.495,139.825 C134.925002,140.455003 135.224999,141.159996 135.395,141.94 C135.565001,142.720004 135.65,143.499996 135.65,144.28 L135.65,153.88 L128.69,153.88 L128.69,145.48 C128.69,144.679996 128.565001,144.120002 128.315,143.8 C128.064999,143.479998 127.690002,143.32 127.19,143.32 C126.729998,143.32 126.355001,143.504998 126.065,143.875 C125.774999,144.245002 125.63,144.779997 125.63,145.48 L125.63,153.88 L118.7,153.88 L118.7,138.1 Z M146.57,132.64 L153.77,132.64 L153.77,147.76 L160.82,147.76 L160.82,153.88 L146.57,153.88 L146.57,132.64 Z M171.08,147.34 C170.059995,147.34 169.240003,147.449999 168.62,147.67 C167.999997,147.890001 167.69,148.299997 167.69,148.9 C167.69,149.120001 167.739999,149.304999 167.84,149.455 C167.94,149.605001 168.069999,149.73 168.23,149.83 C168.390001,149.930001 168.564999,150.005 168.755,150.055 C168.945001,150.105 169.119999,150.13 169.28,150.13 C169.940003,150.13 170.469998,149.920002 170.87,149.5 C171.270002,149.079998 171.47,148.540003 171.47,147.88 L171.47,147.34 L171.08,147.34 Z M171.02,143.86 C171.02,143.379998 170.855002,143.025001 170.525,142.795 C170.194998,142.564999 169.760003,142.45 169.22,142.45 C168.579997,142.45 167.975003,142.584999 167.405,142.855 C166.834997,143.125001 166.330002,143.439998 165.89,143.8 L162.44,140.38 C163.400005,139.459995 164.539993,138.750003 165.86,138.25 C167.180007,137.749998 168.539993,137.5 169.94,137.5 C171.440007,137.5 172.679995,137.709998 173.66,138.13 C174.640005,138.550002 175.414997,139.129996 175.985,139.87 C176.555003,140.610004 176.954999,141.469995 177.185,142.45 C177.415001,143.430005 177.53,144.469995 177.53,145.57 L177.53,153.88 L171.26,153.88 L171.26,152.62 L171.2,152.62 C170.799998,153.220003 170.230004,153.649999 169.49,153.91 C168.749996,154.170001 168.030003,154.3 167.33,154.3 C166.709997,154.3 166.075003,154.210001 165.425,154.03 C164.774997,153.849999 164.185003,153.560002 163.655,153.16 C163.124997,152.759998 162.690002,152.240003 162.35,151.6 C162.009998,150.959997 161.84,150.170005 161.84,149.23 C161.84,148.129995 162.124997,147.235003 162.695,146.545 C163.265003,145.854997 163.989996,145.315002 164.87,144.925 C165.750004,144.534998 166.734995,144.270001 167.825,144.13 C168.915005,143.989999 169.979995,143.92 171.02,143.92 L171.02,143.86 Z M197.09,153.88 L190.34,153.88 L190.34,152.14 L190.28,152.14 C189.879998,152.720003 189.285004,153.224998 188.495,153.655 C187.704996,154.085002 186.800005,154.3 185.78,154.3 C184.659994,154.3 183.740004,154.105002 183.02,153.715 C182.299996,153.324998 181.725002,152.815003 181.295,152.185 C180.864998,151.554997 180.565001,150.845004 180.395,150.055 C180.224999,149.264996 180.14,148.480004 180.14,147.7 L180.14,138.1 L187.1,138.1 L187.1,146.44 C187.1,147.240004 187.224999,147.799998 187.475,148.12 C187.725001,148.440002 188.099998,148.6 188.6,148.6 C189.060002,148.6 189.434999,148.415002 189.725,148.045 C190.015001,147.674998 190.16,147.140004 190.16,146.44 L190.16,138.1 L197.09,138.1 L197.09,153.88 Z M211.46,135.94 C211.279999,135.86 211.070001,135.795 210.83,135.745 C210.589999,135.695 210.350001,135.67 210.11,135.67 C209.429997,135.67 208.955001,135.879998 208.685,136.3 C208.414999,136.720002 208.28,137.249997 208.28,137.89 L208.28,138.1 L211.61,138.1 L211.61,143.05 L208.28,143.05 L208.28,153.88 L201.38,153.88 L201.38,143.05 L198.68,143.05 L198.68,138.1 L201.38,138.1 L201.38,137.74 C201.38,136.759995 201.494999,135.820005 201.725,134.92 C201.955001,134.019996 202.349997,133.225003 202.91,132.535 C203.470003,131.844997 204.224995,131.300002 205.175,130.9 C206.125005,130.499998 207.319993,130.3 208.76,130.3 C209.220002,130.3 209.754997,130.335 210.365,130.405 C210.975003,130.475 211.489998,130.589999 211.91,130.75 L211.46,135.94 Z M212.36,145.93 C212.36,144.909995 212.514998,143.910005 212.825,142.93 C213.135002,141.949995 213.589997,141.070004 214.19,140.29 C214.790003,139.509996 215.539996,138.880002 216.44,138.4 C217.340004,137.919998 218.379994,137.68 219.56,137.68 C220.320004,137.68 221.079996,137.824999 221.84,138.115 C222.600004,138.405001 223.209998,138.819997 223.67,139.36 L223.73,139.36 L223.73,131.2 L230.63,131.2 L230.63,153.88 L224.42,153.88 L224.42,152.23 L224.36,152.23 C223.899998,152.870003 223.230004,153.374998 222.35,153.745 C221.469996,154.115002 220.540005,154.3 219.56,154.3 C218.379994,154.3 217.340004,154.060002 216.44,153.58 C215.539996,153.099998 214.790003,152.465004 214.19,151.675 C213.589997,150.884996 213.135002,149.990005 212.825,148.99 C212.514998,147.989995 212.36,146.970005 212.36,145.93 Z M218.78,145.93 C218.78,146.690004 218.999998,147.324997 219.44,147.835 C219.880002,148.345003 220.519996,148.6 221.36,148.6 C222.180004,148.6 222.834998,148.340003 223.325,147.82 C223.815002,147.299997 224.06,146.670004 224.06,145.93 C224.06,145.229997 223.815002,144.620003 223.325,144.1 C222.834998,143.579997 222.180004,143.32 221.36,143.32 C220.519996,143.32 219.880002,143.579997 219.44,144.1 C218.999998,144.620003 218.78,145.229997 218.78,145.93 Z M250.52,153.88 L243.77,153.88 L243.77,152.14 L243.71,152.14 C243.309998,152.720003 242.715004,153.224998 241.925,153.655 C241.134996,154.085002 240.230005,154.3 239.21,154.3 C238.089994,154.3 237.170004,154.105002 236.45,153.715 C235.729996,153.324998 235.155002,152.815003 234.725,152.185 C234.294998,151.554997 233.995001,150.845004 233.825,150.055 C233.654999,149.264996 233.57,148.480004 233.57,147.7 L233.57,138.1 L240.53,138.1 L240.53,146.44 C240.53,147.240004 240.654999,147.799998 240.905,148.12 C241.155001,148.440002 241.529998,148.6 242.03,148.6 C242.490002,148.6 242.864999,148.415002 243.155,148.045 C243.445001,147.674998 243.59,147.140004 243.59,146.44 L243.59,138.1 L250.52,138.1 L250.52,153.88 Z M271.07,145.93 C271.07,147.290007 270.825002,148.499995 270.335,149.56 C269.844998,150.620005 269.185004,151.514996 268.355,152.245 C267.524996,152.975004 266.565005,153.529998 265.475,153.91 C264.384995,154.290002 263.240006,154.48 262.04,154.48 C260.859994,154.48 259.725005,154.290002 258.635,153.91 C257.544995,153.529998 256.590004,152.975004 255.77,152.245 C254.949996,151.514996 254.295002,150.620005 253.805,149.56 C253.314998,148.499995 253.07,147.290007 253.07,145.93 C253.07,144.589993 253.314998,143.395005 253.805,142.345 C254.295002,141.294995 254.949996,140.410004 255.77,139.69 C256.590004,138.969996 257.544995,138.425002 258.635,138.055 C259.725005,137.684998 260.859994,137.5 262.04,137.5 C263.240006,137.5 264.384995,137.684998 265.475,138.055 C266.565005,138.425002 267.524996,138.969996 268.355,139.69 C269.185004,140.410004 269.844998,141.294995 270.335,142.345 C270.825002,143.395005 271.07,144.589993 271.07,145.93 Z M262.04,143.32 C261.279996,143.32 260.665002,143.579997 260.195,144.1 C259.724998,144.620003 259.49,145.229997 259.49,145.93 C259.49,146.670004 259.729998,147.299997 260.21,147.82 C260.690002,148.340003 261.309996,148.6 262.07,148.6 C262.830004,148.6 263.449998,148.340003 263.93,147.82 C264.410002,147.299997 264.65,146.670004 264.65,145.93 C264.65,145.229997 264.405002,144.620003 263.915,144.1 C263.424998,143.579997 262.800004,143.32 262.04,143.32 Z" id="Zwei-Läufer/-Innen-b" fill="#FFFFFF"></path>
        </g>
    </g>
</svg>